<?xml version="1.0" encoding="UTF-8"?>
<svg id="Capa_2" data-name="Capa 2" xmlns="http://www.w3.org/2000/svg" viewBox="0 0 1244.17 803.77">
  <defs>
    <style>
      .cls-1 {
        fill: #1d601e;
      }

      .cls-2 {
        fill: #0e1e00;
      }

      .cls-3 {
        fill: #2f8234;
      }
    </style>
  </defs>
  <g id="Capa_1-2" data-name="Capa 1">
    <g>
      <path class="cls-1" d="M178.48,791.58l-13.97-41.54,57.4-19.31L84.53,322.37l-58.85,19.8-13.38-39.77,426.91-143.62,57.14,153.6-41.52,13.97-4.11-6.07c-24.91-36.79-49.54-60.43-73.19-70.25-23.16-9.61-52.67-8.51-87.7,3.28l-64.74,21.78,59.62,176.14c2-.62,4.45-1.41,7.4-2.4,23.35-7.85,38.46-19.41,46.21-35.33,7.9-16.24,9.04-39.38,3.39-68.8l-1.58-8.24,41.91-14.1,73.8,219.37-42.34,14.25-3.49-8.13c-12.67-29.49-27.39-48.73-43.77-57.2-15.95-8.25-37.16-8.01-63.03.69l-4.83,1.62,64.09,190.5,70.4-23.68,13.97,41.54-268.34,90.28Z"/>
      <path class="cls-2" d="M433.3,170.88l50.45,135.64-24.91,8.38c-26.09-38.54-51.92-63.11-77.45-73.71-25.53-10.6-57.08-9.58-94.63,3.05l-74.01,24.9,65.55,193.65c1.76-.33,3.93-.86,6.5-1.59,2.57-.73,6.02-1.83,10.35-3.28,25.75-8.66,43.06-22.11,51.94-40.34,8.87-18.23,10.26-43.14,4.19-74.76l24.55-8.26,67.69,201.21-24.55,8.26c-13.62-31.7-29.66-52.33-48.15-61.88-18.49-9.55-42.05-9.51-70.69.12l-14.08,4.74,70.2,208.65,70.4-23.68,7.87,23.38-249.83,84.05-7.87-23.38,57.4-19.31L90.73,310.18l-58.85,19.8-7.27-21.61,408.69-137.49ZM445.13,146.69l-17.94,6.04L18.5,290.21l-18.5,6.23,6.11,18.16,7.27,21.61,6.11,18.16,18.5-6.23,40.34-13.57,131.27,390.2-38.9,13.09-18.5,6.23,6.11,18.16,7.87,23.38,6.11,18.16,18.5-6.23,249.83-84.05,18.5-6.23-6.11-18.16-7.87-23.38-6.11-18.16-18.5,6.23-51.9,17.46-57.96-172.27c21.18-6.42,38.29-6.37,50.93.16,14.36,7.42,27.62,25.09,39.4,52.51l6.98,16.25,17.08-5.75,24.55-8.26,18.5-6.23-6.11-18.16-67.69-201.21-6.11-18.16-18.5,6.23-24.55,8.26-16.21,5.45,3.17,16.48c5.26,27.36,4.39,48.5-2.59,62.84-6.34,13.03-18.99,22.75-38.63,29.68l-53.5-158.06,55.47-18.66c32.69-11,59.87-12.18,80.78-3.5,21.89,9.09,45.09,31.56,68.94,66.79l8.22,12.14,14.14-4.76,24.91-8.38,19.09-6.42-6.89-18.52-50.45-135.64-6.47-17.41h0Z"/>
      <path class="cls-1" d="M662.2,686.7l11.67-42.24,58.38,16.13,114.78-415.28-59.85-16.54,11.18-40.44,434.14,119.99-38.65,159.26-42.23-11.67v-7.33c-.05-44.43-7.22-77.8-21.33-99.19-13.81-20.93-38.88-36.54-74.5-46.38l-65.84-18.2-49.2,179.33c2,.61,4.47,1.32,7.47,2.15,23.74,6.56,42.74,5.45,58.07-3.41,15.64-9.03,29.54-27.57,41.33-55.11l3.3-7.72,42.62,11.78-61.66,223.09-43.06-11.9,1.66-8.69c6.01-31.53,4.58-55.72-4.25-71.9-8.6-15.76-26.31-27.44-52.62-34.72l-4.91-1.36-53.54,193.72,71.59,19.79-11.67,42.24-272.88-75.42Z"/>
      <path class="cls-2" d="M1220.83,315.04l-34.13,140.63-25.33-7c-.05-46.54-7.69-81.36-22.91-104.44-15.23-23.07-41.93-39.9-80.11-50.45l-75.27-20.8-54.1,197.16c1.64.71,3.74,1.49,6.28,2.32,2.54.84,6.01,1.85,10.41,3.07,26.19,7.24,48.06,5.79,65.62-4.35,17.56-10.14,32.66-30,45.32-59.6l24.97,6.9-56.55,204.62-24.97-6.9c6.46-33.89,4.72-59.96-5.25-78.23-9.97-18.27-29.52-31.42-58.64-39.47l-14.32-3.96-58.65,212.19,71.59,19.79-6.57,23.78-254.07-70.22,6.57-23.78,58.38,16.13,119.88-433.74-59.85-16.54,6.07-21.98,415.61,114.87ZM1244.17,301.62l-18.24-5.04-415.61-114.87-18.82-5.2-5.1,18.46-6.07,21.98-5.1,18.46,18.82,5.2,41.03,11.34-109.67,396.81-39.56-10.93-18.82-5.2-5.1,18.46-6.57,23.78-5.1,18.46,18.82,5.2,254.07,70.22,18.82,5.2,5.1-18.46,6.57-23.78,5.1-18.46-18.82-5.2-52.78-14.59,48.42-175.19c21.14,6.54,35.3,16.16,42.11,28.65,7.74,14.19,8.84,36.25,3.24,65.57l-3.31,17.38,17.37,4.8,24.97,6.9,18.82,5.2,5.1-18.46,56.55-204.62,5.1-18.46-18.82-5.2-24.97-6.9-16.48-4.56-6.6,15.43c-10.96,25.62-23.52,42.65-37.33,50.62-12.55,7.25-28.47,8.22-48.63,2.97l44.15-160.92,56.41,15.59c33.25,9.19,56.43,23.43,68.89,42.32,13.05,19.79,19.69,51.39,19.73,93.93v14.66s14.39,3.97,14.39,3.97l25.33,7,19.41,5.36,4.66-19.2,34.13-140.63,4.38-18.05h0Z"/>
      <g>
        <path class="cls-3" d="M354.83,725.72v-60.44h83.53V71.07h-85.63V13.21h621.2l7.14,225.91h-60.42l-2.7-9.74c-16.38-59.05-38.18-100.77-64.78-124.02-26.05-22.75-65.1-34.28-116.08-34.28h-94.21l.48,256.46c2.89.08,6.43.11,10.73.11,33.97,0,58.81-8.46,75.95-25.86,17.47-17.75,29.14-47.5,34.69-88.44l1.55-11.47h60.98v319.2h-61.62l-.99-12.16c-3.59-44.12-14.38-75.75-32.06-94.02-17.23-17.79-45.05-26.82-82.7-26.82h-7.03v277.19h102.44v60.44h-390.46Z"/>
        <path class="cls-2" d="M960.88,26.42l6.3,199.49h-36.25c-17.16-61.86-40.11-105.33-68.82-130.41-28.72-25.08-70.4-37.63-125.03-37.63h-107.69l.53,281.96c2.44.34,5.52.6,9.19.77,3.68.18,8.67.26,14.97.26,37.47,0,66.01-9.97,85.63-29.9,19.61-19.92,32.39-51.88,38.35-95.88h35.72v292.79h-35.72c-3.86-47.42-15.76-81.44-35.72-102.06-19.96-20.62-50.78-30.93-92.46-30.93h-20.49v303.61h102.44v34.02h-363.54v-34.02h83.53V57.86h-85.63v-31.44h594.68M986.98,0H339.27v84.28h85.63v567.79h-83.53v86.86h417.39v-86.86h-102.44v-250.68c30.51.92,52.86,8.52,66.5,22.61,15.51,16.02,25.06,44.94,28.4,85.97l1.98,24.32h87.51V188.66h-86.23l-3.11,22.94c-5.16,38.08-15.6,65.33-31.03,81-14.02,14.25-34.83,21.39-63.55,21.81l-.43-230.13h80.72c47.57,0,83.62,10.41,107.13,30.95,24.62,21.51,45.06,61.08,60.74,117.62l5.4,19.48h84.6l-.86-27.24-6.3-199.49-.81-25.6h0Z"/>
      </g>
    </g>
  </g>
</svg>