<?xml version="1.0" encoding="UTF-8"?>
<svg id="Capa_2" data-name="Capa 2" xmlns="http://www.w3.org/2000/svg" xmlns:xlink="http://www.w3.org/1999/xlink" viewBox="0 0 633.07 2517.96">
  <defs>
    <style>
      .cls-1 {
        fill: url(#linear-gradient-15);
      }

      .cls-2 {
        fill: url(#linear-gradient-13);
      }

      .cls-3 {
        fill: url(#linear-gradient-28);
      }

      .cls-4 {
        fill: url(#linear-gradient-2);
      }

      .cls-5 {
        fill: #2c4496;
      }

      .cls-6 {
        fill: #273c86;
      }

      .cls-7 {
        fill: #283e89;
      }

      .cls-8 {
        fill: url(#linear-gradient-25);
      }

      .cls-9 {
        fill: url(#linear-gradient-10);
      }

      .cls-10 {
        fill: url(#linear-gradient-12);
      }

      .cls-11 {
        fill: url(#linear-gradient-27);
      }

      .cls-12 {
        fill: #2a4190;
      }

      .cls-13 {
        fill: #20326e;
      }

      .cls-14 {
        fill: #24387c;
      }

      .cls-15 {
        fill: #2b4293;
      }

      .cls-16 {
        fill: url(#linear-gradient-26);
      }

      .cls-17 {
        fill: none;
      }

      .cls-18 {
        fill: url(#linear-gradient-4);
      }

      .cls-19 {
        fill: #1e2f68;
      }

      .cls-20 {
        fill: url(#linear-gradient-35);
      }

      .cls-21 {
        fill: url(#linear-gradient-30);
      }

      .cls-22 {
        fill: #293f8c;
      }

      .cls-23 {
        fill: url(#linear-gradient-3);
      }

      .cls-24 {
        fill: url(#linear-gradient-34);
      }

      .cls-25 {
        fill: url(#linear-gradient-5);
      }

      .cls-26 {
        fill: url(#linear-gradient-22);
      }

      .cls-27 {
        fill: url(#linear-gradient-24);
      }

      .cls-28 {
        isolation: isolate;
      }

      .cls-29 {
        fill: url(#linear-gradient-33);
      }

      .cls-30 {
        fill: url(#linear-gradient-8);
      }

      .cls-31 {
        fill: #1b2a5e;
      }

      .cls-32 {
        fill: url(#linear-gradient-14);
      }

      .cls-33 {
        fill: #213372;
      }

      .cls-34 {
        fill: #1d2d64;
      }

      .cls-35 {
        fill: url(#linear-gradient-29);
      }

      .cls-36 {
        fill: #25397f;
      }

      .cls-37 {
        fill: url(#linear-gradient-20);
      }

      .cls-38 {
        fill: url(#linear-gradient-17);
      }

      .cls-39 {
        fill: url(#linear-gradient-7);
      }

      .cls-40 {
        fill: url(#linear-gradient-9);
      }

      .cls-41 {
        fill: url(#linear-gradient-11);
      }

      .cls-42 {
        fill: #192757;
      }

      .cls-43 {
        fill: url(#linear-gradient-19);
      }

      .cls-44 {
        fill: url(#linear-gradient-6);
      }

      .cls-45 {
        fill: #263b82;
      }

      .cls-46 {
        fill: url(#linear-gradient-21);
      }

      .cls-47 {
        fill: #1a295a;
      }

      .cls-48 {
        fill: #233678;
      }

      .cls-49 {
        fill: #1f306b;
      }

      .cls-50 {
        fill: #223575;
      }

      .cls-51 {
        fill: url(#linear-gradient-32);
      }

      .cls-52 {
        fill: url(#linear-gradient-16);
      }

      .cls-53 {
        fill: url(#linear-gradient);
      }

      .cls-54 {
        fill: url(#linear-gradient-23);
      }

      .cls-55 {
        fill: url(#linear-gradient-31);
      }

      .cls-56 {
        clip-path: url(#clippath);
      }

      .cls-57 {
        fill: #1c2c61;
      }

      .cls-58 {
        fill: url(#linear-gradient-18);
      }
    </style>
    <clipPath id="clippath">
      <path class="cls-17" d="M530.12,2072.55l-35.41-27.99c3.19,2.52,8.61,1.29,12.54-3,2.87-3.11,4.23-7,3.92-10.21l35.41,27.99c.32,3.21-1.04,7.1-3.92,10.21-3.93,4.29-9.35,5.52-12.54,3Z"/>
    </clipPath>
    <linearGradient id="linear-gradient" x1="1005.6" y1="1332.07" x2="1265.78" y2="744.01" gradientTransform="translate(-486.7 1055.33) rotate(11.5)" gradientUnits="userSpaceOnUse">
      <stop offset="0" stop-color="#ee3f26"/>
      <stop offset="0" stop-color="#df3a24"/>
      <stop offset=".02" stop-color="#c02f20"/>
      <stop offset=".03" stop-color="#a7261c"/>
      <stop offset=".05" stop-color="#931f1a"/>
      <stop offset=".06" stop-color="#851a18"/>
      <stop offset=".09" stop-color="#7d1717"/>
      <stop offset=".13" stop-color="#7b1717"/>
      <stop offset=".25" stop-color="#691012"/>
      <stop offset=".39" stop-color="#5d0c0f"/>
      <stop offset=".53" stop-color="#5a0b0e"/>
      <stop offset=".6" stop-color="#5e0c0e"/>
      <stop offset=".68" stop-color="#6d1111"/>
      <stop offset=".76" stop-color="#851a15"/>
      <stop offset=".85" stop-color="#a6251a"/>
      <stop offset=".94" stop-color="#d03421"/>
      <stop offset="1" stop-color="#ee3f26"/>
    </linearGradient>
    <linearGradient id="linear-gradient-2" x1="824.25" y1="984.99" x2="1235.8" y2="984.99" gradientTransform="translate(-486.7 1055.33) rotate(11.5)" gradientUnits="userSpaceOnUse">
      <stop offset="0" stop-color="#52090b"/>
      <stop offset=".4" stop-color="#660e0e"/>
      <stop offset="1" stop-color="#8c1915"/>
    </linearGradient>
    <linearGradient id="linear-gradient-3" x1="1008.11" y1="1283.09" x2="1047.17" y2="736.17" gradientTransform="translate(-486.7 1055.33) rotate(11.5)" gradientUnits="userSpaceOnUse">
      <stop offset="0" stop-color="#511416"/>
      <stop offset=".48" stop-color="#a4091e"/>
      <stop offset=".83" stop-color="#da0223"/>
      <stop offset="1" stop-color="#ef0026"/>
    </linearGradient>
    <linearGradient id="linear-gradient-4" x1="1096.6" y1="700.12" x2="936.22" y2="1380.84" gradientTransform="translate(-486.7 1055.33) rotate(11.5)" gradientUnits="userSpaceOnUse">
      <stop offset="0" stop-color="#fffaf6"/>
      <stop offset=".26" stop-color="#f3e2cc"/>
      <stop offset=".6" stop-color="#e7c79c"/>
      <stop offset=".85" stop-color="#dfb67f"/>
      <stop offset="1" stop-color="#dcb074"/>
    </linearGradient>
    <linearGradient id="linear-gradient-5" x1="986.93" y1="1334.73" x2="1330.88" y2="800.63" gradientTransform="translate(-486.7 1055.33) rotate(11.5)" gradientUnits="userSpaceOnUse">
      <stop offset="0" stop-color="#f6c692"/>
      <stop offset=".04" stop-color="#d8ab7a"/>
      <stop offset=".1" stop-color="#b68d5f"/>
      <stop offset=".15" stop-color="#9e764b"/>
      <stop offset=".2" stop-color="#8f6940"/>
      <stop offset=".24" stop-color="#8a653c"/>
      <stop offset=".73" stop-color="#f6c692"/>
      <stop offset=".84" stop-color="#f6c793"/>
      <stop offset=".89" stop-color="#f6ca9b"/>
      <stop offset=".92" stop-color="#f7d1a7"/>
      <stop offset=".95" stop-color="#f9dab8"/>
      <stop offset=".97" stop-color="#fbe6cf"/>
      <stop offset=".99" stop-color="#fef4ea"/>
      <stop offset="1" stop-color="#fff9f3"/>
    </linearGradient>
    <linearGradient id="linear-gradient-6" x1="-11872.89" y1="2986.75" x2="-11684.51" y2="2828.99" gradientTransform="translate(-11586.76 1732.88) rotate(162.08) scale(1 -1)" xlink:href="#linear-gradient-2"/>
    <linearGradient id="linear-gradient-7" x1="-11840.51" y1="3001.76" x2="-11693.57" y2="2864.89" gradientTransform="translate(-11586.76 1732.88) rotate(162.08) scale(1 -1)" xlink:href="#linear-gradient-5"/>
    <linearGradient id="linear-gradient-8" x1="-11844.82" y1="2997.89" x2="-11691.51" y2="2867.39" gradientTransform="translate(-11586.76 1732.88) rotate(162.08) scale(1 -1)" xlink:href="#linear-gradient"/>
    <linearGradient id="linear-gradient-9" x1="-11851.23" y1="2996.32" x2="-11738.14" y2="2854.84" gradientTransform="translate(-11586.76 1732.88) rotate(162.08) scale(1 -1)" xlink:href="#linear-gradient-3"/>
    <linearGradient id="linear-gradient-10" x1="-11718.03" y1="2817.49" x2="-11856.19" y2="3015.76" gradientTransform="translate(-11586.76 1732.88) rotate(162.08) scale(1 -1)" xlink:href="#linear-gradient-4"/>
    <linearGradient id="linear-gradient-11" x1="-11396.67" y1="-533.72" x2="-11439.19" y2="-664.34" gradientTransform="translate(-11020.42 -919.01) rotate(-169.75) scale(1 -1)" xlink:href="#linear-gradient-3"/>
    <linearGradient id="linear-gradient-12" x1="-11426.01" y1="-492.58" x2="-11353.11" y2="-681.56" gradientTransform="translate(-11020.42 -919.01) rotate(-169.75) scale(1 -1)" xlink:href="#linear-gradient"/>
    <linearGradient id="linear-gradient-13" x1="-11410.85" y1="-485.88" x2="-11350.85" y2="-684.95" gradientTransform="translate(-11020.42 -919.01) rotate(-169.75) scale(1 -1)" xlink:href="#linear-gradient-5"/>
    <linearGradient id="linear-gradient-14" x1="-11392.31" y1="-519.63" x2="-11443.41" y2="-676.58" gradientTransform="translate(-11020.42 -919.01) rotate(-169.75) scale(1 -1)" xlink:href="#linear-gradient-3"/>
    <linearGradient id="linear-gradient-15" x1="-11464.13" y1="-693.45" x2="-11352.61" y2="-467.11" gradientTransform="translate(-11020.42 -919.01) rotate(-169.75) scale(1 -1)" xlink:href="#linear-gradient-4"/>
    <linearGradient id="linear-gradient-16" x1="-11515.98" y1="2404.86" x2="-11543.38" y2="2142.69" gradientTransform="translate(-11450.84 1856.33) rotate(160.43) scale(1 -1)" xlink:href="#linear-gradient-2"/>
    <linearGradient id="linear-gradient-17" x1="-11548.48" y1="2601.89" x2="-11518.95" y2="2124.19" gradientTransform="translate(-11450.84 1856.33) rotate(160.43) scale(1 -1)" xlink:href="#linear-gradient-3"/>
    <linearGradient id="linear-gradient-18" x1="-11594.83" y1="2463.81" x2="-11362.05" y2="2187.61" gradientTransform="translate(-11450.84 1856.33) rotate(160.43) scale(1 -1)" xlink:href="#linear-gradient"/>
    <linearGradient id="linear-gradient-19" x1="-11635.25" y1="2477.58" x2="-11313.88" y2="2231.78" gradientTransform="translate(-11450.84 1856.33) rotate(160.43) scale(1 -1)" xlink:href="#linear-gradient-5"/>
    <linearGradient id="linear-gradient-20" x1="-11542.97" y1="2160.01" x2="-11505.37" y2="2477.49" gradientTransform="translate(-11450.84 1856.33) rotate(160.43) scale(1 -1)" xlink:href="#linear-gradient-4"/>
    <linearGradient id="linear-gradient-21" x1="-11231.36" y1="3960.43" x2="-11247.24" y2="3808.47" gradientTransform="translate(-11450.84 1856.33) rotate(160.43) scale(1 -1)" xlink:href="#linear-gradient-2"/>
    <linearGradient id="linear-gradient-22" x1="-11250.19" y1="4074.64" x2="-11233.08" y2="3797.75" gradientTransform="translate(-11450.84 1856.33) rotate(160.43) scale(1 -1)" xlink:href="#linear-gradient-3"/>
    <linearGradient id="linear-gradient-23" x1="-11277.06" y1="3994.6" x2="-11142.14" y2="3834.51" gradientTransform="translate(-11450.84 1856.33) rotate(160.43) scale(1 -1)" xlink:href="#linear-gradient"/>
    <linearGradient id="linear-gradient-24" x1="-11300.49" y1="4002.58" x2="-11114.22" y2="3860.11" gradientTransform="translate(-11450.84 1856.33) rotate(160.43) scale(1 -1)" xlink:href="#linear-gradient-5"/>
    <linearGradient id="linear-gradient-25" x1="-11247.01" y1="3818.51" x2="-11225.21" y2="4002.53" gradientTransform="translate(-11450.84 1856.33) rotate(160.43) scale(1 -1)" xlink:href="#linear-gradient-4"/>
    <linearGradient id="linear-gradient-26" x1="-11423.1" y1="-548.59" x2="-11465.62" y2="-679.2" gradientTransform="translate(-10072.92 4428.54) rotate(161.15) scale(1 -1)" xlink:href="#linear-gradient-3"/>
    <linearGradient id="linear-gradient-27" x1="-11452.44" y1="-507.45" x2="-11379.54" y2="-696.43" gradientTransform="translate(-10072.92 4428.54) rotate(161.15) scale(1 -1)" xlink:href="#linear-gradient"/>
    <linearGradient id="linear-gradient-28" x1="-11437.28" y1="-500.75" x2="-11377.28" y2="-699.82" gradientTransform="translate(-10072.92 4428.54) rotate(161.15) scale(1 -1)" xlink:href="#linear-gradient-5"/>
    <linearGradient id="linear-gradient-29" x1="-11418.74" y1="-534.5" x2="-11469.84" y2="-691.44" gradientTransform="translate(-10072.92 4428.54) rotate(161.15) scale(1 -1)" xlink:href="#linear-gradient-3"/>
    <linearGradient id="linear-gradient-30" x1="-11490.56" y1="-708.32" x2="-11379.04" y2="-481.97" gradientTransform="translate(-10072.92 4428.54) rotate(161.15) scale(1 -1)" xlink:href="#linear-gradient-4"/>
    <linearGradient id="linear-gradient-31" x1="-10786.63" y1="512.37" x2="-10835.96" y2="360.87" gradientTransform="translate(6251.22 10197.28) rotate(54.35) scale(1 -1)" xlink:href="#linear-gradient-3"/>
    <linearGradient id="linear-gradient-32" x1="-10820.66" y1="560.09" x2="-10736.1" y2="340.89" gradientTransform="translate(6251.22 10197.28) rotate(54.35) scale(1 -1)" xlink:href="#linear-gradient"/>
    <linearGradient id="linear-gradient-33" x1="-10803.08" y1="567.86" x2="-10733.49" y2="336.95" gradientTransform="translate(6251.22 10197.28) rotate(54.35) scale(1 -1)" xlink:href="#linear-gradient-5"/>
    <linearGradient id="linear-gradient-34" x1="-10781.58" y1="528.72" x2="-10840.85" y2="346.67" gradientTransform="translate(6251.22 10197.28) rotate(54.35) scale(1 -1)" xlink:href="#linear-gradient-3"/>
    <linearGradient id="linear-gradient-35" x1="-10864.88" y1="327.1" x2="-10735.53" y2="589.64" gradientTransform="translate(6251.22 10197.28) rotate(54.35) scale(1 -1)" xlink:href="#linear-gradient-4"/>
  </defs>
  <g id="Capa_1-2" data-name="Capa 1">
    <g>
      <g class="cls-28">
        <g class="cls-28">
          <g class="cls-56">
            <g class="cls-28">
              <path class="cls-12" d="M511.17,2031.35l35.41,27.99c.03.26.04.52.04.78l-35.41-27.99c0-.26-.02-.53-.04-.78"/>
              <path class="cls-15" d="M511.21,2032.13l35.41,27.99c0,.36,0,.73-.04,1.1l-35.41-27.99c.03-.37.05-.74.04-1.1"/>
              <path class="cls-5" d="M511.17,2033.23l35.41,27.99c-.11,1.23-.44,2.5-.96,3.77l-35.41-27.99c.53-1.26.85-2.54.96-3.77"/>
              <path class="cls-15" d="M510.2,2037l35.41,27.99c-.15.37-.32.73-.51,1.09l-35.41-27.99c.19-.36.36-.73.51-1.09"/>
              <path class="cls-12" d="M509.69,2038.09l35.41,27.99c-.14.26-.28.52-.43.78l-35.41-27.99c.15-.26.3-.52.43-.78"/>
              <path class="cls-22" d="M509.26,2038.87l35.41,27.99c-.13.22-.27.44-.41.65l-35.41-27.99c.14-.22.28-.43.41-.65"/>
              <path class="cls-7" d="M508.85,2039.53l35.41,27.99c-.13.19-.26.38-.4.57l-35.41-27.99c.14-.19.27-.38.4-.57"/>
              <path class="cls-6" d="M508.45,2040.1l35.41,27.99c-.13.17-.26.35-.39.52l-35.41-27.99c.14-.17.27-.34.39-.52"/>
              <path class="cls-45" d="M508.06,2040.62l35.41,27.99c-.13.16-.26.32-.4.48l-35.41-27.99c.14-.16.27-.32.4-.48"/>
              <path class="cls-36" d="M507.66,2041.1l35.41,27.99c-.13.15-.27.31-.41.46-.01.02-.03.03-.04.05l-35.41-27.99s.03-.03.04-.05c.14-.15.27-.3.41-.45"/>
              <path class="cls-14" d="M507.21,2041.61l35.41,27.99c-.13.14-.27.28-.4.42l-35.41-27.99c.14-.14.27-.28.4-.42"/>
              <path class="cls-48" d="M506.81,2042.03l35.41,27.99c-.14.14-.27.27-.41.4l-35.41-27.99c.14-.13.28-.26.41-.4"/>
              <path class="cls-50" d="M506.39,2042.42l35.41,27.99c-.14.13-.28.25-.42.38l-35.41-27.99c.14-.12.28-.25.42-.38"/>
              <path class="cls-33" d="M505.98,2042.8l35.41,27.99c-.14.12-.29.25-.43.36l-35.41-27.99c.15-.12.29-.24.43-.36"/>
              <path class="cls-13" d="M505.54,2043.16l35.41,27.99c-.15.12-.3.24-.45.35l-35.41-27.99c.15-.11.3-.23.45-.35"/>
              <path class="cls-49" d="M505.09,2043.51l35.41,27.99c-.16.12-.31.23-.47.33l-35.41-27.99c.16-.11.32-.22.47-.33"/>
              <path class="cls-19" d="M504.62,2043.84l35.41,27.99c-.17.11-.34.23-.51.33l-35.41-27.99c.17-.11.34-.22.51-.33"/>
              <path class="cls-34" d="M504.11,2044.18l35.41,27.99c-.18.11-.37.22-.55.32l-35.41-27.99c.19-.1.37-.21.55-.32"/>
              <path class="cls-57" d="M503.55,2044.5l35.41,27.99c-.2.11-.41.22-.62.32l-35.41-27.99c.21-.1.41-.2.62-.32"/>
              <path class="cls-31" d="M502.94,2044.81l35.41,27.99c-.24.12-.48.22-.72.32l-35.41-27.99c.24-.1.48-.2.72-.32"/>
              <path class="cls-47" d="M502.22,2045.13l35.41,27.99c-.31.12-.62.23-.93.33l-35.41-27.99c.31-.09.62-.2.93-.33"/>
              <path class="cls-42" d="M501.29,2045.46l35.41,27.99c-2.45.73-4.84.47-6.58-.9l-35.41-27.99c1.73,1.37,4.12,1.63,6.58.9"/>
            </g>
          </g>
        </g>
        <path class="cls-53" d="M177.74,2476.71l35.41,27.99c-12.44-5.27-23.97-12.08-34.41-20.33l-35.41-27.99c10.44,8.25,21.97,15.06,34.41,20.33ZM546.57,2042.84c.88,1.62,1.73,3.26,2.56,4.92.83,1.65,1.64,3.31,2.42,5,.81,1.76,1.59,3.56,2.35,5.37,1.05,2.49,2.1,4.96,3.05,7.54l35.41,27.99c-.57-1.56-1.17-3.11-1.78-4.64-.39-.99-.86-1.91-1.26-2.88-.77-1.82-1.55-3.62-2.36-5.39-.35-.75-.65-1.54-1-2.29-.44-.92-.95-1.78-1.4-2.69-.84-1.67-1.69-3.32-2.57-4.94-.4-.73-.75-1.5-1.15-2.21-.5-.88-1.05-1.7-1.56-2.56-.91-1.55-1.84-3.09-2.8-4.59-.44-.69-.83-1.42-1.28-2.09-.55-.83-1.15-1.6-1.71-2.41-1.01-1.48-2.04-2.94-3.1-4.37-.47-.64-.91-1.33-1.39-1.96-.59-.77-1.23-1.48-1.83-2.23-1.13-1.42-2.27-2.82-3.44-4.19-.52-.61-1.01-1.28-1.54-1.88-.6-.68-1.25-1.3-1.87-1.97-1.28-1.4-2.57-2.76-3.9-4.11-.59-.6-1.14-1.25-1.75-1.84-.57-.56-1.2-1.06-1.78-1.62-1.47-1.4-2.98-2.75-4.51-4.09-.7-.61-1.35-1.27-2.06-1.87-1.1-.93-2.22-1.84-3.35-2.73l-35.41-27.99c1.85,1.46,3.62,3.04,5.4,4.59,1.53,1.34,3.04,2.7,4.52,4.1,1.19,1.13,2.36,2.28,3.52,3.45,1.32,1.34,2.62,2.71,3.9,4.11,1.15,1.26,2.29,2.53,3.4,3.84,1.17,1.38,2.32,2.78,3.45,4.21,1.09,1.38,2.17,2.77,3.22,4.19,1.06,1.43,2.09,2.89,3.1,4.37,1.02,1.48,2.02,2.98,2.99,4.51.96,1.51,1.89,3.04,2.8,4.59.93,1.57,1.84,3.17,2.72,4.79ZM405.77,2433.16c-1.36.96-2.71,1.95-4.08,2.89-5.17,3.56-10.4,7-15.72,10.26-.82.51-1.67.96-2.5,1.46-4.56,2.75-9.17,5.39-13.83,7.91-2.21,1.19-4.45,2.3-6.68,3.44-4.54,2.32-9.08,4.65-13.71,6.75-5.57,2.53-11.11,4.77-16.62,6.89-1.29.5-2.58.98-3.87,1.46-5.38,1.98-10.73,3.81-16.03,5.4-4.08,1.23-8.1,2.19-12.13,3.19-2.04.51-4.11,1.15-6.13,1.6-6.02,1.34-11.99,2.45-17.88,3.3l35.41,27.99c5.89-.85,11.85-1.96,17.88-3.3,2.03-.45,4.09-1.09,6.13-1.6,4.03-1,8.05-1.97,12.13-3.19.15-.04.29-.07.43-.11,5.16-1.56,10.37-3.37,15.6-5.29,1.29-.47,2.58-.96,3.87-1.46,1.44-.55,2.87-1.04,4.31-1.62,4.09-1.64,8.19-3.39,12.31-5.26,2.19-.99,4.38-2.01,6.55-3.06,2.42-1.16,4.77-2.47,7.16-3.69,2.23-1.14,4.47-2.25,6.68-3.44.76-.41,1.55-.77,2.3-1.19,3.9-2.15,7.73-4.43,11.56-6.74.82-.49,1.65-.94,2.47-1.44.15-.09.3-.17.44-.26,4.5-2.77,8.95-5.65,13.35-8.63.66-.44,1.29-.93,1.94-1.38,1.37-.94,2.71-1.92,4.07-2.88,2.18-1.54,4.39-3.05,6.54-4.64,2.52-1.87,5.03-3.77,7.51-5.7l-35.41-27.99c-4.59,3.58-9.3,6.98-14.04,10.34ZM579.1,2288.72c.58-1.38,1.03-2.78,1.59-4.17,1.66-4.1,3.21-8.21,4.7-12.33,1.04-2.87,2.09-5.74,3.05-8.62,1.43-4.27,2.7-8.55,3.95-12.84.8-2.75,1.65-5.5,2.38-8.25,1.24-4.71,2.28-9.42,3.3-14.13.5-2.33,1.1-4.66,1.55-7,1.35-7.04,2.49-14.07,3.32-21.09,0,0,0,0,0,0l-35.41-27.99c-.83,7.02-1.97,14.06-3.32,21.1-.45,2.33-1.05,4.66-1.55,7-1.02,4.71-2.06,9.43-3.3,14.13-.73,2.76-1.58,5.5-2.38,8.26-1.25,4.29-2.52,8.57-3.95,12.83-.96,2.88-2.01,5.75-3.05,8.63-1.5,4.12-3.05,8.23-4.7,12.33-1.5,3.72-3.04,7.44-4.67,11.13-.72,1.62-1.41,3.24-2.15,4.85-2.63,5.72-5.37,11.41-8.3,17.04-3.44,6.63-7.09,13.19-10.94,19.67-3.56,6.01-7.28,11.96-11.17,17.81l35.41,27.99c.06-.1.13-.2.2-.29,3.72-5.61,7.3-11.3,10.72-17.06.09-.15.16-.3.25-.45,3.84-6.48,7.49-13.04,10.94-19.67.07-.13.15-.26.21-.39,2.85-5.5,5.52-11.06,8.08-16.65.74-1.61,1.43-3.24,2.15-4.86,1.03-2.32,2.11-4.62,3.08-6.95Z"/>
        <path class="cls-4" d="M139.06,2199.96c.16,1.57-.09,3.34-.78,5.17-2.17,5.66-7.79,9.8-12.52,9.26-3.21-.35-5.23-2.72-5.54-5.92-.16-1.57.09-3.35.81-5.19,2.16-5.66,7.79-9.74,12.52-9.26,3.22.35,5.2,2.73,5.52,5.94ZM306.12,2023.24c5.22-2.36,8.97-8.42,8.45-13.56-.5-5.09-5.08-7.37-10.3-5.01-5.22,2.36-9.03,8.45-8.52,13.53.51,5.15,5.15,7.4,10.37,5.04ZM158.38,2407.86c-3.05-3.29-8.98-2.15-13.2,2.39-2.87,3.11-4.26,7.01-3.94,10.22.16,1.57.72,2.98,1.72,4.04,3.05,3.29,8.98,2.21,13.2-2.39,2.87-3.11,4.23-7,3.92-10.21-.16-1.57-.71-2.98-1.7-4.05ZM494.05,2043.95c3.05,3.29,8.98,2.21,13.2-2.39,2.87-3.11,4.23-7,3.92-10.21-.16-1.57-.71-2.98-1.7-4.05-3.05-3.29-8.98-2.15-13.2,2.39-2.87,3.11-4.26,7.01-3.94,10.22.16,1.57.72,2.98,1.72,4.04ZM346.33,2428.64c-5.22,2.36-9.03,8.38-8.52,13.53.51,5.15,5.15,7.4,10.36,5.04,5.22-2.36,8.97-8.42,8.46-13.56-.51-5.15-5.08-7.37-10.3-5.01ZM512.99,2141.29c-1.4-14.15-4.39-27.2-8.76-39.05-12.18-33.01-35.14-56.72-64.81-69.17-22.24-9.33-48.24-12.33-76.29-8.15-17.72,2.64-36.26,8.13-55.19,16.71-19.42,8.8-37.86,20.21-54.93,33.61-26.23,20.59-49.23,45.89-67.6,73.66-24.44,36.94-40.69,78.25-45.46,118.71-1.71,14.51-1.95,28.9-.56,42.95,1.39,14.04,4.34,26.99,8.66,38.77,12.04,32.83,34.74,56.52,64.07,69.1,22.07,9.47,47.89,12.66,75.78,8.74,18.15-2.55,37.18-8.11,56.61-16.91,18.93-8.57,36.92-19.63,53.63-32.6,26.43-20.51,49.63-45.82,68.18-73.64,24.75-37.11,41.22-78.7,46.09-119.43,1.75-14.63,2-29.14.59-43.29ZM532.2,2243.36c-.32-3.21-2.3-5.59-5.52-5.94-4.72-.49-10.35,3.6-12.52,9.26-.71,1.84-.96,3.61-.81,5.19.32,3.21,2.33,5.58,5.54,5.92,4.73.55,10.35-3.6,12.52-9.26.69-1.83.94-3.6.78-5.17Z"/>
        <path class="cls-23" d="M185.4,2148.9c-24.44,36.94-40.69,78.26-45.46,118.71l-56.59,12.62c6.32-52.75,27.59-106.63,59.54-154.8l42.51,23.47ZM133.54,2194.02c-4.72-.49-10.35,3.6-12.52,9.26-.71,1.84-.96,3.61-.81,5.19.32,3.21,2.33,5.58,5.54,5.92,4.73.55,10.35-3.6,12.52-9.26.69-1.83.94-3.6.78-5.17-.32-3.21-2.3-5.59-5.52-5.94M363.12,2024.92c-17.72,2.64-36.26,8.13-55.19,16.71-19.42,8.8-37.86,20.21-54.93,33.61l-21.87-45.57c21.93-17.11,45.6-31.67,70.57-42.99,24.91-11.28,49.31-18.5,72.66-21.9l-11.25,60.14ZM295.75,2018.2c.51,5.15,5.15,7.4,10.37,5.04,5.22-2.36,8.97-8.42,8.46-13.56-.5-5.09-5.08-7.37-10.3-5.01-5.22,2.36-9.03,8.45-8.52,13.53M148.05,2349.32c12.04,32.83,34.74,56.52,64.07,69.1l-34.38,58.29c-38.35-16.25-68.01-47.06-83.81-89.85l54.12-37.54ZM142.97,2424.52c3.05,3.29,8.98,2.21,13.2-2.39,2.87-3.11,4.23-7,3.92-10.21-.16-1.57-.71-2.98-1.7-4.05-3.05-3.29-8.98-2.15-13.2,2.39-2.87,3.11-4.26,7.01-3.94,10.22.16,1.57.72,2.98,1.72,4.04M504.23,2102.24c-12.18-33.01-35.14-56.72-64.81-69.17l33.79-57.29c38.35,16.31,68.02,47.12,83.75,89.88l-52.73,36.58ZM509.47,2027.3c-3.05-3.29-8.98-2.15-13.2,2.39-2.87,3.11-4.26,7.01-3.94,10.22.16,1.57.72,2.98,1.72,4.04,3.05,3.29,8.98,2.21,13.2-2.39,2.87-3.11,4.23-7,3.92-10.21-.16-1.57-.71-2.98-1.7-4.05M419.81,2422.82c-21.99,17.13-45.66,31.76-70.56,43.05-24.97,11.31-49.38,18.46-72.67,21.84l11.32-60.55c18.15-2.55,37.18-8.11,56.61-16.91,18.93-8.57,36.92-19.63,53.63-32.6l21.68,45.17ZM337.81,2442.17c.51,5.15,5.15,7.4,10.37,5.04,5.22-2.36,8.97-8.42,8.46-13.56-.51-5.15-5.08-7.37-10.3-5.01-5.22,2.36-9.03,8.38-8.52,13.53M567.54,2172.3c-6.25,52.78-27.52,106.67-59.48,154.77l-41.74-23.05c24.75-37.11,41.22-78.7,46.09-119.43l55.14-12.29ZM518.9,2257.79c4.73.55,10.35-3.6,12.52-9.26.69-1.83.94-3.6.78-5.17-.32-3.21-2.3-5.59-5.52-5.94-4.72-.49-10.35,3.6-12.52,9.26-.71,1.84-.96,3.61-.81,5.19.32,3.21,2.33,5.58,5.54,5.92M351.21,2186.34c5.47-7.3,12.7-13.48,20.83-17.17,19.29-8.74,36.45-.4,38.34,18.64,1.89,19.03-12.22,41.54-31.51,50.28-8.14,3.69-15.91,4.3-22.3,2.37.68,1.31,1.24,2.72,1.71,4.19.56,1.85,1,3.81,1.21,5.91,1.89,19.03-12.22,41.54-31.51,50.28-19.29,8.74-36.45.4-38.34-18.64-1.36-13.72,5.61-29.2,16.8-40.07-30.78,19.13-51.23,44.1-51.23,44.1l-2.67-26.92-2.67-26.92s23.43,5.06,55.2-4.12c-12.29-.23-21.6-8.34-22.96-22.06-1.89-19.03,12.22-41.54,31.51-50.28,19.29-8.74,36.45-.39,38.34,18.64.09.96.14,1.92.16,2.89,0,1.2-.06,2.38-.14,3.56-.15,1.76-.39,3.53-.76,5.31M472.76,2159.55c-7.92-79.87-79.97-114.89-160.92-78.22-80.95,36.67-140.15,131.15-132.23,211.03,7.92,79.87,79.97,114.89,160.92,78.22,80.95-36.67,140.15-131.16,132.23-211.03"/>
        <path class="cls-18" d="M185.4,2148.9l-42.51-23.47c24-36.1,54.04-68.99,88.25-95.76l21.87,45.57c-26.23,20.59-49.23,45.89-67.6,73.66ZM139.94,2267.61l-56.59,12.62c-2.21,18.93-2.55,37.72-.74,56.05,1.82,18.32,5.7,35.2,11.31,50.59l54.12-37.54c-4.32-11.78-7.27-24.72-8.66-38.77-1.39-14.04-1.15-28.44.56-42.95ZM439.42,2033.07l33.79-57.29c-28.79-12.19-62.49-16.2-98.84-11l-11.25,60.14c28.05-4.17,54.05-1.18,76.29,8.15ZM212.12,2418.42l-34.38,58.29c28.8,12.25,62.49,16.26,98.84,11l11.32-60.55c-27.89,3.92-53.71.73-75.78-8.74ZM512.4,2184.59l55.14-12.29c2.27-18.96,2.55-37.72.74-56.05-1.82-18.32-5.64-35.23-11.31-50.59l-52.73,36.58c4.37,11.85,7.36,24.9,8.76,39.05,1.4,14.15,1.15,28.67-.59,43.29ZM398.13,2377.65l21.68,45.17c34.22-26.71,64.25-59.59,88.25-95.76l-41.74-23.05c-18.55,27.82-41.75,53.12-68.18,73.64ZM483.86,2175.93l19.18-6.07c.25-7.99.04-15.89-.74-23.69-.77-7.79-2.08-15.23-3.82-22.29l-18.68,11.08c1.59,6.28,2.77,12.89,3.46,19.84.69,6.95.87,14.02.61,21.13ZM223.21,2115.34c-6.47,7.02-12.5,14.22-18.13,21.62l13.13,9.63c5.02-6.58,10.39-13.02,16.14-19.27,5.75-6.23,11.72-12.06,17.8-17.51l-8.99-14.13c-6.83,6.13-13.49,12.67-19.94,19.65ZM399.33,2035.56c-7.24-.78-14.58-.98-21.96-.67l-5.56,20.72c6.59-.29,13.15-.14,19.59.57,6.44.73,12.57,1.96,18.41,3.62l10.17-20.19c-6.56-1.87-13.44-3.23-20.66-4.05ZM310.82,2070.98c7.05-3.19,14.02-5.84,20.92-8.01l.66-19.82c-7.71,2.47-15.55,5.46-23.45,9.03-7.9,3.58-15.61,7.63-23.15,12.08l4.39,17.53c6.7-3.99,13.57-7.62,20.62-10.81ZM469.89,2241.82c-2.91,7.61-6.27,15.05-9.91,22.3l16.25,4.65c4.1-8.14,7.81-16.48,11.1-25.02,3.27-8.55,6-17,8.25-25.33l-18.36.81c-1.99,7.43-4.41,14.99-7.33,22.59ZM341.56,2380.92c-7.05,3.19-14.03,5.82-20.9,8l-.69,19.83c7.74-2.48,15.55-5.45,23.45-9.03,7.9-3.58,15.63-7.64,23.15-12.08l-4.37-17.54c-6.72,3.98-13.6,7.63-20.64,10.82ZM465.51,2101.15l16.94-15.18c-3.64-5.67-7.74-11.02-12.35-16.01-4.63-4.95-9.6-9.35-14.9-13.24l-13.97,18.34c4.71,3.47,9.18,7.36,13.29,11.79,4.13,4.41,7.76,9.23,10.99,14.3ZM372.05,2169.17c-8.14,3.69-15.36,9.87-20.83,17.17.37-1.78.61-3.56.76-5.31.08-1.19.14-2.36.14-3.56-.02-.97-.07-1.93-.16-2.89-1.89-19.03-19.05-27.38-38.34-18.64-19.29,8.74-33.39,31.25-31.51,50.28,1.36,13.72,10.67,21.83,22.96,22.06-31.77,9.18-55.2,4.12-55.2,4.12l2.67,26.92,2.67,26.92s20.45-24.97,51.23-44.1c-11.19,10.87-18.16,26.35-16.8,40.07,1.89,19.03,19.05,27.37,38.34,18.64,19.29-8.74,33.39-31.25,31.51-50.28-.21-2.11-.65-4.06-1.21-5.91-.47-1.48-1.03-2.89-1.71-4.19,6.39,1.92,14.16,1.31,22.3-2.37,19.29-8.74,33.39-31.25,31.51-50.28-1.89-19.03-19.05-27.37-38.34-18.64ZM165.06,2208.15c-3.29,8.56-6.02,17.01-8.27,25.35l18.36-.81c1.99-7.43,4.41-14.99,7.33-22.59,2.94-7.62,6.27-15.05,9.93-22.31l-16.28-4.64c-4.08,8.13-7.81,16.48-11.08,25.01ZM429.19,2336.55c6.44-7,12.47-14.24,18.11-21.61l-13.13-9.63c-5.02,6.58-10.39,13.02-16.14,19.27-5.75,6.23-11.72,12.06-17.8,17.51l9.01,14.12c6.81-6.12,13.47-12.66,19.94-19.65ZM168.52,2275.98l-19.16,6.06c-.27,7.98-.06,15.9.72,23.7.77,7.8,2.08,15.2,3.85,22.28l18.66-11.07c-1.57-6.29-2.77-12.88-3.45-19.84-.69-6.95-.85-14.02-.61-21.13ZM211.17,2376.84c-4.73-3.46-9.18-7.36-13.32-11.78-4.11-4.43-7.76-9.23-10.99-14.3l-16.94,15.18c3.64,5.67,7.74,11.02,12.37,15.99,4.61,4.96,9.6,9.35,14.87,13.25l14-18.35ZM253.07,2416.34c7.22.79,14.55.99,21.96.67l5.53-20.7c-6.59.29-13.15.14-19.59-.57-6.44-.73-12.57-1.96-18.41-3.62l-10.17,20.19c6.55,1.85,13.43,3.23,20.68,4.04Z"/>
        <path class="cls-25" d="M560.05,2074.99c-.98-3.16-1.97-6.3-3.09-9.33l35.41,27.99c.84,2.27,1.64,4.58,2.4,6.92.25.79.45,1.63.69,2.42.65,2.1,1.25,4.23,1.83,6.39.33,1.23.73,2.4,1.04,3.64.18.73.3,1.5.48,2.24.63,2.65,1.18,5.36,1.72,8.09.26,1.3.59,2.55.82,3.87.09.5.13,1.04.21,1.54.79,4.69,1.47,9.47,1.98,14.36.03.3.09.58.12.88,0,.08.02.17.03.25.59,5.95.88,11.96,1.03,18,.02.74.11,1.47.13,2.22.02,1.28-.04,2.57-.04,3.86,0,2.27-.02,4.54-.08,6.82-.06,2.38-.16,4.76-.29,7.15-.12,2.28-.26,4.57-.44,6.86-.08,1.03-.11,2.06-.2,3.1-.24,2.68-.52,5.36-.85,8.05l-35.41-27.99c.45-3.73.75-7.44,1.04-11.14.18-2.29.32-4.57.44-6.86.13-2.39.23-4.78.29-7.15.06-2.28.08-4.55.08-6.82,0-2.03-.03-4.06-.08-6.08-.15-6.04-.44-12.05-1.03-18-.04-.38-.11-.75-.15-1.13-.51-4.9-1.18-9.68-1.98-14.37-.31-1.82-.68-3.59-1.03-5.38-.54-2.73-1.09-5.45-1.73-8.11-.47-1.98-.99-3.92-1.51-5.85-.58-2.16-1.18-4.3-1.84-6.41ZM177.74,2476.71l35.41,27.99c28.8,12.25,62.49,16.26,98.84,11l-35.41-27.99c-36.34,5.26-70.04,1.25-98.84-11ZM508.05,2327.07c-3.17,4.78-6.46,9.49-9.84,14.15-1.4,1.93-2.87,3.81-4.3,5.72-1.89,2.51-3.76,5.04-5.7,7.51-1.79,2.28-3.66,4.5-5.5,6.75-1.58,1.92-3.13,3.87-4.75,5.76-2.27,2.66-4.62,5.27-6.95,7.87-1.2,1.34-2.37,2.71-3.58,4.03-3.55,3.85-7.17,7.64-10.87,11.35-.56.56-1.13,1.09-1.69,1.64-3.14,3.12-6.32,6.2-9.55,9.21-1.29,1.2-2.62,2.35-3.92,3.53-2.54,2.3-5.09,4.59-7.68,6.82-1.56,1.34-3.15,2.63-4.73,3.94-3.03,2.52-6.06,5.05-9.17,7.48l35.41,27.99c1.38-1.08,2.75-2.16,4.12-3.26,1.71-1.37,3.36-2.81,5.05-4.22,1.58-1.31,3.17-2.61,4.73-3.94.49-.42.99-.81,1.48-1.24,2.1-1.82,4.14-3.72,6.2-5.58,1.31-1.18,2.63-2.33,3.92-3.53.25-.23.51-.45.76-.68,2.98-2.79,5.9-5.65,8.79-8.52.56-.55,1.14-1.08,1.69-1.64.04-.04.08-.08.12-.12,3.53-3.54,6.99-7.15,10.38-10.83.12-.13.24-.28.36-.41,1.22-1.32,2.38-2.69,3.58-4.03,2.11-2.35,4.25-4.69,6.31-7.09.22-.26.43-.53.65-.78,1.62-1.9,3.17-3.85,4.76-5.77,1.6-1.94,3.24-3.85,4.8-5.82.24-.3.45-.61.69-.9,1.96-2.49,3.84-5.02,5.74-7.55,1.26-1.67,2.57-3.31,3.8-5,.16-.23.31-.46.48-.68,3.38-4.66,6.67-9.37,9.84-14.16l-35.41-27.99Z"/>
      </g>
      <g>
        <path class="cls-44" d="M553.91,862.14c-1.77-1-2.56-2.15-1.75-2.55.8-.4,2.91.09,4.67,1.09,1.79,1.01,2.58,2.16,1.78,2.56-.81.4-2.92-.09-4.71-1.1ZM477.75,833.91c-1.15-1.08-3.37-2.08-4.94-2.23-.53-.05-.92,0-1.17.12-.5.25-.41.82.34,1.54,1.15,1.08,3.35,2.07,4.94,2.23.53.05.92,0,1.17-.12.5-.25.41-.82-.34-1.54ZM598.99,904.65c.18.84,1.92,2.08,3.88,2.76,1.3.45,2.37.53,2.87.28.25-.12.36-.33.3-.61-.2-.85-1.92-2.08-3.88-2.76-1.29-.45-2.36-.53-2.87-.28-.25.12-.36.33-.3.61ZM437.96,849.06c.18.84,1.92,2.08,3.88,2.76,1.3.45,2.37.53,2.87.28.25-.12.36-.33.3-.61-.2-.85-1.92-2.08-3.88-2.76-1.29-.45-2.36-.53-2.87-.28-.25.12-.36.33-.3.61ZM566.25,922.22c1.15,1.08,3.35,2.07,4.94,2.23.53.05.92,0,1.17-.12.51-.25.42-.83-.34-1.54-1.15-1.08-3.37-2.08-4.94-2.23-.53-.05-.92,0-1.17.12-.5.25-.41.82.34,1.54ZM453.04,845.95c-2.88,4.55-1.26,10.95,4.17,18.18,4.07,5.42,10.28,11.3,18.33,17.23,5.09,3.75,10.92,7.51,17.41,11.19,6.66,3.77,13.55,7.18,20.45,10.17,10.6,4.6,21.21,8.22,31.08,10.68,13.12,3.27,24.92,4.5,33.57,3.25,3.1-.45,5.8-1.21,8.01-2.31,2.21-1.1,3.81-2.48,4.85-4.1,2.89-4.51,1.33-10.84-4-18.01-4-5.39-10.14-11.24-18.1-17.15-5.19-3.85-11.15-7.71-17.82-11.48-6.49-3.67-13.2-7-19.92-9.94-10.62-4.64-21.28-8.31-31.2-10.81-13.24-3.34-25.16-4.6-33.9-3.36-3.13.45-5.85,1.21-8.08,2.32-2.23,1.11-3.84,2.51-4.88,4.14ZM485.39,892.89c-.81.4-.02,1.55,1.75,2.55,1.79,1.01,3.89,1.51,4.71,1.1.8-.4,0-1.55-1.78-2.56-1.77-1-3.87-1.49-4.67-1.09Z"/>
        <path class="cls-39" d="M605.56,925.35c.72-.36,1.39-.74,2.01-1.15,1.87-1.22,3.29-2.63,4.31-4.21h0s-8.22,18.45-8.22,18.45c-1.35,2.1-3.43,3.91-6.32,5.35-2.89,1.44-6.42,2.43-10.46,3.02l8.22-18.45c4.04-.59,7.58-1.58,10.46-3.02ZM431.19,880.25c.42.52.85,1.04,1.29,1.57.18.22.34.43.53.64.16.18.34.37.5.55.6.68,1.23,1.37,1.88,2.06.23.24.43.48.66.72.09.1.21.2.3.3,1.1,1.13,2.25,2.28,3.47,3.43.05.04.09.09.13.13.14.13.3.27.45.4,1.16,1.08,2.39,2.17,3.66,3.26.21.18.39.35.6.53.17.15.37.3.54.44,1.27,1.07,2.58,2.15,3.96,3.23.1.08.2.16.3.24.02.02.05.04.07.06,1.25.98,2.54,1.96,3.86,2.94l8.22-18.45h0c-1.33-.98-2.61-1.96-3.86-2.94-.13-.1-.24-.2-.37-.3-1.37-1.08-2.69-2.16-3.96-3.23-.38-.32-.76-.65-1.13-.97-1.27-1.09-2.49-2.18-3.66-3.27-.19-.18-.39-.35-.58-.53-1.22-1.15-2.37-2.29-3.47-3.43-.33-.34-.64-.68-.96-1.02-.65-.69-1.28-1.37-1.88-2.05-.35-.4-.7-.79-1.03-1.19-.45-.53-.88-1.05-1.29-1.57-.5-.62-1-1.24-1.46-1.85l-8.22,18.45c.29.38.58.77.89,1.16.18.23.39.46.57.69ZM502.53,928.54h0s0,0,.01,0c0,0,0,0,0,0,.96.42,1.92.83,2.88,1.23.6.25,1.2.5,1.8.75.25.1.49.21.74.31.17.07.34.14.5.21,1.08.44,2.17.88,3.25,1.31.25.1.49.19.73.28.36.14.71.28,1.07.41.54.21,1.09.42,1.63.63.73.28,1.45.54,2.18.81.33.12.66.25.98.37.15.05.29.11.44.16,1.25.45,2.49.9,3.73,1.33.13.04.25.08.38.13.37.13.73.25,1.1.37.79.27,1.58.54,2.36.8.38.13.76.24,1.15.37.51.17,1.02.33,1.52.49.42.13.84.27,1.25.4.66.21,1.31.4,1.97.6.48.15.97.3,1.45.44.2.06.4.12.59.18,1.1.32,2.2.63,3.29.93.23.07.47.14.71.2.04.01.07.02.11.03,1.43.39,2.84.76,4.25,1.12.14.03.28.07.42.11l8.22-18.45c-1.58-.4-3.17-.82-4.78-1.26-.23-.06-.47-.13-.7-.2-1.29-.36-2.59-.73-3.89-1.12-.48-.14-.96-.29-1.44-.44-1.07-.32-2.15-.66-3.23-1-.5-.16-1.01-.32-1.51-.49-1.17-.38-2.34-.77-3.52-1.17-.36-.12-.72-.24-1.09-.37-1.51-.52-3.03-1.06-4.55-1.62-.33-.12-.65-.24-.98-.37-1.27-.47-2.53-.95-3.8-1.44-.35-.14-.71-.27-1.07-.41-1.49-.58-2.99-1.18-4.49-1.8-.24-.1-.49-.2-.73-.31-1.57-.65-3.14-1.31-4.71-2l-8.22,18.45Z"/>
        <path class="cls-30" d="M612.69,918.49h0s0,0,0,0l-8.22,18.45c-.23.52-.5,1.02-.81,1.51l8.22-18.45c.31-.49.58-.99.81-1.51ZM424.19,868.91c.08.21.17.41.26.62.11.26.21.52.33.78.24.51.51,1.04.78,1.56.06.12.11.24.18.36.02.04.04.08.06.12.39.72.81,1.44,1.27,2.17.09.14.19.28.28.42.17.27.35.53.53.8.25.38.48.75.75,1.13.35.5.72,1.01,1.1,1.52l8.22-18.45c-.67-.89-1.26-1.77-1.84-2.64-.18-.27-.37-.54-.54-.81-.58-.92-1.13-1.83-1.61-2.72-.06-.12-.12-.24-.18-.36-.42-.79-.78-1.57-1.11-2.34-.09-.21-.18-.42-.26-.62-.34-.84-.64-1.68-.87-2.49-.03-.11-.05-.22-.08-.33-.2-.74-.35-1.46-.46-2.18-.02-.16-.05-.31-.07-.47-.1-.76-.14-1.51-.13-2.23,0-.15.02-.3.02-.45.03-.66.11-1.29.23-1.92.02-.1.03-.2.05-.3.17-.75.4-1.48.71-2.17l-8.22,18.45c-.08.18-.16.36-.23.55-.19.48-.34.98-.46,1.49-.01.04-.01.09-.02.13-.02.1-.03.2-.05.3-.07.36-.15.72-.19,1.09-.03.27-.03.55-.04.82,0,.15-.02.29-.02.45,0,.1-.02.2-.02.3,0,.53.03,1.07.09,1.62.01.1.04.21.05.31.02.15.05.31.07.47.05.3.08.59.14.9.09.42.2.85.32,1.28.03.11.05.22.08.33.01.05.02.09.04.14.18.6.38,1.21.62,1.83.06.17.15.35.22.52ZM551.24,924.06l-8.22,18.45c1.37.34,2.74.67,4.09.98.47.11.93.2,1.4.3.58.13,1.15.25,1.72.37.51.11,1.03.23,1.53.33.82.17,1.62.31,2.43.46.62.12,1.24.24,1.86.35.24.04.48.1.72.14.91.16,1.79.28,2.68.42.81.12,1.62.26,2.41.37.15.02.32.05.47.07.5.07.96.1,1.45.16,1.5.19,2.98.36,4.42.49.28.03.58.07.86.1.67.06,1.31.08,1.96.12.72.05,1.44.1,2.15.13,1.01.05,1.99.06,2.97.08.64,0,1.29.03,1.91.03,1.05,0,2.06-.05,3.06-.1.5-.02,1.02-.03,1.51-.06,1.47-.1,2.89-.24,4.24-.44l8.22-18.45c-1.35.19-2.77.34-4.24.44-.49.03-1.01.04-1.51.06-1,.05-2.01.09-3.06.1-.62,0-1.27-.02-1.91-.03-.98-.01-1.96-.03-2.97-.08-.7-.03-1.43-.08-2.15-.13-.93-.06-1.87-.13-2.82-.22-1.45-.13-2.93-.3-4.43-.49-.64-.08-1.26-.14-1.91-.23-.79-.11-1.61-.25-2.42-.38-1.12-.18-2.24-.35-3.39-.55-.62-.11-1.25-.23-1.87-.35-1.3-.25-2.61-.51-3.94-.79-.58-.12-1.15-.25-1.74-.38-1.81-.4-3.63-.82-5.48-1.28ZM461.61,882.29l-8.22,18.45c.17.12.34.25.5.37,1.5,1.1,3.05,2.2,4.64,3.3,0,0,.02.01.02.02,1.88,1.29,3.83,2.59,5.83,3.88.07.05.14.09.21.14,1.61,1.03,3.28,2.07,4.97,3.09.46.28.94.56,1.4.84.76.45,1.5.91,2.28,1.36,1,.58,2,1.16,3.02,1.74.73.41,1.47.83,2.2,1.23,1.12.62,2.25,1.23,3.38,1.84.22.12.44.23.66.35.18.1.37.19.55.29.54.29,1.09.58,1.63.86.87.45,1.73.9,2.6,1.34.6.3,1.2.6,1.8.9.1.05.2.1.31.15.13.06.25.13.38.19.81.4,1.62.8,2.43,1.19.81.39,1.63.78,2.44,1.17.33.16.67.31,1,.47.15.07.31.14.46.21.35.16.7.33,1.05.49.87.4,1.73.79,2.6,1.18.91.41,1.83.81,2.74,1.21l8.22-18.45h0s-.01,0-.02,0c-2.12-.92-4.24-1.88-6.36-2.87-.16-.07-.32-.15-.48-.22-2.09-.97-4.17-1.98-6.24-3.01-.1-.05-.2-.1-.3-.15-2.02-1.01-4.03-2.04-6.04-3.1-.18-.1-.37-.19-.55-.29-2.09-1.11-4.18-2.25-6.25-3.42-1.81-1.03-3.57-2.06-5.3-3.1-.47-.28-.94-.56-1.4-.84-1.77-1.07-3.5-2.15-5.19-3.24-2.01-1.29-3.96-2.58-5.83-3.88-1.78-1.23-3.51-2.46-5.17-3.69Z"/>
        <path class="cls-40" d="M568.83,875.07l14.04-.94c-6.66-4.93-14.33-9.89-22.9-14.73-8.54-4.84-17.37-9.21-26.24-13.07l-2.64,7.33c6.72,2.94,13.42,6.26,19.92,9.94,6.66,3.77,12.63,7.64,17.82,11.48ZM558.61,863.24c-.81.4-2.92-.09-4.71-1.1-1.77-1-2.56-2.15-1.75-2.55.8-.4,2.91.09,4.67,1.09,1.79,1.01,2.58,2.16,1.78,2.56ZM466,839.48c8.73-1.24,20.65.02,33.9,3.36l-6.62-10.48c-17.16-4.3-32.56-5.92-43.86-4.3l16.59,11.42ZM471.64,831.8c.25-.12.64-.17,1.17-.12,1.57.15,3.79,1.15,4.94,2.23.76.72.85,1.29.34,1.54-.25.12-.64.17-1.17.12-1.59-.16-3.79-1.15-4.94-2.23-.76-.72-.85-1.29-.34-1.54ZM590.93,910.23l20.95,9.77c3.76-5.89,1.67-14.17-5.32-23.53l-19.63-4.25c5.33,7.17,6.89,13.5,4,18.01ZM598.99,904.65c-.06-.28.05-.49.3-.61.51-.25,1.58-.17,2.87.28,1.96.68,3.68,1.91,3.88,2.76.06.28-.05.49-.3.61-.5.25-1.57.17-2.87-.28-1.96-.68-3.7-1.92-3.88-2.76ZM437.95,859.95l19.26,4.17c-5.43-7.23-7.06-13.62-4.17-18.18l-20.41-9.52c-3.76,5.89-1.69,14.16,5.32,23.52ZM437.96,849.06c-.06-.28.05-.49.3-.61.51-.25,1.58-.17,2.87.28,1.96.68,3.68,1.91,3.88,2.76.06.28-.05.49-.3.61-.5.25-1.57.17-2.87-.28-1.96-.68-3.7-1.92-3.88-2.76ZM471.72,849.62c-12.58,6.27-.26,24.1,27.51,39.81,27.77,15.71,60.48,23.37,73.06,17.09,12.58-6.27.26-24.1-27.51-39.81-27.77-15.71-60.48-23.37-73.05-17.09ZM493.11,861.72c3-1.5,10.79.33,17.41,4.07,2.79,1.58,4.92,3.25,6.23,4.77.06-.22.18-.43.33-.61.11-.12.22-.24.36-.35.12-.09.25-.17.41-.25,3-1.49,10.79.33,17.41,4.07,6.62,3.74,9.55,7.99,6.55,9.49-2.16,1.08-6.81.42-11.71-1.42,11.51,5.68,21.4,8.76,21.4,8.76l-4.24,2.11-4.24,2.11s-5.16-5.44-15.11-11.9c3.16,2.72,4.09,5.22,1.93,6.3-3,1.49-10.79-.33-17.41-4.07-6.62-3.74-9.55-7.99-6.55-9.49.33-.17.74-.28,1.18-.37.36-.07.75-.11,1.17-.13-2.76-.79-5.77-2.03-8.56-3.61-6.62-3.74-9.55-7.99-6.55-9.49ZM578.07,916.64c-8.65,1.25-20.45.02-33.57-3.25l6.75,10.67c17.13,4.3,32.55,5.93,43.85,4.31l-17.03-11.72ZM572.36,924.34c-.25.12-.64.17-1.17.12-1.59-.16-3.79-1.15-4.94-2.23-.76-.72-.85-1.29-.34-1.54.25-.12.64-.17,1.17-.12,1.57.15,3.79,1.15,4.94,2.23.76.71.85,1.29.34,1.54ZM475.55,881.35l-13.93.94c6.7,4.94,14.35,9.9,22.9,14.73,8.57,4.85,17.4,9.22,26.24,13.07l2.66-7.38c-6.9-2.99-13.79-6.4-20.45-10.17-6.49-3.67-12.32-7.44-17.41-11.19ZM485.39,892.89c.8-.4,2.91.09,4.67,1.09,1.79,1.01,2.58,2.16,1.78,2.56-.81.4-2.92-.09-4.71-1.1-1.77-1-2.56-2.15-1.75-2.55Z"/>
        <path class="cls-9" d="M533.73,846.32l-2.64,7.33c-10.62-4.64-21.28-8.31-31.2-10.81l-6.62-10.48c12.86,3.23,26.67,7.95,40.46,13.96ZM568.83,875.07c7.97,5.9,14.1,11.76,18.1,17.15l19.63,4.25c-5.25-7.02-13.26-14.64-23.69-22.35l-14.04.94ZM438.96,831.07c-2.89,1.44-4.99,3.24-6.33,5.36l20.41,9.52c1.03-1.63,2.65-3.03,4.88-4.14,2.23-1.11,4.95-1.88,8.08-2.32l-16.59-11.42c-4.06.57-7.57,1.57-10.45,3.01ZM578.07,916.64l17.03,11.72c4.04-.59,7.58-1.58,10.46-3.02,2.89-1.44,4.97-3.25,6.32-5.35l-20.95-9.77c-1.04,1.62-2.64,3-4.85,4.1-2.21,1.1-4.91,1.87-8.01,2.31ZM572.16,909.89c1.36-.35,2.62-.79,3.71-1.33,1.09-.55,1.99-1.18,2.74-1.88l6.88,3.47c-.83.79-1.86,1.5-3.08,2.11-1.23.61-2.62,1.11-4.16,1.5l-6.09-3.87M579.55,894.79l7,2.04c.66,1.38,1.15,2.73,1.44,4.02.29,1.3.38,2.51.29,3.63l-7.19-2.86c.09-1,.02-2.07-.24-3.23-.26-1.16-.71-2.36-1.3-3.59M549.78,909.64c2.28.39,4.51.7,6.67.92,2.15.21,4.17.31,6.05.33l4.92,3.99c-2.11-.02-4.37-.14-6.8-.38-2.41-.23-4.91-.58-7.46-1.02l-3.38-3.84M565.08,878.43l5.23.04c1.99,1.61,3.86,3.23,5.59,4.87,1.74,1.64,3.28,3.23,4.64,4.77l-6.34-1.09c-1.21-1.38-2.58-2.79-4.12-4.25-1.55-1.46-3.22-2.91-4.99-4.34M519.97,900.93c2.58,1.03,5.2,2.01,7.84,2.92,2.64.91,5.21,1.72,7.73,2.45l1.65,3.43c-2.82-.82-5.71-1.74-8.68-2.76-2.96-1.02-5.89-2.12-8.79-3.27l.25-2.78M541.13,860.02c2.77,1.4,5.52,2.87,8.23,4.4,2.71,1.53,5.29,3.08,7.75,4.64l-3.81.97c-2.18-1.39-4.48-2.77-6.9-4.14-2.42-1.37-4.87-2.67-7.35-3.92l2.08-1.96M486.88,887.07l3.8-.98c2.2,1.39,4.49,2.78,6.91,4.15,2.42,1.37,4.87,2.67,7.34,3.92l-2.07,1.96c-2.78-1.41-5.52-2.87-8.23-4.4-2.71-1.53-5.3-3.09-7.75-4.64M506.82,846.4c2.82.82,5.71,1.74,8.67,2.75,2.96,1.03,5.9,2.12,8.79,3.27l-.24,2.78c-2.58-1.03-5.2-2.01-7.84-2.92-2.64-.91-5.22-1.72-7.73-2.45l-1.65-3.43M463.46,868.02l6.34,1.09c1.21,1.38,2.58,2.79,4.12,4.25,1.55,1.46,3.22,2.91,4.99,4.34l-5.24-.05c-1.98-1.61-3.85-3.23-5.59-4.86-1.73-1.63-3.26-3.22-4.63-4.77M476.57,841.26c2.11.02,4.37.14,6.79.37,2.42.24,4.91.58,7.47,1.02l3.37,3.84c-2.28-.39-4.51-.7-6.66-.91-2.16-.21-4.17-.31-6.05-.33l-4.92-3.99M455.71,851.66l7.19,2.86c-.09,1-.02,2.07.24,3.23.26,1.15.71,2.36,1.3,3.59l-6.99-2.03c-.66-1.38-1.15-2.73-1.45-4.03-.29-1.3-.37-2.5-.28-3.62M461.58,843.88c1.23-.61,2.62-1.11,4.15-1.51l6.1,3.87c-1.37.35-2.62.79-3.71,1.33-1.09.55-2,1.18-2.74,1.88l-6.89-3.48c.85-.79,1.86-1.49,3.09-2.1M493.11,861.72c-3,1.49-.06,5.74,6.55,9.49,2.79,1.58,5.8,2.82,8.56,3.61-.42.02-.81.07-1.17.13-.44.09-.84.2-1.18.37-3,1.49-.06,5.74,6.55,9.49,6.62,3.74,14.41,5.57,17.41,4.07,2.16-1.08,1.23-3.58-1.93-6.3,9.95,6.46,15.11,11.9,15.11,11.9l4.24-2.11,4.24-2.11s-9.89-3.08-21.4-8.76c4.9,1.84,9.55,2.5,11.71,1.42,3-1.49.06-5.74-6.55-9.49-6.62-3.74-14.41-5.57-17.41-4.07-.15.08-.28.16-.41.25-.14.11-.26.23-.36.35-.15.19-.26.39-.33.61-1.31-1.51-3.44-3.19-6.23-4.77-6.62-3.74-14.41-5.57-17.41-4.07M437.95,859.95c5.24,7.03,13.25,14.65,23.66,22.34l13.93-.94c-8.05-5.93-14.26-11.81-18.33-17.23l-19.26-4.17ZM513.41,902.71l-2.66,7.38c13.81,6.02,27.63,10.74,40.49,13.97l-6.75-10.67c-9.87-2.46-20.49-6.08-31.08-10.68Z"/>
      </g>
      <g>
        <path class="cls-41" d="M290.02,463.12c2.22-3.79,4.68-6.97,7.3-9.57,7.31-7.24,15.95-9.9,24.68-8.15,6.54,1.31,13.14,5.1,19.27,11.3,3.87,3.92,7.56,8.8,10.92,14.62,3.45,5.98,6.33,12.53,8.6,19.4,3.5,10.56,5.6,21.88,6.27,33.09.89,14.89-.76,29.57-5.02,41.96-1.53,4.44-3.39,8.59-5.6,12.35-2.21,3.76-4.64,6.92-7.24,9.51-7.25,7.21-15.81,9.92-24.47,8.27-6.52-1.24-13.09-4.94-19.21-11.04-3.98-3.97-7.77-8.95-11.23-14.93-3.36-5.82-6.18-12.19-8.43-18.87-3.56-10.57-5.72-21.92-6.43-33.17-.95-15.01.67-29.82,4.94-42.31,1.53-4.48,3.41-8.67,5.63-12.46ZM358.2,466.8c.81-1.38.71-3.79-.2-5.38-.93-1.61-2.33-1.79-3.14-.41-.81,1.38-.71,3.79.22,5.4.92,1.59,2.32,1.77,3.13.39ZM308.47,437.9c.5-.86.7-2.21.43-3.61-.39-2.06-1.66-3.43-2.83-3.04-.38.12-.7.42-.95.84-.5.86-.69,2.22-.42,3.62.39,2.06,1.66,3.43,2.83,3.04.38-.13.7-.43.94-.85ZM371.28,546.64c-.25.42-.42.97-.5,1.62-.24,2,.55,4.19,1.75,4.88.81.47,1.6.15,2.11-.71.25-.42.43-.97.5-1.61.24-2-.55-4.19-1.75-4.88-.81-.47-1.61-.16-2.11.7ZM271.33,490.43c-.24,2,.56,4.17,1.75,4.88.81.47,1.6.15,2.11-.71.25-.42.43-.97.5-1.61.24-2-.55-4.19-1.75-4.88-.81-.47-1.61-.16-2.11.7-.25.42-.42.97-.5,1.62ZM338,603.33c-.5.86-.69,2.22-.42,3.62.4,2.05,1.66,3.43,2.83,3.04.38-.13.7-.43.94-.85.5-.86.7-2.21.43-3.61-.39-2.07-1.66-3.43-2.83-3.04-.38.12-.7.42-.95.84ZM288.27,574.42c-.81,1.38-.7,3.78.22,5.38.92,1.59,2.31,1.79,3.12.41.81-1.38.71-3.79-.2-5.38-.93-1.61-2.33-1.79-3.14-.41Z"/>
        <path class="cls-10" d="M325.15,618.67c3.54.69,7.07.82,10.54.38l-17.53,2.19c-1.73.22-3.48.29-5.24.23-1.76-.06-3.53-.27-5.3-.61h0s0,0,0,0l17.53-2.19ZM309.21,422.95c.61-.11,1.21-.23,1.82-.31l-17.53,2.19c-.26.03-.52.07-.79.11-.35.05-.69.14-1.04.2-.46.09-.93.17-1.39.27-.13.03-.26.04-.39.08-.38.09-.76.22-1.14.33-.39.11-.78.21-1.17.34-.1.03-.2.05-.31.09-.49.16-.96.36-1.45.54-.29.11-.58.21-.86.33-.05.02-.1.04-.16.06-.79.33-1.58.7-2.35,1.09-.01,0-.03.02-.04.02-.1.05-.21.12-.31.17-.64.33-1.28.68-1.9,1.06-.09.05-.18.12-.27.17-.26.16-.53.34-.79.51-.37.24-.75.47-1.12.73-.18.12-.35.26-.52.39-.29.21-.58.42-.86.64-.24.18-.49.35-.73.54-.28.22-.55.46-.82.69-.28.23-.55.46-.82.69-.14.12-.28.23-.43.36-.59.53-1.17,1.07-1.74,1.64l17.53-2.19c.71-.7,1.44-1.36,2.17-2,.27-.24.55-.47.82-.7.51-.43,1.03-.84,1.55-1.23.29-.22.57-.43.86-.64.54-.39,1.09-.76,1.64-1.11.26-.17.53-.35.79-.51.72-.44,1.44-.85,2.17-1.23.1-.06.21-.12.31-.17.84-.43,1.69-.82,2.55-1.17.29-.12.58-.22.87-.33.58-.22,1.16-.44,1.75-.63.39-.12.78-.23,1.17-.34.51-.14,1.02-.29,1.53-.4.46-.11.93-.19,1.39-.27ZM274.67,560.07l-17.53,2.19c.07.2.13.39.2.59.44,1.28.89,2.56,1.35,3.82.19.5.39,1,.58,1.5.14.37.29.75.43,1.12.15.4.3.8.46,1.19.51,1.28,1.04,2.55,1.59,3.8.08.18.16.35.24.53.13.3.27.6.41.9.36.8.71,1.6,1.08,2.38.4.85.82,1.68,1.24,2.52.15.3.29.6.44.89.08.15.15.3.22.45.69,1.33,1.39,2.65,2.12,3.94.23.41.47.83.7,1.23.56.97,1.12,1.91,1.69,2.84.35.57.72,1.1,1.08,1.66.36.56.71,1.11,1.07,1.65.2.3.4.63.61.93.46.68.95,1.29,1.42,1.95.49.68.98,1.38,1.48,2.04.15.19.29.4.43.59.86,1.11,1.74,2.17,2.62,3.2.2.23.39.44.59.67.42.48.84.97,1.26,1.44.71.77,1.42,1.52,2.14,2.24l17.53-2.19c-1.15-1.16-2.28-2.4-3.4-3.68-.2-.22-.39-.44-.59-.67-1.03-1.21-2.05-2.48-3.05-3.79-.5-.66-.99-1.35-1.48-2.04-.68-.94-1.36-1.88-2.02-2.88-.36-.54-.72-1.1-1.07-1.65-.94-1.46-1.87-2.93-2.77-4.5-1.06-1.83-2.07-3.72-3.05-5.63-.15-.29-.29-.59-.44-.88-.8-1.61-1.58-3.24-2.32-4.9-.14-.3-.28-.61-.41-.91-.8-1.82-1.56-3.66-2.29-5.52-.14-.37-.29-.74-.43-1.11-.75-1.95-1.46-3.92-2.13-5.92ZM249.23,494.61c-.18,2.02-.32,4.06-.42,6.11-.03.53-.09,1.06-.11,1.59-.01.34,0,.68-.01,1.02-.07,2.16-.09,4.34-.08,6.52,0,.47-.02.93-.02,1.4,0,.12,0,.25.01.37,0,.52.04,1.05.05,1.57.03,1.31.06,2.63.13,3.95.03.68.07,1.36.11,2.04l17.53-2.19c-.12-2-.19-4-.24-5.99-.01-.52-.04-1.05-.05-1.57,0-.59,0-1.18,0-1.77-.01-2.19,0-4.37.08-6.53.03-.88.08-1.75.12-2.62.1-2.05.24-4.08.42-6.1.08-.86.15-1.71.24-2.56.27-2.52.59-5.01.98-7.46.04-.25.06-.5.11-.75.07-.45.17-.89.25-1.34.3-1.69.61-3.38.96-5.03.16-.75.35-1.48.53-2.22.3-1.28.61-2.56.94-3.81.64-2.39,1.34-4.74,2.12-7.02l-17.53,2.19s0,0,0,0c-.78,2.28-1.47,4.63-2.12,7.02-.06.21-.13.4-.18.61-.28,1.05-.51,2.13-.76,3.2-.17.74-.37,1.47-.53,2.23-.36,1.65-.67,3.34-.96,5.03-.08.45-.18.89-.25,1.34,0,.04-.02.08-.02.13-.03.2-.05.42-.08.62-.39,2.45-.71,4.94-.98,7.46-.09.85-.16,1.7-.24,2.56Z"/>
        <path class="cls-2" d="M325.15,618.67l-17.53,2.19c-8.49-1.67-17.06-6.52-25.02-14.51l17.53-2.19c7.96,7.99,16.53,12.85,25.01,14.51ZM287.27,436.23c.78-.88,1.56-1.73,2.37-2.53l-17.53,2.19c-.05.05-.1.1-.15.15-.69.7-1.38,1.43-2.06,2.19-.05.06-.1.13-.16.19-.22.24-.42.51-.64.76-.41.48-.83.96-1.23,1.46-.13.16-.25.34-.37.5-.28.36-.55.73-.83,1.11-.27.36-.54.7-.8,1.07-.19.26-.36.55-.55.82-.3.43-.59.88-.89,1.33-.19.29-.39.56-.57.85-.41.65-.81,1.31-1.21,1.98-.28.47-.55.95-.82,1.43-.21.37-.39.77-.6,1.14-.37.68-.73,1.36-1.08,2.06-.13.26-.28.51-.4.78-.15.32-.29.65-.44.97-.43.92-.86,1.85-1.26,2.8-.14.33-.3.64-.44.98-.09.21-.16.44-.25.65-.71,1.73-1.39,3.49-2.02,5.31l17.53-2.19c.62-1.81,1.31-3.57,2.02-5.31.22-.55.45-1.09.69-1.62.41-.95.83-1.88,1.26-2.8.28-.59.56-1.18.85-1.76.35-.7.71-1.38,1.08-2.06.46-.87.92-1.74,1.41-2.57.58-.98,1.18-1.91,1.78-2.84.29-.45.59-.89.89-1.33.44-.65.89-1.27,1.35-1.89.27-.37.55-.74.82-1.1.53-.68,1.06-1.33,1.6-1.97.21-.25.42-.51.64-.76ZM266.42,517l-17.53,2.19c.06.93.12,1.87.19,2.8.04.54.1,1.07.15,1.61.05.62.11,1.24.17,1.86.03.36.06.71.1,1.06.09.88.2,1.76.31,2.63.05.43.1.86.15,1.29.02.13.03.26.05.39.18,1.4.38,2.8.59,4.19.02.11.04.22.05.33.06.36.12.72.18,1.08.15.91.29,1.81.45,2.71.07.39.15.78.22,1.17.09.51.19,1.02.29,1.53.09.46.17.92.26,1.38.16.78.33,1.55.5,2.32.09.41.17.82.27,1.24.04.16.07.32.1.48.31,1.33.63,2.66.97,3.99.03.1.06.2.08.31.08.33.18.65.26.98.23.88.46,1.77.71,2.65.11.39.23.78.35,1.17.14.48.28.96.43,1.44.13.42.25.85.38,1.27.33,1.07.68,2.14,1.03,3.2l17.53-2.19c-.49-1.48-.96-2.97-1.41-4.47-.14-.48-.28-.95-.42-1.43-.37-1.27-.72-2.55-1.06-3.83-.08-.32-.17-.64-.26-.96-.41-1.59-.79-3.19-1.16-4.79-.09-.4-.17-.81-.26-1.21-.27-1.23-.53-2.47-.77-3.72-.1-.51-.2-1.02-.29-1.54-.24-1.29-.46-2.58-.67-3.87-.06-.36-.12-.72-.18-1.08-.26-1.64-.49-3.28-.7-4.92-.05-.43-.1-.86-.15-1.29-.15-1.23-.28-2.47-.4-3.7-.06-.62-.11-1.23-.17-1.85-.13-1.47-.25-2.94-.34-4.41Z"/>
        <path class="cls-32" d="M300.52,559.29c-14.39-24.92-15.89-62.43-3.35-83.8,12.54-21.37,34.38-18.49,48.77,6.43,14.39,24.92,15.89,62.43,3.35,83.8-12.54,21.36-34.38,18.49-48.77-6.43ZM367.06,523.81l13.26.9c1.2,19.43-.92,38.59-6.48,54.76l-11.8-13.7c4.26-12.38,5.91-27.06,5.02-41.96ZM372.53,553.14c.81.47,1.6.15,2.11-.71.25-.42.43-.97.5-1.61.24-2-.55-4.19-1.75-4.88-.81-.47-1.61-.16-2.11.7-.25.42-.42.97-.5,1.62-.24,2,.55,4.19,1.75,4.88ZM352.19,471.31c-3.37-5.83-7.05-10.7-10.92-14.62l5.34-19.14c5.1,5.12,9.97,11.54,14.4,19.21,4.43,7.67,8.11,16.06,11.07,24.88l-11.28,9.08c-2.28-6.87-5.15-13.42-8.6-19.4ZM357.99,461.43c-.93-1.61-2.33-1.79-3.14-.41-.81,1.38-.71,3.79.22,5.4.92,1.59,2.32,1.77,3.13.39.81-1.38.71-3.79-.2-5.38ZM297.32,453.54l-7.68-19.85c9.47-9.38,20.65-12.87,31.96-10.66l.41,22.36c-8.73-1.75-17.37.91-24.68,8.15ZM307.53,438.76c.38-.13.7-.43.94-.85.5-.86.7-2.21.43-3.61-.39-2.06-1.66-3.43-2.83-3.04-.38.12-.7.42-.95.84-.5.86-.69,2.22-.42,3.62.39,2.06,1.66,3.43,2.83,3.04ZM349.21,587.62l7.88,20.37c-9.45,9.39-20.63,12.88-31.94,10.68l-.42-22.78c8.67,1.65,17.23-1.05,24.48-8.27ZM338.95,602.49c-.38.12-.7.42-.95.84-.5.86-.69,2.22-.42,3.62.4,2.05,1.66,3.43,2.83,3.04.38-.13.7-.43.94-.85.5-.86.7-2.21.43-3.61-.39-2.07-1.66-3.43-2.83-3.04ZM272.89,462.22l11.5,13.35c-4.27,12.49-5.89,27.3-4.94,42.31l-13.02-.88c-1.19-19.44.93-38.61,6.47-54.78ZM273.08,495.31c.81.47,1.6.15,2.11-.71.25-.42.43-.97.5-1.61.24-2-.55-4.19-1.75-4.88-.81-.47-1.61-.16-2.11.7-.25.42-.42.97-.5,1.62-.24,2,.56,4.17,1.75,4.88ZM294.29,569.92c3.45,5.98,7.24,10.96,11.23,14.93l-5.39,19.31c-5.11-5.14-9.97-11.54-14.4-19.21-4.43-7.67-8.13-16.08-11.07-24.88l11.2-9.02c2.25,6.68,5.06,13.04,8.43,18.87ZM288.49,579.8c.92,1.59,2.31,1.79,3.12.41.81-1.38.71-3.79-.2-5.38-.93-1.61-2.33-1.79-3.14-.41-.81,1.38-.7,3.78.22,5.38Z"/>
        <path class="cls-1" d="M372.07,481.63c4.59,13.73,7.36,28.47,8.25,43.07l-13.26-.9c-.67-11.21-2.77-22.53-6.27-33.09l11.28-9.08ZM349.21,587.62l7.88,20.37c3.4-3.37,6.58-7.49,9.46-12.39,2.88-4.9,5.3-10.32,7.29-16.14l-11.8-13.7c-1.53,4.44-3.39,8.59-5.6,12.35-2.21,3.76-4.64,6.92-7.23,9.51ZM321.59,423.04l.41,22.36c6.54,1.31,13.14,5.1,19.27,11.3l5.34-19.14c-7.96-7.99-16.52-12.86-25.02-14.51ZM305.52,584.85l-5.39,19.31c7.96,7.99,16.53,12.85,25.01,14.51l-.42-22.78c-6.52-1.24-13.09-4.94-19.21-11.04ZM280.19,446.1c-2.88,4.9-5.3,10.32-7.3,16.12l11.5,13.35c1.53-4.48,3.41-8.67,5.63-12.46,2.22-3.79,4.68-6.97,7.3-9.57l-7.68-19.85c-3.39,3.39-6.57,7.51-9.44,12.41ZM347.69,573.99c1.21-1.51,2.38-3.18,3.47-5.04,1.09-1.86,2.07-3.85,2.96-5.92l3.76,5.15c-1,2.32-2.11,4.55-3.33,6.63-1.22,2.09-2.52,3.97-3.89,5.67l-2.97-6.49M360.2,533.61l4.5,1.58c-.11,3.05-.34,6.09-.7,9.11-.36,3.03-.84,5.93-1.41,8.71l-4.27-3.51c.52-2.48.95-5.06,1.27-7.75.32-2.7.51-5.41.61-8.14M330.51,584.18c1.59-.14,3.17-.46,4.74-.98,1.57-.53,3.08-1.25,4.53-2.12l2.01,7.36c-1.62.97-3.31,1.76-5.08,2.35-1.76.59-3.53.95-5.31,1.12l-.89-7.73M356.37,500.71l4.03-2.42c.81,2.97,1.52,6.02,2.13,9.17.61,3.16,1.08,6.29,1.44,9.4l-4.41.4c-.32-2.77-.74-5.57-1.27-8.38-.54-2.8-1.18-5.53-1.9-8.17M311.38,577.34c1.53,1.26,3.11,2.39,4.74,3.34,1.63.94,3.26,1.68,4.87,2.25l-.27,7.57c-1.81-.64-3.63-1.48-5.46-2.54-1.83-1.06-3.6-2.32-5.32-3.73l1.44-6.89M346.14,467.36c1.51,2.08,2.98,4.33,4.38,6.76,1.4,2.43,2.7,4.96,3.9,7.58l-3.39,4.22c-1.06-2.33-2.22-4.6-3.47-6.77-1.25-2.17-2.56-4.17-3.92-6.02l2.49-5.77M292.04,559.51l3.38-4.22c1.07,2.33,2.22,4.6,3.47,6.77,1.25,2.17,2.57,4.16,3.91,6.01l-2.48,5.78c-1.51-2.09-2.98-4.33-4.38-6.76-1.4-2.43-2.7-4.97-3.9-7.58M325.75,450.71c1.81.64,3.63,1.48,5.46,2.53,1.83,1.07,3.6,2.32,5.32,3.73l-1.44,6.9c-1.53-1.26-3.11-2.39-4.74-3.34-1.63-.94-3.26-1.68-4.87-2.25l.27-7.57M282.51,524.36l4.41-.4c.32,2.77.74,5.57,1.27,8.38.54,2.8,1.18,5.53,1.9,8.17l-4.03,2.42c-.81-2.96-1.52-6.02-2.13-9.17-.6-3.15-1.07-6.29-1.43-9.4M304.69,452.78c1.62-.97,3.31-1.76,5.08-2.36,1.76-.58,3.54-.95,5.32-1.11l.88,7.73c-1.58.15-3.17.46-4.74.99-1.57.52-3.08,1.25-4.53,2.12l-2.01-7.36M283.88,488.2l4.27,3.51c-.52,2.47-.95,5.06-1.27,7.75-.32,2.69-.51,5.41-.61,8.13l-4.49-1.58c.11-3.06.34-6.09.69-9.12.36-3.02.84-5.92,1.42-8.7M291.92,466.4c1.22-2.08,2.53-3.97,3.88-5.67l2.97,6.5c-1.22,1.51-2.38,3.18-3.47,5.04-1.09,1.86-2.08,3.84-2.96,5.92l-3.76-5.16c1.01-2.32,2.11-4.54,3.34-6.62M308.26,494.69c-2.99,5.09-2.63,14.03.8,19.97,1.45,2.5,3.22,4.07,5,4.66-.34.25-.66.55-.97.89-.38.43-.75.91-1.08,1.47-2.99,5.09-2.63,14.03.8,19.97,3.43,5.94,8.63,6.62,11.62,1.53,2.15-3.67,2.56-9.33,1.34-14.43,4.78,10.95,6.32,21.73,6.32,21.73l4.23-7.2,4.23-7.2s-6.26-2.74-12.6-11.03c2.96,2.13,6.26,1.48,8.41-2.19,2.99-5.09,2.63-14.03-.8-19.97-3.43-5.94-8.63-6.62-11.62-1.53-.15.26-.29.52-.42.79-.16.34-.3.69-.44,1.04-.2.53-.38,1.08-.53,1.65-.33-3.06-1.23-6.11-2.67-8.62-3.43-5.94-8.63-6.62-11.62-1.53M266.42,517c.9,14.58,3.66,29.34,8.25,43.07l11.2-9.02c-3.56-10.57-5.72-21.92-6.43-33.17l-13.02-.88Z"/>
      </g>
      <g>
        <path class="cls-52" d="M162.68,16.32c.49,3.12-2.01,5.64-5.56,5.61-1.19,0-2.34-.28-3.36-.76-2.09-.97-3.67-2.78-4.01-4.85-.49-3.12,2-5.6,5.56-5.61,1.19,0,2.34.28,3.36.76,2.09.97,3.67,2.78,4.01,4.85ZM296.89,75.77c-2.09-.97-4.55-1.04-6.46-.02-2.86,1.56-3.37,5-1.16,7.65.74.89,1.67,1.59,2.7,2.06,2.09.97,4.55,1.04,6.46.02,2.86-1.56,3.36-4.97,1.16-7.65-.74-.89-1.67-1.59-2.7-2.06ZM40.98,75.31c-3.36-1.56-7.18-.65-8.54,2.05-1.35,2.66.27,6.1,3.62,7.66,3.32,1.54,7.14.63,8.48-2.03,1.36-2.69-.25-6.13-3.57-7.68ZM317.38,203.88c-3.32-1.54-7.14-.63-8.5,2.06-1.35,2.66.27,6.1,3.58,7.64,3.36,1.56,7.18.65,8.52-2.01,1.36-2.69-.25-6.13-3.61-7.7ZM61.47,203.44c-2.09-.97-4.55-1.04-6.46-.02-2.86,1.56-3.37,5-1.16,7.65.74.89,1.68,1.59,2.71,2.07,2.1.98,4.57,1.05,6.45.02,2.86-1.56,3.36-4.97,1.16-7.66-.74-.89-1.67-1.59-2.7-2.06ZM225.54,48.09c-9.23-4.29-18.64-7.64-28.07-10.07-26.27-6.78-52.72-6.51-76,.02-17.44,4.89-33.1,13.3-45.54,24.87-7.87,7.32-14.45,15.9-19.4,25.66-5.07,10.02-8.06,20.58-9.12,31.31-1.63,16.49,1.29,33.4,8.16,49.48,9.13,21.37,25.24,41.26,46.93,56.7,7.78,5.54,16.28,10.51,25.43,14.77,9.14,4.25,18.47,7.58,27.81,10.01,26.09,6.79,52.37,6.61,75.54.25,17.42-4.78,33.08-13.05,45.58-24.47,8.14-7.44,14.94-16.22,20.02-26.24,4.94-9.76,7.9-20.03,9.04-30.48,1.79-16.53-1-33.51-7.77-49.66-9.04-21.57-25.19-41.67-47.02-57.25-7.83-5.59-16.38-10.6-25.6-14.88ZM199.68,267.73c-1.03-.48-2.18-.75-3.36-.76-3.56,0-6.05,2.49-5.56,5.61.34,2.07,1.92,3.88,4.01,4.85,1.03.48,2.18.75,3.36.76,3.54.02,6.05-2.49,5.56-5.61-.34-2.07-1.92-3.88-4.01-4.85Z"/>
        <path class="cls-38" d="M197.47,38.02l6.17-31.51c-34.04-8.83-68.32-8.5-98.48-.12l16.31,31.65c23.27-6.53,49.72-6.8,76-.02ZM162.68,16.32c.49,3.12-2.01,5.64-5.56,5.61-1.19,0-2.34-.28-3.36-.76-2.09-.97-3.67-2.78-4.01-4.85-.49-3.12,2-5.6,5.56-5.61,1.19,0,2.34.28,3.36.76,2.09.97,3.67,2.78,4.01,4.85ZM298.15,120.23l36.05-7.3c-11.83-27.91-32.78-53.93-61.07-74.1l-21.99,24.14c21.83,15.59,37.97,35.69,47.02,57.25ZM290.43,75.75c1.91-1.02,4.37-.95,6.46.02,1.03.48,1.97,1.17,2.7,2.06,2.2,2.68,1.7,6.1-1.16,7.65-1.91,1.02-4.37.95-6.46-.02-1.03-.48-1.97-1.17-2.7-2.06-2.21-2.65-1.7-6.1,1.16-7.65ZM56.54,88.57c4.95-9.76,11.53-18.34,19.4-25.66l-30.01-24.45c-10.42,9.56-19.1,20.85-25.62,33.73-6.51,12.85-10.39,26.36-11.79,40.16l38.91,7.53c1.06-10.73,4.04-21.29,9.12-31.31ZM44.55,82.99c-1.35,2.66-5.17,3.57-8.48,2.03-3.36-1.56-4.97-5-3.62-7.66,1.36-2.69,5.18-3.61,8.54-2.05,3.32,1.54,4.93,4.99,3.57,7.68ZM296.89,200.37c-5.07,10.02-11.88,18.8-20.02,26.24l30.24,24.64c10.44-9.6,19.11-20.88,25.62-33.73,6.52-12.88,10.4-26.4,11.79-40.16l-38.61-7.47c-1.13,10.45-4.09,20.71-9.04,30.48ZM308.88,205.95c1.36-2.69,5.18-3.61,8.5-2.06,3.36,1.56,4.97,5,3.61,7.7-1.35,2.66-5.17,3.57-8.52,2.01-3.32-1.54-4.93-4.99-3.58-7.64ZM82.42,100.59c-21.15,41.76,3.93,95.25,56.01,119.48,52.08,24.23,111.44,10.01,132.58-31.75s-3.93-95.25-56.01-119.48c-52.08-24.23-111.44-10.01-132.59,31.75ZM155.75,250.83l-6.34,32.32c34.04,8.83,68.3,8.53,98.51.17l-16.62-32.25c-23.17,6.36-49.45,6.54-75.54-.25ZM190.76,272.58c-.49-3.12,2-5.6,5.56-5.61,1.19,0,2.34.28,3.36.76,2.09.97,3.67,2.78,4.01,4.85.49,3.12-2.01,5.63-5.56,5.61-1.19,0-2.34-.28-3.36-.76-2.09-.97-3.67-2.78-4.01-4.85ZM18.87,176.79c11.79,27.89,32.75,53.88,61.05,74.05l22.59-24.77c-21.69-15.44-37.8-35.34-46.93-56.7l-36.71,7.43ZM53.85,211.07c-2.21-2.65-1.7-6.1,1.16-7.65,1.91-1.02,4.37-.95,6.46.02,1.03.48,1.97,1.17,2.7,2.06,2.2,2.68,1.7,6.1-1.16,7.66-1.88,1.04-4.35.96-6.45-.02-1.03-.48-1.97-1.18-2.71-2.07Z"/>
        <path class="cls-58" d="M11.42,95.98c-.09.35-.2.69-.29,1.04-.78,3.24-1.38,6.5-1.88,9.78-.28,1.85-.56,3.69-.75,5.55l-7.89,20.34c.15-1.49.33-2.97.54-4.46.05-.36.15-.72.21-1.09.5-3.28,1.1-6.55,1.88-9.79.02-.07.02-.13.04-.2.07-.28.17-.55.24-.83.71-2.8,1.54-5.59,2.47-8.35.14-.42.23-.86.38-1.28.44-1.25.89-2.49,1.37-3.73l7.89-20.34c-.64,1.66-1.19,3.34-1.75,5.02-.93,2.76-1.76,5.54-2.47,8.34ZM307.12,251.25l-7.89,20.34c10.44-9.6,19.11-20.88,25.62-33.73,1.75-3.45,3.3-6.94,4.67-10.47l7.89-20.34c-1.37,3.53-2.93,7.02-4.67,10.47-6.51,12.85-15.18,24.13-25.62,33.73ZM52.08,254.88c.37.34.77.67,1.14,1.01,2.09,1.92,4.19,3.82,6.39,5.66.48.4.98.78,1.46,1.18.58.48,1.17.94,1.76,1.42,2.99,2.4,6.04,4.76,9.21,7.03l7.89-20.34h0s0,0,0,0c-3.17-2.26-6.21-4.61-9.19-7.01-.59-.47-1.19-.95-1.77-1.43-2.7-2.22-5.31-4.51-7.85-6.84-.37-.34-.76-.66-1.13-1-2.84-2.65-5.57-5.38-8.2-8.16-.48-.5-.93-1.02-1.4-1.53-2.17-2.34-4.26-4.72-6.27-7.14-.42-.5-.85-.99-1.26-1.49-2.22-2.73-4.34-5.51-6.36-8.33-.45-.63-.89-1.26-1.33-1.9-1.82-2.61-3.57-5.25-5.23-7.93-.22-.35-.45-.69-.66-1.04-1.78-2.93-3.43-5.91-4.99-8.9-.37-.7-.72-1.41-1.08-2.11-1.54-3.05-3-6.12-4.32-9.22l-7.89,20.34c1.31,3.1,2.78,6.17,4.32,9.22.35.71.71,1.41,1.08,2.11,1.57,3,3.22,5.97,5,8.91.21.35.44.69.66,1.04,1.65,2.68,3.4,5.32,5.23,7.93.44.63.87,1.27,1.33,1.89,2.02,2.82,4.14,5.6,6.36,8.33.41.51.84,1,1.26,1.5,2.01,2.42,4.1,4.79,6.26,7.13.47.51.93,1.03,1.41,1.53.27.29.53.58.8.87,2.38,2.48,4.85,4.91,7.4,7.29ZM149.41,283.16l-7.89,20.34c2.32.6,4.65,1.16,6.97,1.68.87.19,1.73.3,2.6.48,2.79.58,5.58,1.09,8.36,1.55,1.19.2,2.38.48,3.56.66.9.13,1.8.22,2.7.34.89.12,1.78.23,2.68.34,3.71.45,7.41.83,11.09,1.07.04,0,.07,0,.11,0,.29.02.57.02.86.03,3.58.21,7.14.32,10.68.34,1.24,0,2.48-.04,3.72-.05,1.68-.03,3.38,0,5.05-.07.89-.04,1.77-.13,2.65-.18,1.46-.08,2.9-.19,4.35-.3,2.41-.19,4.8-.43,7.18-.71,1.4-.17,2.81-.33,4.2-.53,2.52-.36,5.02-.79,7.5-1.26,1.18-.22,2.37-.41,3.53-.65,3.61-.75,7.19-1.59,10.7-2.56l7.89-20.34c-3.51.97-7.09,1.81-10.7,2.56-1.16.24-2.35.43-3.52.65-2.49.46-4.98.9-7.51,1.26-1.39.2-2.79.36-4.19.53-2.38.28-4.77.52-7.18.71-1.45.11-2.89.22-4.35.3-2.56.14-5.13.22-7.72.26-1.24.02-2.47.06-3.71.05-3.55-.02-7.12-.12-10.71-.34-.28-.02-.55-.01-.83-.03-3.72-.24-7.45-.62-11.2-1.07-.89-.11-1.79-.22-2.68-.34-2.08-.28-4.17-.66-6.25-1-2.79-.46-5.58-.97-8.38-1.55-3.19-.67-6.38-1.33-9.56-2.16Z"/>
        <path class="cls-43" d="M7.43,187.79c-.6-1.73-1.16-3.47-1.69-5.21-.24-.78-.47-1.56-.7-2.34-.56-1.97-1.07-3.94-1.54-5.92-.11-.47-.24-.94-.35-1.41-.03-.12-.06-.23-.09-.35-.17-.75-.27-1.5-.42-2.24-.41-1.99-.8-3.99-1.12-5.98-.17-1.09-.28-2.19-.43-3.28-.23-1.76-.45-3.51-.61-5.27-.03-.35-.09-.7-.12-1.06-.1-1.28-.13-2.55-.2-3.83-.04-.86-.11-1.72-.13-2.59-.06-2.29-.06-4.59,0-6.88,0-.25,0-.5,0-.74,0-.02,0-.04,0-.06.1-2.66.28-5.31.55-7.95l7.89-20.34c-.28,2.66-.46,5.33-.55,8.01,0,.24,0,.48,0,.72-.07,2.3-.07,4.6,0,6.91.02.85.09,1.71.13,2.57.08,1.63.17,3.27.32,4.9.16,1.76.38,3.51.61,5.27.14,1.09.26,2.19.43,3.28.31,1.99.71,3.97,1.11,5.95.18.88.32,1.76.51,2.63.1.46.23.92.34,1.38.47,1.99.98,3.97,1.55,5.95.22.78.46,1.55.69,2.33.53,1.74,1.09,3.48,1.69,5.21.25.73.49,1.46.76,2.19.87,2.4,1.79,4.78,2.79,7.15,0,0,0,0,0,0h0l-7.89,20.34c-1.01-2.37-1.92-4.76-2.8-7.16-.26-.73-.51-1.45-.76-2.18ZM247.92,283.33l-7.89,20.34c22.64-6.29,42.99-17.14,59.2-32.08l7.89-20.34c-16.21,14.95-36.56,25.79-59.2,32.08ZM79.92,250.83l-7.89,20.34c.29.21.59.42.88.63.33.24.7.44,1.04.68,3.15,2.19,6.4,4.3,9.72,6.35.5.31.96.65,1.46.95.35.21.72.39,1.07.6,3.51,2.09,7.1,4.11,10.79,6.02.12.06.24.14.36.2,2.58,1.33,5.2,2.61,7.87,3.86,1.55.72,3.1,1.42,4.65,2.1.53.23,1.07.41,1.6.64,3.15,1.35,6.31,2.61,9.47,3.79.47.18.94.39,1.41.56.13.05.26.08.38.13,3.71,1.34,7.44,2.56,11.17,3.67.33.1.66.23.99.33,2.2.65,4.41,1.26,6.62,1.82l7.89-20.34h0,0s-.02,0-.04,0c-2.53-.65-5.05-1.38-7.57-2.14-3.73-1.12-7.46-2.33-11.17-3.67-.6-.22-1.19-.47-1.79-.69-3.17-1.18-6.33-2.45-9.47-3.79-2.09-.89-4.18-1.78-6.26-2.74-2.8-1.3-5.54-2.66-8.24-4.06-3.69-1.91-7.27-3.93-10.78-6.02-.86-.51-1.69-1.04-2.54-1.56-3.32-2.04-6.56-4.14-9.7-6.33-.64-.44-1.3-.86-1.93-1.31Z"/>
        <path class="cls-37" d="M273.13,38.84l-21.99,24.14c-7.83-5.59-16.38-10.6-25.6-14.88-9.23-4.29-18.64-7.64-28.07-10.07l6.17-31.51c12.21,3.19,24.39,7.51,36.34,13.06,11.95,5.56,23.02,12.06,33.15,19.26ZM105.16,6.39c-22.68,6.28-43.03,17.12-59.24,32.07l30.01,24.45c12.44-11.57,28.1-19.98,45.54-24.87l-16.31-31.65ZM334.2,112.93l-36.05,7.3c6.77,16.15,9.56,33.13,7.77,49.66l38.61,7.47c2.22-21.45-1.48-43.49-10.33-64.43ZM47.42,119.87l-38.91-7.53c-2.22,21.45,1.48,43.49,10.37,64.45l36.71-7.43c-6.87-16.08-9.79-32.99-8.16-49.48ZM276.87,226.61c-12.5,11.43-28.16,19.69-45.58,24.47l16.62,32.25c22.64-6.29,42.99-17.14,59.2-32.08l-30.24-24.64ZM122.71,218.53c4.13,2.5,8.45,4.84,12.98,6.95,4.53,2.11,9.13,3.91,13.73,5.48l-3.31,10.52c-5.17-1.75-10.32-3.8-15.4-6.16-5.08-2.36-9.93-4.97-14.58-7.78l6.57-9M205.86,237.29l3.54,11.29c-5.14.59-10.43.91-15.86.89-5.45,0-10.84-.34-16.17-.95l-.08-11.29c4.76.55,9.58.86,14.42.87,4.85,0,9.56-.29,14.15-.83M82.59,179.95c2.4,3.79,5.08,7.52,8.07,11.17,3.01,3.64,6.24,7.08,9.63,10.32l-9.3,6.93c-3.8-3.64-7.4-7.5-10.78-11.59-3.37-4.08-6.38-8.26-9.08-12.49l11.45-4.32M254.49,218.77l9.46,9.03c-3.75,2.79-7.78,5.38-12.1,7.73-4.34,2.35-8.82,4.38-13.43,6.12l-6.68-10.53c4.11-1.55,8.11-3.35,11.98-5.44,3.85-2.09,7.44-4.42,10.78-6.9M67.69,131.88c.02,4.05.34,8.19,1.01,12.38.68,4.2,1.68,8.33,2.95,12.38l-12.77,1.49c-1.41-4.54-2.54-9.18-3.3-13.9-.75-4.7-1.12-9.34-1.15-13.89l13.25,1.54M295.11,184.68c-1.35,4.23-3.03,8.4-5.09,12.48-2.06,4.08-4.44,7.91-7.08,11.56l-11.52-6.98c2.37-3.22,4.5-6.65,6.34-10.28,1.84-3.64,3.33-7.36,4.51-11.15l12.84,4.37M70.5,80.19l11.52,6.96c-2.36,3.24-4.5,6.66-6.35,10.3-1.84,3.63-3.31,7.36-4.51,11.14l-12.84-4.36c1.35-4.24,3.03-8.41,5.09-12.48,2.06-4.08,4.45-7.93,7.08-11.56M294.55,130.78c1.43,4.55,2.54,9.18,3.3,13.89.74,4.72,1.11,9.35,1.15,13.89l-13.26-1.52c-.02-4.05-.34-8.19-1.01-12.38-.68-4.2-1.68-8.33-2.95-12.38l12.77-1.49M115.03,47.27l6.68,10.53c-4.11,1.55-8.11,3.35-11.98,5.44-3.85,2.09-7.44,4.42-10.78,6.9l-9.45-9.04c3.75-2.78,7.77-5.37,12.1-7.73,4.33-2.34,8.83-4.36,13.43-6.11M262.44,80.54c3.8,3.64,7.4,7.5,10.79,11.58,3.36,4.09,6.38,8.26,9.07,12.51l-11.44,4.31c-2.4-3.78-5.08-7.52-8.08-11.15-3-3.65-6.24-7.08-9.63-10.32l9.3-6.93M176.08,40.37l.08,11.29c-4.76-.55-9.58-.86-14.42-.87-4.84-.01-9.56.29-14.14.82l-3.55-11.28c5.15-.6,10.44-.91,15.87-.91,5.44.02,10.84.35,16.17.96M222.73,53.6c5.08,2.36,9.95,4.97,14.59,7.77l-6.58,9.01c-4.12-2.51-8.45-4.84-12.98-6.95-4.53-2.11-9.12-3.92-13.73-5.48l3.31-10.53c5.18,1.77,10.31,3.81,15.39,6.18M198.72,101.02c-12.41-5.77-26.55-2.39-31.59,7.56-2.13,4.2-2.27,8.91-.81,13.37-.87-.74-1.8-1.43-2.78-2.08-1.22-.79-2.5-1.54-3.87-2.18-12.41-5.77-26.55-2.39-31.59,7.56-5.04,9.95.94,22.7,13.34,28.47,8.94,4.16,18.76,3.54,25.45-.84-11.4,14.63-26.94,21.39-26.94,21.39l17.55,8.17,17.55,8.17s-4.05-15.87.87-33.52c.55,7.74,6.12,15.52,15.06,19.68,12.41,5.77,26.55,2.39,31.59-7.56,5.04-9.95-.94-22.7-13.34-28.47-.63-.29-1.25-.55-1.88-.8-.78-.29-1.54-.53-2.31-.77-1.13-.33-2.28-.61-3.42-.8,4.56-1.66,8.33-4.68,10.46-8.88,5.04-9.95-.93-22.7-13.34-28.47M102.51,226.06l-22.59,24.77c10.15,7.26,21.24,13.72,33.19,19.28,11.95,5.56,24.11,9.91,36.3,13.04l6.34-32.32c-9.34-2.43-18.67-5.75-27.81-10.01-9.16-4.26-17.65-9.23-25.43-14.77Z"/>
      </g>
      <g>
        <path class="cls-46" d="M433.68,1682.3c.29,1.81-1.17,3.27-3.22,3.25-.69,0-1.35-.16-1.95-.44-1.21-.56-2.13-1.61-2.33-2.81-.29-1.81,1.16-3.25,3.22-3.25.69,0,1.35.16,1.95.44,1.21.56,2.13,1.61,2.33,2.81ZM511.47,1716.76c-1.21-.56-2.64-.6-3.75-.01-1.66.9-1.95,2.9-.67,4.44.43.52.97.92,1.57,1.2,1.21.56,2.64.6,3.75.01,1.66-.9,1.95-2.88.67-4.44-.43-.52-.97-.92-1.57-1.2ZM363.14,1716.5c-1.95-.9-4.16-.37-4.95,1.19-.78,1.54.15,3.54,2.1,4.44,1.92.89,4.14.36,4.92-1.18.79-1.56-.15-3.56-2.07-4.45ZM523.34,1791.02c-1.92-.89-4.14-.36-4.93,1.2-.78,1.54.15,3.54,2.08,4.43,1.95.9,4.16.37,4.94-1.17.79-1.56-.15-3.56-2.09-4.46ZM375.01,1790.76c-1.21-.56-2.64-.6-3.75-.01-1.66.9-1.95,2.9-.67,4.44.43.52.97.92,1.57,1.2,1.22.57,2.65.61,3.74,0,1.66-.9,1.95-2.88.67-4.44-.43-.52-.97-.92-1.57-1.2ZM470.11,1700.72c-5.35-2.49-10.8-4.43-16.27-5.84-15.23-3.93-30.56-3.77-44.05,0-10.11,2.83-19.18,7.71-26.4,14.41-4.56,4.24-8.38,9.21-11.24,14.87-2.94,5.81-4.67,11.93-5.29,18.15-.94,9.56.75,19.36,4.73,28.68,5.29,12.39,14.63,23.92,27.2,32.87,4.51,3.21,9.44,6.09,14.74,8.56,5.3,2.47,10.7,4.39,16.12,5.8,15.12,3.93,30.35,3.83,43.78.14,10.1-2.77,19.17-7.56,26.42-14.19,4.72-4.31,8.66-9.4,11.6-15.21,2.87-5.66,4.58-11.61,5.24-17.67,1.04-9.58-.58-19.42-4.51-28.78-5.24-12.5-14.6-24.15-27.25-33.19-4.54-3.24-9.49-6.14-14.84-8.63ZM455.12,1828.02c-.6-.28-1.26-.44-1.95-.44-2.06,0-3.51,1.44-3.22,3.25.2,1.2,1.12,2.25,2.33,2.81.6.28,1.26.44,1.95.44,2.05.01,3.51-1.44,3.22-3.25-.2-1.2-1.12-2.25-2.33-2.81Z"/>
        <path class="cls-26" d="M453.84,1694.88l3.58-18.26c-19.73-5.12-39.6-4.93-57.08-.07l9.46,18.34c13.49-3.78,28.82-3.94,44.05,0ZM433.68,1682.3c.29,1.81-1.17,3.27-3.22,3.25-.69,0-1.35-.16-1.95-.44-1.21-.56-2.13-1.61-2.33-2.81-.29-1.81,1.16-3.25,3.22-3.25.69,0,1.35.16,1.95.44,1.21.56,2.13,1.61,2.33,2.81ZM512.2,1742.53l20.9-4.23c-6.86-16.18-19-31.26-35.4-42.95l-12.75,13.99c12.65,9.03,22.01,20.68,27.25,33.19ZM507.73,1716.75c1.11-.59,2.53-.55,3.75.01.6.28,1.14.68,1.57,1.2,1.27,1.56.99,3.53-.67,4.44-1.11.59-2.53.55-3.75-.01-.6-.28-1.14-.68-1.57-1.2-1.28-1.54-.99-3.53.67-4.44ZM372.15,1724.18c2.87-5.66,6.68-10.63,11.24-14.87l-17.4-14.17c-6.04,5.54-11.07,12.08-14.85,19.55-3.77,7.45-6.02,15.28-6.84,23.28l22.56,4.36c.61-6.22,2.34-12.34,5.29-18.15ZM365.21,1720.95c-.78,1.54-3,2.07-4.92,1.18-1.95-.9-2.88-2.9-2.1-4.44.79-1.56,3-2.09,4.95-1.19,1.92.89,2.86,2.89,2.07,4.45ZM511.47,1788.98c-2.94,5.81-6.88,10.9-11.6,15.21l17.53,14.28c6.05-5.56,11.08-12.1,14.85-19.55,3.78-7.47,6.03-15.3,6.84-23.28l-22.38-4.33c-.66,6.06-2.37,12.01-5.24,17.67ZM518.42,1792.21c.79-1.56,3-2.09,4.93-1.2,1.95.91,2.88,2.9,2.09,4.46-.78,1.54-3,2.07-4.94,1.17-1.92-.89-2.86-2.89-2.08-4.43ZM387.16,1731.15c-12.26,24.2,2.28,55.21,32.46,69.25,30.19,14.04,64.59,5.8,76.85-18.4,12.26-24.21-2.28-55.21-32.46-69.25-30.19-14.04-64.59-5.8-76.85,18.4ZM429.66,1818.23l-3.68,18.74c19.73,5.12,39.59,4.95,57.1.1l-9.64-18.69c-13.43,3.68-28.66,3.79-43.78-.14ZM449.95,1830.84c-.29-1.81,1.16-3.25,3.22-3.25.69,0,1.35.16,1.95.44,1.21.56,2.13,1.61,2.33,2.81.29,1.81-1.17,3.27-3.22,3.25-.69,0-1.35-.16-1.95-.44-1.21-.56-2.13-1.61-2.33-2.81ZM350.32,1775.31c6.84,16.17,18.98,31.23,35.39,42.92l13.09-14.36c-12.57-8.95-21.91-20.48-27.2-32.87l-21.28,4.31ZM370.6,1795.18c-1.28-1.54-.99-3.53.67-4.44,1.11-.59,2.53-.55,3.74.01.6.28,1.14.68,1.57,1.2,1.27,1.56.99,3.53-.67,4.44-1.09.6-2.52.56-3.74,0-.6-.28-1.14-.68-1.57-1.2Z"/>
        <path class="cls-54" d="M346,1728.48c-.05.2-.12.4-.17.6-.45,1.88-.8,3.77-1.09,5.67-.16,1.07-.33,2.14-.44,3.22l-4.58,11.79c.09-.86.19-1.72.31-2.58.03-.21.09-.42.12-.63.29-1.9.64-3.8,1.09-5.67,0-.04.01-.08.02-.12.04-.16.1-.32.14-.48.41-1.63.89-3.24,1.43-4.84.08-.25.13-.5.22-.74.25-.72.52-1.45.8-2.16l4.58-11.79c-.37.96-.69,1.94-1.02,2.91-.54,1.6-1.02,3.21-1.43,4.83ZM517.4,1818.47l-4.58,11.79c6.05-5.56,11.08-12.1,14.85-19.55,1.01-2,1.91-4.02,2.71-6.07l4.58-11.79c-.79,2.05-1.7,4.07-2.71,6.07-3.77,7.45-8.8,13.99-14.85,19.55ZM369.57,1820.58c.21.2.44.39.66.59,1.21,1.11,2.43,2.21,3.7,3.28.28.23.57.45.85.68.34.28.68.55,1.02.82,1.73,1.39,3.5,2.76,5.34,4.07l4.58-11.79h0s0,0,0,0c-1.84-1.31-3.6-2.67-5.33-4.06-.34-.28-.69-.55-1.03-.83-1.57-1.29-3.08-2.61-4.55-3.97-.21-.2-.44-.38-.65-.58-1.65-1.54-3.23-3.12-4.75-4.73-.28-.29-.54-.59-.81-.89-1.26-1.36-2.47-2.74-3.63-4.14-.24-.29-.49-.57-.73-.86-1.29-1.58-2.52-3.19-3.69-4.83-.26-.36-.51-.73-.77-1.1-1.06-1.51-2.07-3.04-3.03-4.59-.12-.2-.26-.4-.38-.61-1.03-1.7-1.99-3.42-2.9-5.16-.21-.41-.42-.81-.62-1.22-.89-1.77-1.74-3.55-2.5-5.35l-4.58,11.79c.76,1.8,1.61,3.58,2.5,5.35.21.41.41.82.62,1.22.91,1.74,1.86,3.46,2.9,5.16.12.2.26.4.38.6.96,1.55,1.97,3.08,3.03,4.6.26.37.51.73.77,1.1,1.17,1.63,2.4,3.24,3.69,4.83.24.29.49.58.73.87,1.17,1.4,2.38,2.78,3.63,4.13.27.3.54.59.81.89.16.17.3.34.46.5,1.38,1.44,2.81,2.85,4.29,4.22ZM425.99,1836.97l-4.58,11.79c1.35.35,2.69.67,4.04.97.5.11,1,.17,1.5.28,1.62.34,3.23.63,4.85.9.69.11,1.38.28,2.06.38.52.08,1.04.13,1.57.2.52.07,1.03.13,1.55.2,2.15.26,4.29.48,6.43.62.02,0,.04,0,.06,0,.17.01.33,0,.5.02,2.08.12,4.14.19,6.19.19.72,0,1.44-.02,2.15-.03.98-.01,1.96,0,2.93-.04.52-.02,1.02-.08,1.54-.11.84-.05,1.68-.11,2.52-.17,1.4-.11,2.78-.25,4.16-.41.81-.1,1.63-.19,2.44-.31,1.46-.21,2.91-.46,4.35-.73.68-.13,1.37-.24,2.05-.38,2.09-.44,4.17-.92,6.2-1.48l4.58-11.79c-2.03.56-4.11,1.05-6.2,1.48-.67.14-1.36.25-2.04.38-1.44.27-2.89.52-4.35.73-.81.11-1.62.21-2.43.31-1.38.16-2.77.3-4.16.41-.84.07-1.68.13-2.52.17-1.48.08-2.97.13-4.47.15-.72.01-1.43.03-2.15.03-2.06,0-4.13-.07-6.21-.2-.16,0-.32,0-.48-.02-2.15-.14-4.32-.36-6.49-.62-.52-.06-1.04-.13-1.56-.2-1.21-.16-2.42-.38-3.62-.58-1.62-.27-3.24-.56-4.86-.9-1.85-.39-3.7-.77-5.54-1.25Z"/>
        <path class="cls-27" d="M343.69,1781.69c-.35-1-.67-2.01-.98-3.02-.14-.45-.27-.9-.4-1.36-.32-1.14-.62-2.28-.89-3.43-.06-.27-.14-.54-.2-.82-.02-.07-.04-.14-.05-.2-.1-.43-.15-.87-.24-1.3-.24-1.16-.47-2.31-.65-3.47-.1-.63-.16-1.27-.25-1.9-.13-1.02-.26-2.04-.35-3.06-.02-.2-.05-.41-.07-.61-.06-.74-.08-1.48-.11-2.22-.02-.5-.06-1-.08-1.5-.04-1.33-.03-2.66,0-3.99,0-.14,0-.29,0-.43,0-.01,0-.02,0-.03.06-1.54.16-3.08.32-4.61l4.58-11.79c-.16,1.54-.27,3.09-.32,4.64,0,.14,0,.28,0,.41-.04,1.33-.04,2.67,0,4,.01.5.05.99.08,1.49.05.95.1,1.89.18,2.84.09,1.02.22,2.04.35,3.05.08.63.15,1.27.25,1.9.18,1.15.41,2.3.64,3.45.1.51.18,1.02.3,1.53.06.27.13.53.2.8.27,1.15.57,2.3.9,3.45.13.45.26.9.4,1.35.31,1.01.63,2.02.98,3.02.15.42.29.85.44,1.27.51,1.39,1.04,2.77,1.62,4.15,0,0,0,0,0,0h0l-4.58,11.79c-.58-1.37-1.11-2.76-1.62-4.15-.15-.42-.29-.84-.44-1.26ZM483.08,1837.07l-4.58,11.79c13.12-3.65,24.92-9.93,34.31-18.6l4.58-11.79c-9.39,8.66-21.19,14.95-34.31,18.6ZM385.71,1818.23l-4.57,11.79c.17.12.34.24.51.36.19.14.41.26.6.39,1.82,1.27,3.71,2.5,5.63,3.68.29.18.55.38.85.55.2.12.42.23.62.35,2.04,1.21,4.11,2.38,6.25,3.49.07.04.14.08.21.12,1.5.77,3.02,1.52,4.56,2.23.9.42,1.8.82,2.7,1.22.31.14.62.24.93.37,1.82.78,3.65,1.51,5.49,2.2.27.1.54.23.82.33.07.03.15.05.22.07,2.15.78,4.31,1.48,6.47,2.13.19.06.38.13.58.19,1.28.38,2.56.73,3.84,1.06l4.58-11.79h0,0s-.01,0-.02,0c-1.46-.38-2.93-.8-4.39-1.24-2.16-.65-4.32-1.35-6.47-2.13-.35-.13-.69-.27-1.04-.4-1.84-.68-3.67-1.42-5.49-2.2-1.21-.52-2.42-1.03-3.63-1.59-1.62-.75-3.21-1.54-4.77-2.35-2.14-1.11-4.22-2.28-6.25-3.49-.5-.3-.98-.6-1.47-.9-1.92-1.18-3.8-2.4-5.62-3.67-.37-.26-.76-.5-1.12-.76Z"/>
        <path class="cls-8" d="M497.7,1695.35l-12.75,13.99c-4.54-3.24-9.49-6.14-14.84-8.63-5.35-2.49-10.8-4.43-16.27-5.84l3.58-18.26c7.08,1.85,14.14,4.35,21.06,7.57,6.93,3.22,13.35,6.99,19.21,11.16ZM400.34,1676.55c-13.15,3.64-24.94,9.92-34.34,18.59l17.4,14.17c7.21-6.71,16.29-11.58,26.4-14.41l-9.46-18.34ZM533.1,1738.3l-20.9,4.23c3.93,9.36,5.54,19.2,4.51,28.78l22.38,4.33c1.29-12.43-.86-25.21-5.99-37.34ZM366.87,1742.32l-22.56-4.36c-1.29,12.43.86,25.21,6.01,37.35l21.28-4.31c-3.98-9.32-5.67-19.12-4.73-28.68ZM499.87,1804.19c-7.25,6.62-16.32,11.42-26.42,14.19l9.64,18.69c13.12-3.65,24.92-9.93,34.31-18.6l-17.53-14.28ZM410.51,1799.51c2.39,1.45,4.9,2.8,7.53,4.03s5.29,2.27,7.96,3.17l-1.92,6.09c-2.99-1.02-5.98-2.2-8.92-3.57-2.95-1.37-5.76-2.88-8.45-4.51l3.81-5.21M458.7,1810.38l2.05,6.55c-2.98.34-6.05.53-9.19.52-3.16,0-6.28-.2-9.37-.55l-.04-6.54c2.76.32,5.55.5,8.36.5,2.81,0,5.54-.17,8.2-.48M387.26,1777.15c1.39,2.2,2.94,4.36,4.68,6.47,1.74,2.11,3.62,4.1,5.58,5.98l-5.39,4.01c-2.2-2.11-4.29-4.35-6.25-6.72-1.95-2.36-3.7-4.79-5.26-7.24l6.64-2.51M486.89,1799.64l5.48,5.23c-2.17,1.62-4.51,3.12-7.01,4.48-2.52,1.36-5.11,2.54-7.79,3.55l-3.87-6.1c2.38-.9,4.7-1.94,6.94-3.15,2.23-1.21,4.31-2.56,6.25-4M378.62,1749.28c.01,2.35.2,4.75.58,7.18.39,2.44.98,4.83,1.71,7.18l-7.4.86c-.82-2.63-1.47-5.32-1.91-8.06-.43-2.73-.65-5.41-.67-8.05l7.68.89M510.44,1779.89c-.78,2.45-1.76,4.87-2.95,7.23-1.2,2.36-2.57,4.59-4.1,6.7l-6.68-4.04c1.37-1.87,2.61-3.85,3.67-5.96,1.07-2.11,1.93-4.27,2.62-6.46l7.44,2.53M380.25,1719.32l6.68,4.04c-1.37,1.88-2.61,3.86-3.68,5.97-1.07,2.11-1.92,4.27-2.61,6.45l-7.44-2.53c.79-2.46,1.76-4.87,2.95-7.23,1.2-2.36,2.58-4.59,4.1-6.7M510.11,1748.64c.83,2.64,1.47,5.32,1.91,8.05.43,2.73.65,5.42.67,8.05l-7.69-.88c-.01-2.35-.2-4.75-.58-7.18-.39-2.44-.98-4.83-1.71-7.18l7.4-.86M406.06,1700.24l3.87,6.1c-2.38.9-4.7,1.94-6.94,3.15-2.23,1.21-4.31,2.56-6.25,4l-5.48-5.24c2.17-1.61,4.5-3.11,7.01-4.48,2.51-1.36,5.12-2.53,7.78-3.54M491.5,1719.53c2.2,2.11,4.29,4.35,6.25,6.71,1.95,2.37,3.7,4.79,5.26,7.25l-6.63,2.5c-1.39-2.19-2.94-4.36-4.68-6.46-1.74-2.11-3.62-4.1-5.58-5.98l5.39-4.01M441.44,1696.24l.04,6.54c-2.76-.32-5.55-.5-8.36-.5s-5.54.17-8.2.47l-2.06-6.54c2.99-.35,6.05-.53,9.2-.53,3.15.01,6.28.2,9.37.55M468.48,1703.91c2.95,1.37,5.77,2.88,8.45,4.5l-3.81,5.22c-2.39-1.45-4.9-2.8-7.53-4.03-2.63-1.22-5.29-2.27-7.96-3.18l1.92-6.1c3,1.03,5.98,2.21,8.92,3.58M454.56,1731.39c-7.19-3.35-15.39-1.38-18.31,4.38-1.23,2.43-1.31,5.17-.47,7.75-.5-.43-1.05-.83-1.61-1.2-.71-.46-1.45-.89-2.25-1.26-7.19-3.35-15.39-1.38-18.31,4.38-2.92,5.77.54,13.15,7.73,16.5,5.18,2.41,10.88,2.05,14.75-.48-6.61,8.48-15.61,12.4-15.61,12.4l10.17,4.73,10.17,4.73s-2.35-9.2.5-19.43c.32,4.49,3.55,8.99,8.73,11.41,7.19,3.35,15.39,1.38,18.31-4.38,2.92-5.77-.54-13.15-7.73-16.5-.36-.17-.72-.32-1.09-.46-.45-.17-.89-.31-1.34-.45-.66-.19-1.32-.35-1.98-.47,2.64-.96,4.83-2.72,6.06-5.15,2.92-5.77-.54-13.15-7.73-16.5M398.8,1803.87l-13.09,14.36c5.88,4.21,12.31,7.95,19.24,11.17,6.92,3.22,13.98,5.74,21.04,7.56l3.68-18.74c-5.42-1.41-10.82-3.33-16.12-5.8-5.31-2.47-10.23-5.35-14.74-8.56Z"/>
      </g>
      <g>
        <path class="cls-16" d="M501.74,111.76c.1-4.39.69-8.37,1.72-11.91,2.86-9.88,9.12-16.41,17.6-19.13,6.36-2.04,13.96-1.94,22.33.5,5.29,1.54,10.88,4.01,16.66,7.46,5.93,3.54,11.62,7.87,16.96,12.77,8.2,7.52,15.54,16.4,21.57,25.86,8.02,12.58,13.72,26.21,16.02,39.1.83,4.63,1.22,9.15,1.12,13.51-.1,4.35-.68,8.3-1.7,11.83-2.82,9.83-8.99,16.35-17.36,19.13-6.3,2.09-13.84,2.05-22.16-.3-5.41-1.53-11.15-4.04-17.07-7.58-5.77-3.45-11.32-7.65-16.54-12.39-8.25-7.5-15.66-16.37-21.75-25.85-8.13-12.65-13.92-26.38-16.26-39.37-.84-4.66-1.24-9.23-1.14-13.62ZM563.1,81.82c.04-1.6-1.22-3.66-2.8-4.6-1.59-.95-2.91-.43-2.95,1.17-.04,1.6,1.22,3.66,2.81,4.61,1.57.94,2.89.42,2.93-1.18ZM505.59,80.76c.02-1-.47-2.27-1.38-3.36-1.35-1.61-3.12-2.19-3.95-1.28-.27.29-.41.71-.42,1.2-.02,1,.47,2.28,1.39,3.37,1.35,1.61,3.12,2.19,3.95,1.28.27-.3.4-.72.41-1.2ZM613.37,145.2c-.01.49.1,1.05.35,1.66.76,1.86,2.52,3.39,3.9,3.41.94.02,1.47-.65,1.5-1.64.01-.49-.1-1.05-.34-1.66-.76-1.86-2.52-3.39-3.9-3.41-.94-.02-1.48.64-1.5,1.64ZM498.69,144.72c.76,1.86,2.52,3.37,3.9,3.41.94.02,1.47-.65,1.5-1.64.01-.49-.1-1.05-.34-1.66-.76-1.86-2.52-3.39-3.9-3.41-.94-.02-1.48.64-1.5,1.64-.01.49.1,1.06.35,1.66ZM611.86,210.93c-.02,1,.47,2.28,1.39,3.37,1.35,1.6,3.12,2.19,3.95,1.28.27-.3.4-.72.41-1.2.02-1-.47-2.27-1.38-3.36-1.35-1.61-3.12-2.19-3.95-1.28-.27.29-.41.71-.42,1.2ZM554.35,209.86c-.04,1.6,1.22,3.64,2.81,4.59,1.57.94,2.89.44,2.93-1.16.04-1.6-1.22-3.66-2.79-4.6-1.59-.95-2.91-.43-2.95,1.17Z"/>
        <path class="cls-11" d="M608.1,230.58c3.43-1.12,6.58-2.73,9.4-4.79l-14.25,10.44c-1.41,1.03-2.9,1.95-4.47,2.75-1.57.8-3.21,1.48-4.93,2.04h0s0,0,0,0l14.25-10.44ZM498.97,67.33c.47-.39.94-.79,1.44-1.16l-14.25,10.44c-.21.16-.42.31-.63.48-.28.21-.54.46-.81.68-.36.3-.73.6-1.08.91-.1.09-.2.16-.3.25-.29.27-.56.56-.84.84-.29.29-.58.57-.86.87-.07.08-.15.15-.22.23-.35.38-.67.78-1,1.18-.2.24-.4.46-.6.7-.04.04-.07.08-.11.13-.53.68-1.04,1.38-1.52,2.1,0,.01-.02.03-.02.04-.07.1-.12.2-.19.3-.4.6-.78,1.21-1.15,1.85-.05.09-.1.19-.15.28-.15.27-.29.55-.44.83-.21.39-.43.78-.63,1.18-.09.19-.18.4-.27.59-.15.32-.3.65-.44.98-.12.28-.26.55-.38.83-.13.33-.25.67-.38,1-.13.33-.26.67-.38,1.01-.06.18-.14.34-.2.52-.26.74-.5,1.5-.72,2.28l14.25-10.44c.28-.96.59-1.89.92-2.8.12-.34.25-.67.38-1.01.24-.62.49-1.23.75-1.83.14-.33.29-.66.44-.98.28-.61.59-1.19.89-1.77.15-.28.29-.56.44-.83.41-.73.85-1.44,1.3-2.13.06-.1.12-.21.19-.3.53-.79,1.08-1.54,1.65-2.26.19-.24.4-.47.6-.71.4-.48.8-.95,1.22-1.4.28-.3.57-.58.86-.86.38-.37.75-.75,1.14-1.1.35-.32.72-.61,1.08-.91ZM535.49,203.94l-14.25,10.44c.15.14.31.28.46.42,1,.91,2.02,1.8,3.04,2.68.41.35.82.68,1.23,1.03.31.26.61.51.92.77.33.27.65.55.98.82,1.07.87,2.15,1.72,3.24,2.55.16.12.31.23.47.35.26.2.53.39.8.59.7.52,1.4,1.05,2.1,1.55.76.55,1.54,1.07,2.31,1.59.27.19.54.38.82.56.14.09.28.19.42.29,1.25.83,2.5,1.64,3.77,2.41.4.25.81.49,1.21.74.96.57,1.91,1.12,2.86,1.65.59.33,1.17.61,1.75.93.58.31,1.16.63,1.74.92.33.17.66.36.98.52.74.37,1.46.67,2.19,1.01.76.36,1.53.73,2.29,1.06.22.1.45.21.67.31,1.29.55,2.57,1.05,3.84,1.52.28.1.56.2.84.3.6.22,1.21.44,1.8.64.99.33,1.98.64,2.96.92l14.25-10.44c-1.57-.45-3.16-.99-4.76-1.56-.28-.1-.56-.19-.84-.3-1.49-.55-3-1.17-4.51-1.83-.76-.33-1.52-.7-2.29-1.06-1.05-.49-2.1-.99-3.17-1.53-.58-.3-1.16-.61-1.74-.92-1.53-.82-3.06-1.65-4.61-2.58-1.82-1.09-3.62-2.24-5.4-3.44-.27-.18-.54-.37-.81-.56-1.48-1.01-2.96-2.06-4.41-3.15-.27-.2-.54-.39-.8-.59-1.58-1.2-3.14-2.44-4.69-3.71-.31-.25-.61-.51-.92-.76-1.6-1.34-3.19-2.71-4.74-4.13ZM481.42,159.11c.83,1.85,1.69,3.7,2.6,5.54.24.48.44.97.68,1.45.15.3.33.6.49.9.99,1.92,2.03,3.84,3.1,5.74.23.41.43.83.67,1.24.06.11.13.21.19.32.26.45.54.9.81,1.35.67,1.13,1.33,2.27,2.03,3.39.36.58.72,1.16,1.09,1.73l14.25-10.44c-1.08-1.69-2.11-3.4-3.12-5.12-.27-.45-.55-.9-.81-1.35-.3-.51-.56-1.03-.86-1.55-1.08-1.9-2.12-3.82-3.11-5.75-.4-.78-.78-1.56-1.17-2.35-.91-1.84-1.77-3.68-2.6-5.54-.35-.78-.71-1.57-1.04-2.35-.99-2.33-1.92-4.66-2.77-6.99-.09-.24-.19-.47-.27-.71-.16-.43-.28-.86-.43-1.29-.56-1.62-1.11-3.25-1.6-4.86-.22-.74-.41-1.47-.62-2.2-.36-1.27-.71-2.53-1.03-3.79-.6-2.4-1.14-4.79-1.57-7.17l-14.25,10.44s0,0,0,0c.43,2.37.96,4.76,1.56,7.16.05.21.08.41.13.62.27,1.05.59,2.11.89,3.17.21.73.4,1.47.62,2.2.49,1.62,1.04,3.24,1.6,4.86.15.43.28.86.43,1.29.01.04.03.08.04.12.07.2.16.39.23.59.85,2.33,1.78,4.66,2.77,6.99.33.79.69,1.57,1.04,2.35Z"/>
        <path class="cls-3" d="M608.1,230.58l-14.25,10.44c-8.23,2.67-18.08,2.6-28.92-.51l14.25-10.44c10.84,3.11,20.69,3.18,28.92.51ZM486.25,89.61c.25-1.15.52-2.27.84-3.36l-14.25,10.44c-.02.07-.04.14-.06.21-.27.95-.51,1.92-.73,2.91-.02.08-.03.16-.05.24-.07.32-.12.65-.19.97-.12.62-.26,1.24-.36,1.88-.03.2-.05.41-.08.62-.07.45-.13.91-.19,1.37-.06.44-.13.87-.18,1.32-.04.32-.05.66-.08.98-.05.52-.09,1.05-.13,1.59-.02.35-.06.68-.08,1.02-.04.76-.07,1.54-.09,2.32-.01.55-.02,1.1-.02,1.65,0,.43.03.86.04,1.29.01.77.03,1.55.06,2.32.01.29,0,.58.02.88.02.35.07.71.09,1.06.07,1.02.15,2.04.26,3.06.04.36.05.71.09,1.07.03.23.07.46.1.69.22,1.86.48,3.73.82,5.62l14.25-10.44c-.34-1.89-.6-3.76-.82-5.62-.07-.59-.13-1.17-.19-1.75-.1-1.02-.19-2.04-.26-3.06-.04-.65-.09-1.3-.11-1.95-.03-.78-.05-1.55-.06-2.33-.01-.98-.04-1.97-.02-2.93.03-1.14.1-2.25.17-3.34.04-.54.08-1.07.13-1.59.07-.78.16-1.55.26-2.31.06-.46.12-.91.18-1.36.13-.85.28-1.68.45-2.5.06-.32.12-.65.19-.97ZM507.33,170.32l-14.25,10.44c.5.79,1.01,1.57,1.53,2.35.3.45.61.89.91,1.33.35.52.7,1.03,1.05,1.54.2.29.4.59.6.88.51.72,1.03,1.43,1.55,2.15.25.35.5.7.76,1.05.08.11.15.22.23.32.84,1.13,1.69,2.26,2.56,3.37.07.09.14.18.21.26.22.29.46.57.68.85.57.72,1.13,1.44,1.71,2.15.25.31.51.61.76.91.33.4.67.8,1,1.19.3.36.6.72.9,1.08.52.6,1.04,1.19,1.57,1.78.28.32.55.64.83.95.11.12.22.25.33.37.92,1.02,1.85,2.02,2.78,3.01.07.08.15.15.22.23.23.24.47.48.7.73.63.66,1.27,1.32,1.91,1.97.29.29.58.57.87.85.36.35.71.7,1.07,1.05.32.31.63.62.94.92.81.78,1.63,1.54,2.46,2.3l14.25-10.44c-1.15-1.05-2.28-2.13-3.41-3.22-.36-.35-.71-.69-1.07-1.04-.94-.93-1.87-1.88-2.79-2.83-.23-.24-.46-.47-.69-.71-1.13-1.19-2.24-2.4-3.34-3.62-.28-.31-.54-.62-.82-.93-.84-.95-1.66-1.91-2.48-2.87-.34-.4-.67-.8-1-1.2-.84-1.01-1.66-2.03-2.47-3.06-.23-.29-.46-.57-.68-.86-1.02-1.31-2.02-2.63-3-3.96-.26-.35-.5-.7-.76-1.05-.73-1.01-1.45-2.02-2.16-3.04-.35-.51-.7-1.02-1.05-1.54-.83-1.22-1.65-2.45-2.44-3.68Z"/>
        <path class="cls-35" d="M557.7,190.68c-24.7-14.77-44.26-46.82-43.69-71.59.57-24.77,21.05-32.88,45.74-18.11,24.7,14.77,44.26,46.82,43.69,71.59-.57,24.77-21.05,32.88-45.74,18.11ZM598.57,127.31l12.02-5.67c10.5,16.39,17.96,34.17,20.98,51l-16.97-6.23c-2.3-12.89-8.01-26.52-16.02-39.1ZM617.62,150.27c.94.02,1.47-.65,1.5-1.64.01-.49-.1-1.05-.34-1.66-.76-1.86-2.52-3.39-3.9-3.41-.94-.02-1.48.64-1.5,1.64-.01.49.1,1.05.35,1.66.76,1.86,2.52,3.39,3.9,3.41ZM560.04,88.68c-5.77-3.45-11.37-5.92-16.66-7.46l-4.65-19.32c6.95,2,14.32,5.23,21.92,9.78,7.6,4.54,14.9,10.09,21.77,16.35l-5.44,13.42c-5.33-4.9-11.03-9.22-16.96-12.77ZM560.3,77.22c-1.59-.95-2.91-.43-2.95,1.17-.04,1.6,1.22,3.66,2.81,4.61,1.57.94,2.89.42,2.93-1.18.04-1.6-1.22-3.66-2.8-4.6ZM503.46,99.85l-16.37-13.6c3.71-12.81,11.78-21.29,22.73-24.86l11.23,19.34c-8.48,2.72-14.73,9.25-17.6,19.13ZM505.18,81.96c.27-.3.4-.72.41-1.2.02-1-.47-2.27-1.38-3.36-1.35-1.61-3.12-2.19-3.95-1.28-.27.29-.41.71-.42,1.2-.02,1,.47,2.28,1.39,3.37,1.35,1.61,3.12,2.19,3.95,1.28ZM614.02,191.75l16.8,13.96c-3.69,12.8-11.76,21.29-22.72,24.87l-11.44-19.7c8.37-2.77,14.54-9.3,17.36-19.13ZM612.28,209.73c-.27.29-.41.71-.42,1.2-.02,1,.47,2.28,1.39,3.37,1.35,1.6,3.12,2.19,3.95,1.28.27-.3.4-.72.41-1.2.02-1-.47-2.27-1.38-3.36-1.35-1.61-3.12-2.19-3.95-1.28ZM486.33,119.31l16.54,6.07c2.34,12.99,8.13,26.72,16.26,39.37l-11.81,5.56c-10.5-16.41-17.96-34.19-21-51.01ZM502.59,148.13c.94.02,1.47-.65,1.5-1.64.01-.49-.1-1.05-.34-1.66-.76-1.86-2.52-3.39-3.9-3.41-.94-.02-1.48.64-1.5,1.64-.01.49.1,1.06.35,1.66.76,1.86,2.52,3.37,3.9,3.41ZM557.42,202.99c5.92,3.54,11.66,6.05,17.07,7.58l4.69,19.49c-6.96-2.01-14.32-5.23-21.92-9.78-7.6-4.54-14.92-10.1-21.77-16.35l5.4-13.33c5.22,4.74,10.77,8.93,16.54,12.39ZM557.16,214.45c1.57.94,2.89.44,2.93-1.16.04-1.6-1.22-3.66-2.79-4.6-1.59-.95-2.91-.43-2.95,1.17-.04,1.6,1.22,3.64,2.81,4.59Z"/>
        <path class="cls-21" d="M582.43,88.03c10.69,9.76,20.28,21.29,28.16,33.62l-12.02,5.67c-6.03-9.47-13.38-18.34-21.57-25.86l5.44-13.42ZM614.02,191.75l16.8,13.96c1.33-4.6,2.11-9.74,2.24-15.42.13-5.68-.39-11.6-1.48-17.64l-16.97-6.23c.83,4.63,1.22,9.15,1.12,13.51-.1,4.35-.68,8.3-1.7,11.83ZM509.82,61.38l11.23,19.34c6.36-2.04,13.96-1.94,22.33.5l-4.65-19.32c-10.84-3.11-20.69-3.2-28.92-.51ZM574.49,210.58l4.69,19.49c10.84,3.11,20.69,3.18,28.92.51l-11.44-19.7c-6.3,2.09-13.84,2.05-22.16-.3ZM484.87,101.68c-.13,5.68.39,11.6,1.46,17.63l16.54,6.07c-.84-4.66-1.24-9.23-1.14-13.62.1-4.39.69-8.37,1.72-11.91l-16.37-13.6c-1.32,4.61-2.09,9.75-2.22,15.43ZM606.06,180.58c.32-1.91.53-3.94.58-6.09.05-2.16-.06-4.37-.29-6.61l5.79,2.67c.26,2.52.37,5,.31,7.41-.06,2.42-.28,4.69-.64,6.84l-5.75-4.23M597.34,139.21l4.7-.8c1.38,2.72,2.67,5.49,3.82,8.3,1.16,2.82,2.15,5.59,3,8.29l-5.44-.99c-.75-2.41-1.63-4.89-2.66-7.39-1.04-2.51-2.18-4.98-3.43-7.41M596,197.84c1.32-.9,2.55-1.94,3.67-3.16,1.11-1.23,2.08-2.59,2.92-4.05l5.33,5.45c-.95,1.63-2.04,3.15-3.3,4.53-1.25,1.37-2.63,2.55-4.09,3.56l-4.54-6.33M578,112.33l2.34-4.08c2.15,2.2,4.26,4.52,6.32,6.97,2.06,2.46,4,4.97,5.83,7.52l-3.66,2.5c-1.63-2.27-3.35-4.51-5.19-6.7-1.84-2.19-3.73-4.26-5.64-6.21M575.96,201.17c1.95.36,3.88.57,5.77.61,1.88.03,3.66-.11,5.35-.4l3.45,6.75c-1.89.32-3.89.48-6.01.44-2.11-.04-4.27-.27-6.46-.67l-2.09-6.73M552.84,88.17c2.33,1.08,4.71,2.34,7.12,3.78,2.41,1.44,4.77,3.02,7.1,4.72l-.91,5.33c-2.06-1.52-4.17-2.94-6.32-4.22-2.15-1.29-4.27-2.4-6.35-3.36l-.63-6.25M550.39,195l.9-5.33c2.07,1.52,4.18,2.94,6.33,4.23s4.27,2.39,6.34,3.35l.64,6.26c-2.34-1.09-4.71-2.34-7.12-3.78-2.41-1.44-4.78-3.03-7.1-4.72M526.92,83.54c1.89-.33,3.89-.48,6-.44,2.12.05,4.28.28,6.46.67l2.1,6.73c-1.95-.36-3.88-.57-5.77-.61-1.89-.03-3.66.11-5.35.4l-3.45-6.75M524.97,168.92l3.66-2.5c1.63,2.27,3.35,4.51,5.19,6.7,1.84,2.19,3.72,4.26,5.64,6.21l-2.35,4.07c-2.14-2.19-4.25-4.52-6.32-6.97-2.06-2.46-3.99-4.97-5.82-7.51M509.52,95.59c.95-1.63,2.04-3.15,3.29-4.53,1.26-1.37,2.63-2.55,4.1-3.56l4.53,6.32c-1.31.9-2.55,1.94-3.66,3.17-1.12,1.22-2.08,2.59-2.93,4.05l-5.33-5.45M508.58,136.66l5.44.99c.75,2.41,1.63,4.88,2.66,7.39,1.03,2.51,2.18,4.98,3.42,7.4l-4.69.81c-1.39-2.72-2.67-5.49-3.83-8.3-1.15-2.82-2.15-5.58-2.99-8.29M505,113.7c.06-2.42.28-4.7.63-6.85l5.76,4.23c-.33,1.91-.53,3.94-.58,6.09-.05,2.16.05,4.37.29,6.61l-5.79-2.68c-.25-2.52-.36-4.99-.31-7.41M533.04,130.47c-.14,5.9,4.53,13.54,10.41,17.06,2.48,1.48,4.79,1.99,6.63,1.64-.17.38-.3.8-.41,1.25-.12.56-.21,1.15-.22,1.81-.14,5.9,4.52,13.54,10.41,17.06,5.88,3.52,10.76,1.59,10.9-4.31.1-4.25-2.3-9.4-5.84-13.26,9.5,7.24,16.09,15.91,16.09,15.91l.19-8.35.19-8.35s-6.8.65-16.38-3.51c3.62.42,6.19-1.75,6.29-6.01.14-5.9-4.53-13.54-10.41-17.06-5.88-3.52-10.76-1.59-10.9,4.31,0,.3,0,.6.02.9.03.38.07.75.12,1.12.08.56.19,1.12.34,1.7-1.78-2.51-4.04-4.74-6.53-6.23-5.88-3.52-10.76-1.59-10.9,4.31M507.33,170.32c7.88,12.3,17.47,23.86,28.16,33.62l5.4-13.33c-8.25-7.5-15.66-16.37-21.75-25.85l-11.81,5.56Z"/>
      </g>
      <g>
        <path class="cls-55" d="M281.78,1234.16c-4.91,1.36-9.52,2.04-13.81,2.08-11.93.13-21.28-4.62-27.14-13.13-4.39-6.37-6.83-14.86-6.93-24.96-.06-6.39.8-13.43,2.7-21,1.95-7.77,4.84-15.55,8.49-23.11,5.61-11.62,13-22.75,21.49-32.63,11.28-13.12,24.5-24.02,38.05-30.9,4.86-2.47,9.76-4.42,14.63-5.77,4.87-1.35,9.45-2.02,13.7-2.08,11.86-.16,21.17,4.5,27.06,12.87,4.43,6.3,6.92,14.69,7.1,24.71.12,6.52-.75,13.73-2.7,21.5-1.9,7.57-4.69,15.14-8.21,22.52-5.56,11.68-12.93,22.88-21.42,32.82-11.32,13.27-24.63,24.3-38.27,31.26-4.9,2.5-9.84,4.47-14.75,5.83ZM227.95,1176.06c-1.78.49-3.65,2.58-4.17,4.65-.52,2.09.5,3.37,2.28,2.88,1.79-.49,3.65-2.58,4.18-4.67.52-2.06-.5-3.35-2.29-2.86ZM246.05,1240.27c-1.11.31-2.37,1.28-3.27,2.66-1.34,2.04-1.39,4.2-.1,4.81.42.2.93.21,1.47.06,1.11-.31,2.37-1.29,3.28-2.67,1.34-2.04,1.39-4.2.1-4.81-.42-.2-.93-.2-1.47-.05ZM281.49,1098.99c.55-.15,1.14-.47,1.73-.95,1.81-1.47,2.92-3.93,2.48-5.47-.29-1.05-1.21-1.42-2.33-1.11-.55.15-1.14.46-1.72.94-1.81,1.47-2.92,3.93-2.48,5.47.29,1.05,1.21,1.43,2.32,1.12ZM319.39,1226.49c1.81-1.47,2.9-3.93,2.48-5.47-.29-1.05-1.21-1.42-2.33-1.11-.55.15-1.14.46-1.72.94-1.81,1.47-2.92,3.93-2.48,5.47.29,1.05,1.21,1.43,2.32,1.12.54-.15,1.14-.47,1.73-.95ZM354.98,1078.62c1.11-.31,2.37-1.29,3.28-2.67,1.32-2.03,1.39-4.2.1-4.81-.42-.2-.93-.2-1.48-.05-1.11.31-2.37,1.28-3.27,2.66-1.34,2.04-1.39,4.2-.1,4.81.42.2.93.21,1.47.06ZM373.07,1142.85c1.79-.49,3.63-2.58,4.16-4.66.52-2.06-.48-3.36-2.27-2.86-1.79.49-3.65,2.58-4.17,4.65-.52,2.09.5,3.38,2.28,2.88Z"/>
        <path class="cls-51" d="M378.06,1076.22c-2.4-3.43-5.23-6.39-8.47-8.83l16.37,12.32c1.62,1.22,3.14,2.57,4.55,4.04,1.41,1.47,2.72,3.07,3.92,4.79h0s0,0,0,0l-16.37-12.32ZM233.37,1252.12c-.59-.4-1.2-.78-1.76-1.21l16.37,12.32c.24.18.49.37.74.54.33.24.69.44,1.03.67.45.3.91.61,1.37.89.13.08.25.17.38.25.39.23.81.43,1.22.65.42.22.82.46,1.25.67.11.05.21.12.33.17.53.26,1.09.48,1.64.72.33.14.65.29.98.43.06.02.12.05.18.08.93.36,1.88.69,2.84.99.02,0,.03,0,.05.01.13.04.27.07.4.11.8.24,1.61.46,2.44.66.12.03.24.04.36.07.35.08.71.14,1.07.21.51.1,1.01.22,1.52.3.24.04.5.06.75.1.41.06.82.11,1.23.16.35.04.69.1,1.05.14.41.04.83.05,1.24.09.41.03.83.06,1.25.09.22.01.43.04.64.04.91.04,1.84.05,2.78.04l-16.37-12.32c-1.16.01-2.3-.02-3.42-.08-.42-.02-.83-.05-1.25-.09-.77-.06-1.53-.13-2.29-.22-.41-.05-.83-.1-1.24-.16-.77-.11-1.52-.25-2.27-.4-.36-.07-.72-.13-1.07-.21-.95-.21-1.88-.46-2.8-.73-.13-.04-.27-.07-.4-.11-1.05-.32-2.07-.68-3.07-1.08-.34-.13-.66-.29-.99-.43-.66-.28-1.32-.57-1.96-.89-.42-.21-.83-.44-1.25-.67-.54-.29-1.08-.58-1.6-.9-.47-.28-.92-.59-1.38-.9ZM372.82,1165.78l16.37,12.32c.1-.22.21-.44.31-.65.67-1.42,1.33-2.85,1.96-4.28.25-.57.48-1.14.73-1.71.18-.43.37-.85.54-1.28.19-.45.39-.91.58-1.36.6-1.48,1.19-2.96,1.74-4.45.08-.21.15-.43.23-.64.13-.36.26-.72.39-1.08.34-.95.7-1.9,1.02-2.86.35-1.03.67-2.07,1-3.1.12-.37.24-.73.35-1.1.06-.19.12-.37.18-.56.5-1.66.98-3.33,1.42-4.99.14-.53.28-1.06.41-1.6.31-1.26.61-2.5.88-3.73.17-.76.29-1.5.44-2.26.15-.75.3-1.5.44-2.24.08-.42.18-.85.25-1.26.16-.94.25-1.84.39-2.77.14-.97.29-1.94.41-2.89.03-.28.09-.57.12-.84.18-1.62.3-3.21.4-4.78.02-.35.03-.69.05-1.03.04-.74.09-1.49.11-2.22.03-1.22.04-2.41.03-3.6l-16.37-12.32c.02,1.89-.03,3.84-.14,5.81-.02.34-.03.68-.05,1.03-.11,1.84-.29,3.72-.52,5.62-.11.95-.27,1.93-.41,2.89-.19,1.33-.39,2.67-.64,4.03-.13.74-.29,1.49-.44,2.24-.4,1.97-.81,3.95-1.32,5.99-.6,2.38-1.27,4.77-2.01,7.15-.11.36-.23.73-.35,1.09-.63,1.99-1.3,3.97-2.02,5.96-.13.36-.26.73-.39,1.09-.8,2.16-1.65,4.31-2.55,6.45-.18.43-.36.85-.54,1.27-.95,2.23-1.95,4.45-3,6.65ZM341.17,1240.84c1.78-1.54,3.54-3.12,5.28-4.75.45-.42.93-.81,1.38-1.24.28-.27.55-.57.84-.84,1.81-1.74,3.58-3.54,5.33-5.37.38-.39.77-.76,1.15-1.16.1-.1.19-.21.29-.32.41-.44.82-.9,1.23-1.35,1.03-1.12,2.07-2.24,3.08-3.39.52-.59,1.04-1.19,1.56-1.79l-16.37-12.32c-1.51,1.77-3.07,3.48-4.64,5.18-.41.45-.81.91-1.23,1.35-.47.5-.96.97-1.43,1.47-1.75,1.83-3.53,3.63-5.34,5.38-.73.71-1.48,1.39-2.22,2.08-1.74,1.63-3.5,3.21-5.28,4.74-.75.65-1.51,1.31-2.27,1.94-2.25,1.88-4.53,3.7-6.83,5.42-.23.17-.46.37-.69.54-.43.32-.86.6-1.29.91-1.61,1.17-3.23,2.32-4.86,3.41-.74.5-1.49.95-2.24,1.43-1.28.82-2.57,1.64-3.86,2.41-2.47,1.47-4.94,2.87-7.43,4.14l16.37,12.32s0,0,0,0c2.49-1.27,4.96-2.67,7.43-4.14.21-.13.43-.23.64-.36,1.08-.65,2.15-1.37,3.22-2.06.75-.48,1.49-.93,2.24-1.43,1.63-1.09,3.25-2.24,4.86-3.41.43-.31.86-.6,1.29-.91.04-.03.08-.06.12-.09.19-.14.38-.31.57-.45,2.3-1.73,4.58-3.54,6.83-5.42.76-.64,1.51-1.29,2.26-1.94Z"/>
        <path class="cls-29" d="M378.06,1076.22l16.37,12.32c5.72,8.24,8.95,19.2,9.13,32.28l-16.37-12.32c-.18-13.08-3.4-24.04-9.13-32.28ZM262.36,1258.78c-1.36.11-2.7.18-4.02.2l16.37,12.32c.08,0,.17,0,.25,0,1.14-.02,2.3-.08,3.48-.17.09,0,.19-.02.28-.03.38-.03.76-.08,1.14-.12.73-.07,1.46-.13,2.2-.23.23-.03.48-.08.71-.11.52-.07,1.05-.16,1.58-.25.51-.08,1.01-.15,1.53-.24.37-.07.74-.16,1.11-.24.6-.12,1.2-.25,1.81-.39.39-.09.77-.15,1.17-.25.86-.21,1.73-.43,2.61-.68.61-.17,1.23-.35,1.84-.53.47-.14.95-.32,1.42-.47.85-.27,1.71-.55,2.56-.85.32-.11.64-.2.96-.32.38-.14.77-.31,1.15-.46,1.1-.42,2.21-.85,3.31-1.31.38-.16.77-.29,1.15-.46.24-.1.48-.23.73-.34,1.99-.87,3.98-1.79,5.96-2.79l-16.37-12.32c-1.98,1-3.97,1.92-5.96,2.79-.63.28-1.26.54-1.88.8-1.1.46-2.2.9-3.31,1.31-.71.27-1.42.53-2.12.78-.85.3-1.71.58-2.56.85-1.09.35-2.17.7-3.25,1-1.28.35-2.53.65-3.77.93-.61.14-1.21.27-1.81.39-.89.18-1.77.34-2.65.48-.53.09-1.05.18-1.57.25-.99.14-1.96.25-2.92.34-.38.04-.77.09-1.14.12ZM344.93,1208.31l16.37,12.32c.71-.82,1.4-1.65,2.1-2.49.4-.48.78-.97,1.18-1.46.46-.56.91-1.12,1.36-1.68.26-.32.52-.64.78-.96.63-.81,1.25-1.63,1.87-2.44.3-.4.61-.79.91-1.19.09-.12.19-.24.28-.37.98-1.31,1.94-2.64,2.89-3.97.08-.11.15-.21.22-.32.24-.35.48-.7.72-1.04.61-.87,1.22-1.74,1.81-2.63.26-.38.5-.77.76-1.15.33-.5.66-1.01.99-1.51.3-.46.6-.91.89-1.36.49-.77.97-1.56,1.45-2.34.26-.42.52-.83.77-1.24.1-.16.2-.32.3-.49.82-1.36,1.63-2.73,2.41-4.1.06-.11.12-.22.18-.32.19-.34.38-.68.57-1.03.52-.93,1.04-1.85,1.54-2.78.22-.42.43-.84.66-1.25.27-.51.54-1.03.81-1.54.23-.45.48-.9.71-1.36.59-1.16,1.16-2.33,1.72-3.5l-16.37-12.32c-.78,1.63-1.6,3.25-2.44,4.86-.26.51-.53,1.02-.8,1.53-.72,1.36-1.45,2.71-2.21,4.05-.19.33-.37.67-.56,1-.94,1.65-1.91,3.29-2.9,4.92-.25.41-.51.81-.76,1.22-.77,1.25-1.56,2.49-2.36,3.72-.33.51-.66,1.01-.99,1.52-.84,1.27-1.7,2.52-2.57,3.77-.24.35-.48.7-.72,1.05-1.11,1.57-2.24,3.12-3.39,4.66-.3.4-.61.79-.91,1.19-.87,1.15-1.76,2.29-2.65,3.41-.45.56-.9,1.12-1.35,1.68-1.08,1.33-2.16,2.65-3.27,3.95Z"/>
        <path class="cls-24" d="M350.65,1145.56c-8.12,32.37-37.15,64.84-64.85,72.51-27.69,7.67-43.56-12.35-35.44-44.72,8.12-32.37,37.15-64.84,64.85-72.51,27.69-7.67,43.56,12.35,35.44,44.72ZM266.58,1121.42l-10.32-11.45c14.68-17.15,31.92-31.4,49.6-40.39l-1.23,20.94c-13.54,6.88-26.76,17.78-38.05,30.9ZM285.69,1092.56c-.29-1.05-1.21-1.42-2.33-1.11-.55.15-1.14.46-1.72.94-1.81,1.47-2.92,3.93-2.48,5.47.29,1.05,1.21,1.43,2.32,1.12.55-.15,1.14-.47,1.73-.95,1.81-1.47,2.92-3.93,2.48-5.47ZM236.6,1177.15c-1.9,7.57-2.77,14.61-2.7,21l-19.9,11.64c-.11-8.38,1.01-17.66,3.51-27.62,2.5-9.96,6.21-19.93,10.86-29.66l16.73,1.54c-3.65,7.56-6.55,15.34-8.49,23.11ZM223.78,1180.7c-.52,2.09.5,3.37,2.28,2.88,1.79-.49,3.65-2.58,4.18-4.67.52-2.06-.5-3.35-2.29-2.86-1.78.49-3.65,2.58-4.17,4.65ZM267.97,1236.24l-9.62,22.74c-15.47.17-27.59-5.94-35.22-16.91l17.71-18.95c5.86,8.51,15.21,13.26,27.14,13.13ZM247.53,1240.32c-.42-.2-.93-.2-1.47-.05-1.11.31-2.37,1.28-3.27,2.66-1.34,2.04-1.39,4.2-.1,4.81.42.2.93.21,1.47.06,1.11-.31,2.37-1.29,3.28-2.67,1.34-2.04,1.39-4.2.1-4.81ZM332.95,1082.66l9.87-23.33c15.45-.19,27.58,5.93,35.23,16.89l-18.04,19.31c-5.89-8.37-15.2-13.03-27.06-12.87ZM353.51,1078.56c.42.2.93.21,1.47.06,1.11-.31,2.37-1.29,3.28-2.67,1.32-2.03,1.39-4.2.1-4.81-.42-.2-.93-.2-1.48-.05-1.11.31-2.37,1.28-3.27,2.66-1.34,2.04-1.39,4.2-.1,4.81ZM295.32,1248.73l1.2-20.4c13.64-6.95,26.94-17.99,38.27-31.26l10.14,11.24c-14.7,17.16-31.94,31.41-49.6,40.42ZM321.87,1221.01c-.29-1.05-1.21-1.42-2.33-1.11-.55.15-1.14.46-1.72.94-1.81,1.47-2.92,3.93-2.48,5.47.29,1.05,1.21,1.43,2.32,1.12.54-.15,1.14-.47,1.73-.95,1.81-1.47,2.9-3.93,2.48-5.47ZM364.41,1141.73c1.95-7.77,2.81-14.98,2.7-21.5l20.07-11.74c.11,8.41-1.01,17.66-3.51,27.62-2.5,9.96-6.21,19.96-10.86,29.66l-16.61-1.53c3.52-7.38,6.31-14.95,8.21-22.52ZM377.23,1138.18c.52-2.06-.48-3.36-2.27-2.86-1.79.49-3.65,2.58-4.17,4.65-.52,2.09.5,3.38,2.28,2.88,1.79-.49,3.63-2.58,4.16-4.66Z"/>
        <path class="cls-20" d="M228.36,1152.5c7.26-15.14,16.85-29.65,27.89-42.54l10.32,11.45c-8.49,9.87-15.88,21-21.49,32.63l-16.73-1.54ZM332.95,1082.66l9.87-23.33c-5.55.06-11.52.93-17.88,2.69-6.35,1.76-12.75,4.32-19.1,7.56l-1.23,20.94c4.86-2.47,9.76-4.42,14.63-5.77,4.87-1.35,9.45-2.03,13.7-2.08ZM223.12,1242.07l17.71-18.95c-4.39-6.37-6.83-14.86-6.93-24.96l-19.9,11.64c.18,13.08,3.38,24.05,9.13,32.28ZM367.11,1120.24l20.07-11.74c-.18-13.08-3.4-24.04-9.13-32.28l-18.04,19.31c4.43,6.3,6.92,14.69,7.09,24.71ZM276.23,1256.26c6.35-1.76,12.75-4.32,19.09-7.53l1.2-20.4c-4.9,2.5-9.84,4.47-14.75,5.83-4.91,1.36-9.52,2.04-13.81,2.08l-9.62,22.74c5.56-.08,11.53-.95,17.88-2.71ZM323.21,1095.24c-2.23.28-4.55.73-6.96,1.4-2.41.67-4.83,1.53-7.25,2.54l1.03-7.32c2.71-1.13,5.43-2.09,8.13-2.83,2.7-.75,5.3-1.27,7.81-1.58l-2.77,7.8M280.2,1118.79l-2.47-4.95c2.55-2.45,5.2-4.8,7.93-7.03,2.74-2.24,5.48-4.26,8.2-6.11l.72,6.37c-2.43,1.64-4.88,3.45-7.31,5.43-2.44,1.99-4.8,4.09-7.08,6.29M345.75,1100.62c-1.44-1.16-3.01-2.18-4.74-3.01-1.73-.83-3.57-1.45-5.48-1.89l4.26-7.75c2.13.5,4.18,1.21,6.13,2.14,1.94.93,3.71,2.06,5.33,3.35l-5.5,7.16M256.84,1149.29l-5.31-1.23c1.72-3.13,3.59-6.25,5.62-9.35,2.04-3.12,4.18-6.11,6.39-8.99l4,3.23c-1.97,2.57-3.88,5.23-5.7,8.01-1.81,2.77-3.48,5.56-5.01,8.34M356.17,1121.76c-.26-2.29-.67-4.5-1.26-6.61-.6-2.1-1.35-4.03-2.24-5.81l6.34-6.09c.99,1.99,1.83,4.16,2.5,6.53.66,2.36,1.13,4.83,1.42,7.4l-6.77,4.58M238.44,1185.32c.42-2.95,1.02-6.01,1.81-9.17.79-3.16,1.76-6.31,2.86-9.46l6.22-.78c-1,2.8-1.86,5.62-2.57,8.44-.71,2.82-1.23,5.54-1.6,8.18l-6.73,2.8M357.89,1152.22l-6.23.79c.99-2.81,1.86-5.63,2.57-8.45.71-2.82,1.22-5.54,1.59-8.17l6.73-2.81c-.42,2.96-1.02,6.01-1.81,9.17-.79,3.16-1.76,6.32-2.86,9.46M241.99,1215.65c-1-1.99-1.83-4.16-2.5-6.52-.66-2.37-1.13-4.84-1.42-7.4l6.77-4.59c.26,2.29.67,4.5,1.26,6.61.6,2.1,1.35,4.03,2.24,5.81l-6.34,6.09M337.46,1189.2l-4-3.23c1.97-2.57,3.88-5.23,5.7-8.01,1.81-2.77,3.48-5.56,5.01-8.34l5.31,1.24c-1.72,3.12-3.59,6.24-5.62,9.35-2.04,3.11-4.18,6.1-6.39,8.98M261.21,1230.93c-2.13-.5-4.18-1.21-6.13-2.13-1.94-.94-3.71-2.06-5.33-3.36l5.5-7.15c1.44,1.16,3.01,2.18,4.75,3,1.73.84,3.57,1.45,5.48,1.89l-4.26,7.75M307.13,1218.21l-.72-6.37c2.43-1.64,4.88-3.45,7.31-5.43,2.44-1.98,4.79-4.09,7.07-6.28l2.47,4.94c-2.56,2.46-5.2,4.8-7.94,7.04-2.74,2.22-5.48,4.25-8.2,6.1M282.84,1229.88c-2.7.75-5.31,1.27-7.82,1.59l2.77-7.81c2.23-.27,4.55-.73,6.96-1.4,2.41-.67,4.83-1.52,7.24-2.54l-1.03,7.33c-2.71,1.12-5.42,2.08-8.13,2.83M292.06,1193.13c6.6-1.83,13.52-9.56,15.45-17.28.82-3.25.6-5.99-.4-7.91.48.06.99.07,1.52.04.66-.05,1.35-.15,2.08-.36,6.6-1.83,13.52-9.56,15.45-17.28,1.94-7.71-1.85-12.48-8.44-10.66-4.76,1.32-9.66,5.71-12.77,10.94,4.86-12.98,12.27-23.2,12.27-23.2l-9.33,2.59-9.33,2.59s3,7.33,1.59,19.36c-.75-4.16-4.02-6.28-8.78-4.97-6.6,1.83-13.52,9.56-15.45,17.28-1.94,7.71,1.85,12.48,8.45,10.66.33-.09.66-.2.99-.32.41-.16.81-.33,1.21-.51.59-.28,1.18-.59,1.77-.95-2.19,2.81-3.91,6.08-4.73,9.34-1.94,7.71,1.85,12.48,8.44,10.66M344.93,1208.31c11.02-12.88,20.63-27.4,27.89-42.54l-16.61-1.53c-5.56,11.68-12.93,22.88-21.42,32.82l10.14,11.24Z"/>
      </g>
    </g>
  </g>
</svg>