<?xml version="1.0" encoding="UTF-8"?>
<svg id="Capa_2" data-name="Capa 2" xmlns="http://www.w3.org/2000/svg" xmlns:xlink="http://www.w3.org/1999/xlink" viewBox="0 0 724.7 2834.97">
  <defs>
    <style>
      .cls-1 {
        fill: url(#linear-gradient-15);
      }

      .cls-2 {
        fill: url(#linear-gradient-13);
      }

      .cls-3 {
        fill: url(#linear-gradient-28);
      }

      .cls-4 {
        fill: url(#linear-gradient-2);
      }

      .cls-5 {
        fill: url(#linear-gradient-25);
      }

      .cls-6 {
        fill: url(#linear-gradient-10);
      }

      .cls-7 {
        fill: url(#linear-gradient-12);
      }

      .cls-8 {
        fill: url(#linear-gradient-27);
      }

      .cls-9 {
        fill: url(#linear-gradient-26);
      }

      .cls-10 {
        fill: url(#linear-gradient-4);
      }

      .cls-11 {
        fill: url(#linear-gradient-35);
      }

      .cls-12 {
        fill: url(#linear-gradient-30);
      }

      .cls-13 {
        fill: url(#linear-gradient-3);
      }

      .cls-14 {
        fill: url(#linear-gradient-34);
      }

      .cls-15 {
        fill: url(#linear-gradient-5);
      }

      .cls-16 {
        fill: url(#linear-gradient-22);
      }

      .cls-17 {
        fill: url(#linear-gradient-24);
      }

      .cls-18 {
        fill: url(#linear-gradient-33);
      }

      .cls-19 {
        fill: url(#linear-gradient-8);
      }

      .cls-20 {
        fill: url(#linear-gradient-14);
      }

      .cls-21 {
        fill: url(#linear-gradient-29);
      }

      .cls-22 {
        fill: url(#linear-gradient-20);
      }

      .cls-23 {
        fill: url(#linear-gradient-17);
      }

      .cls-24 {
        fill: url(#linear-gradient-7);
      }

      .cls-25 {
        fill: url(#linear-gradient-9);
      }

      .cls-26 {
        fill: url(#linear-gradient-11);
      }

      .cls-27 {
        fill: url(#linear-gradient-19);
      }

      .cls-28 {
        fill: url(#linear-gradient-6);
      }

      .cls-29 {
        fill: url(#linear-gradient-21);
      }

      .cls-30 {
        fill: url(#linear-gradient-32);
      }

      .cls-31 {
        fill: url(#linear-gradient-16);
      }

      .cls-32 {
        fill: url(#linear-gradient);
      }

      .cls-33 {
        fill: url(#linear-gradient-23);
      }

      .cls-34 {
        fill: url(#linear-gradient-31);
      }

      .cls-35 {
        fill: url(#linear-gradient-18);
      }
    </style>
    <linearGradient id="linear-gradient" x1="-3061.32" y1="6712.92" x2="-3128.01" y2="6224.88" gradientTransform="translate(-4846.89 -2106.54) rotate(-74.72)" gradientUnits="userSpaceOnUse">
      <stop offset="0" stop-color="#52090b"/>
      <stop offset=".4" stop-color="#660e0e"/>
      <stop offset="1" stop-color="#8c1915"/>
    </linearGradient>
    <linearGradient id="linear-gradient-2" x1="953.12" y1="3375.11" x2="1376.34" y2="2980.91" gradientTransform="translate(-1025.14 -377.7) rotate(-7.37)" gradientUnits="userSpaceOnUse">
      <stop offset="0" stop-color="#f6c692"/>
      <stop offset=".04" stop-color="#d8ab7a"/>
      <stop offset=".1" stop-color="#b68d5f"/>
      <stop offset=".15" stop-color="#9e764b"/>
      <stop offset=".2" stop-color="#8f6940"/>
      <stop offset=".24" stop-color="#8a653c"/>
      <stop offset=".73" stop-color="#f6c692"/>
      <stop offset=".84" stop-color="#f6c793"/>
      <stop offset=".89" stop-color="#f6ca9b"/>
      <stop offset=".92" stop-color="#f7d1a7"/>
      <stop offset=".95" stop-color="#f9dab8"/>
      <stop offset=".97" stop-color="#fbe6cf"/>
      <stop offset=".99" stop-color="#fef4ea"/>
      <stop offset="1" stop-color="#fff9f3"/>
    </linearGradient>
    <linearGradient id="linear-gradient-3" x1="940.73" y1="3363.96" x2="1382.29" y2="2988.1" gradientTransform="translate(-1025.14 -377.7) rotate(-7.37)" gradientUnits="userSpaceOnUse">
      <stop offset="0" stop-color="#ee3f26"/>
      <stop offset="0" stop-color="#df3a24"/>
      <stop offset=".02" stop-color="#c02f20"/>
      <stop offset=".03" stop-color="#a7261c"/>
      <stop offset=".05" stop-color="#931f1a"/>
      <stop offset=".06" stop-color="#851a18"/>
      <stop offset=".09" stop-color="#7d1717"/>
      <stop offset=".13" stop-color="#7b1717"/>
      <stop offset=".25" stop-color="#691012"/>
      <stop offset=".39" stop-color="#5d0c0f"/>
      <stop offset=".53" stop-color="#5a0b0e"/>
      <stop offset=".6" stop-color="#5e0c0e"/>
      <stop offset=".68" stop-color="#6d1111"/>
      <stop offset=".76" stop-color="#851a15"/>
      <stop offset=".85" stop-color="#a6251a"/>
      <stop offset=".94" stop-color="#d03421"/>
      <stop offset="1" stop-color="#ee3f26"/>
    </linearGradient>
    <linearGradient id="linear-gradient-4" x1="-3139.59" y1="6670.29" x2="-3095.06" y2="6242.55" gradientTransform="translate(-4846.89 -2106.54) rotate(-74.72)" gradientUnits="userSpaceOnUse">
      <stop offset="0" stop-color="#511416"/>
      <stop offset=".48" stop-color="#a4091e"/>
      <stop offset=".83" stop-color="#da0223"/>
      <stop offset="1" stop-color="#ef0026"/>
    </linearGradient>
    <linearGradient id="linear-gradient-5" x1="-3074.11" y1="6210.35" x2="-3149.28" y2="6563.94" gradientTransform="translate(-4846.89 -2106.54) rotate(-74.72)" gradientUnits="userSpaceOnUse">
      <stop offset="0" stop-color="#fffaf6"/>
      <stop offset=".26" stop-color="#f3e2cc"/>
      <stop offset=".6" stop-color="#e7c79c"/>
      <stop offset=".85" stop-color="#dfb67f"/>
      <stop offset="1" stop-color="#dcb074"/>
    </linearGradient>
    <linearGradient id="linear-gradient-6" x1="-7599.81" y1="879.28" x2="-7257.86" y2="592.93" gradientTransform="translate(-6836.44 -833) rotate(-164.66) scale(1 -1)" xlink:href="#linear-gradient"/>
    <linearGradient id="linear-gradient-7" x1="-7541.04" y1="906.53" x2="-7274.31" y2="658.09" gradientTransform="translate(-6836.44 -833) rotate(-164.66) scale(1 -1)" xlink:href="#linear-gradient-2"/>
    <linearGradient id="linear-gradient-8" x1="-7548.85" y1="899.51" x2="-7270.56" y2="662.63" gradientTransform="translate(-6836.44 -833) rotate(-164.66) scale(1 -1)" xlink:href="#linear-gradient-3"/>
    <linearGradient id="linear-gradient-9" x1="-7560.48" y1="896.65" x2="-7355.21" y2="639.85" gradientTransform="translate(-6836.44 -833) rotate(-164.66) scale(1 -1)" xlink:href="#linear-gradient-4"/>
    <linearGradient id="linear-gradient-10" x1="-7318.71" y1="572.04" x2="-7569.5" y2="931.95" gradientTransform="translate(-6836.44 -833) rotate(-164.66) scale(1 -1)" xlink:href="#linear-gradient-5"/>
    <linearGradient id="linear-gradient-11" x1="-7275.5" y1="-741.54" x2="-7317.68" y2="-1050.17" gradientTransform="translate(-6828.72 -883.17) rotate(-165.11) scale(1 -1)" xlink:href="#linear-gradient"/>
    <linearGradient id="linear-gradient-12" x1="-7368.28" y1="4330.01" x2="-7100.65" y2="4080.74" gradientTransform="translate(-7255.43 3290.31) rotate(127.54) scale(1 -1)" xlink:href="#linear-gradient-2"/>
    <linearGradient id="linear-gradient-13" x1="-7376.11" y1="4322.96" x2="-7096.89" y2="4085.29" gradientTransform="translate(-7255.43 3290.31) rotate(127.54) scale(1 -1)" xlink:href="#linear-gradient-3"/>
    <linearGradient id="linear-gradient-14" x1="-7325" y1="-768.51" x2="-7296.84" y2="-1038.99" gradientTransform="translate(-6828.72 -883.17) rotate(-165.11) scale(1 -1)" xlink:href="#linear-gradient-4"/>
    <linearGradient id="linear-gradient-15" x1="-7283.59" y1="-1059.35" x2="-7331.13" y2="-835.75" gradientTransform="translate(-6828.72 -883.17) rotate(-165.11) scale(1 -1)" xlink:href="#linear-gradient-5"/>
    <linearGradient id="linear-gradient-16" x1="-2151.11" y1="6019.15" x2="-2183.81" y2="5779.85" xlink:href="#linear-gradient"/>
    <linearGradient id="linear-gradient-17" x1="915.35" y1="2181.66" x2="1122.87" y2="1988.38" xlink:href="#linear-gradient-2"/>
    <linearGradient id="linear-gradient-18" x1="909.27" y1="2176.2" x2="1125.78" y2="1991.91" xlink:href="#linear-gradient-3"/>
    <linearGradient id="linear-gradient-19" x1="-2189.48" y1="5998.25" x2="-2167.65" y2="5788.52" xlink:href="#linear-gradient-4"/>
    <linearGradient id="linear-gradient-20" x1="-2157.38" y1="5772.73" x2="-2194.23" y2="5946.1" xlink:href="#linear-gradient-5"/>
    <linearGradient id="linear-gradient-21" x1="-7189.12" y1="-447.65" x2="-7231.3" y2="-756.27" gradientTransform="translate(-4874.54 -4348.86) rotate(-129.26) scale(1 -1)" xlink:href="#linear-gradient"/>
    <linearGradient id="linear-gradient-22" x1="-7063.81" y1="4363.51" x2="-6796.18" y2="4114.24" gradientTransform="translate(-7664.85 -1216.1) rotate(163.4) scale(1 -1)" xlink:href="#linear-gradient-2"/>
    <linearGradient id="linear-gradient-23" x1="-7071.64" y1="4356.47" x2="-6792.42" y2="4118.79" gradientTransform="translate(-7664.85 -1216.1) rotate(163.4) scale(1 -1)" xlink:href="#linear-gradient-3"/>
    <linearGradient id="linear-gradient-24" x1="-7238.62" y1="-474.61" x2="-7210.46" y2="-745.09" gradientTransform="translate(-4874.54 -4348.86) rotate(-129.26) scale(1 -1)" xlink:href="#linear-gradient-4"/>
    <linearGradient id="linear-gradient-25" x1="-7197.21" y1="-765.46" x2="-7244.75" y2="-541.86" gradientTransform="translate(-4874.54 -4348.86) rotate(-129.26) scale(1 -1)" xlink:href="#linear-gradient-5"/>
    <linearGradient id="linear-gradient-26" x1="-7012.05" y1="-851.09" x2="-7054.58" y2="-981.7" gradientTransform="translate(6385.33 -2522.35) rotate(-18.85) scale(.96 -.96)" xlink:href="#linear-gradient-4"/>
    <linearGradient id="linear-gradient-27" x1="-7041.39" y1="-809.95" x2="-6968.49" y2="-998.93" gradientTransform="translate(6385.33 -2522.35) rotate(-18.85) scale(.96 -.96)" xlink:href="#linear-gradient-3"/>
    <linearGradient id="linear-gradient-28" x1="-7026.24" y1="-803.25" x2="-6966.24" y2="-1002.32" gradientTransform="translate(6385.33 -2522.35) rotate(-18.85) scale(.96 -.96)" xlink:href="#linear-gradient-2"/>
    <linearGradient id="linear-gradient-29" x1="-7007.7" y1="-837" x2="-7058.8" y2="-993.94" gradientTransform="translate(6385.33 -2522.35) rotate(-18.85) scale(.96 -.96)" xlink:href="#linear-gradient-4"/>
    <linearGradient id="linear-gradient-30" x1="-7079.51" y1="-1010.82" x2="-6968" y2="-784.48" gradientTransform="translate(6385.33 -2522.35) rotate(-18.85) scale(.96 -.96)" xlink:href="#linear-gradient-5"/>
    <linearGradient id="linear-gradient-31" x1="-7387.49" y1="2638.3" x2="-7396.94" y2="2547.79" gradientTransform="translate(-7592.11 1190.99) rotate(160.43) scale(1 -1)" xlink:href="#linear-gradient"/>
    <linearGradient id="linear-gradient-32" x1="-7398.7" y1="2706.32" x2="-7388.51" y2="2541.41" gradientTransform="translate(-7592.11 1190.99) rotate(160.43) scale(1 -1)" xlink:href="#linear-gradient-4"/>
    <linearGradient id="linear-gradient-33" x1="-7414.71" y1="2658.65" x2="-7334.35" y2="2563.3" gradientTransform="translate(-7592.11 1190.99) rotate(160.43) scale(1 -1)" xlink:href="#linear-gradient-3"/>
    <linearGradient id="linear-gradient-34" x1="-7428.66" y1="2663.41" x2="-7317.72" y2="2578.55" gradientTransform="translate(-7592.11 1190.99) rotate(160.43) scale(1 -1)" xlink:href="#linear-gradient-2"/>
    <linearGradient id="linear-gradient-35" x1="-7396.8" y1="2553.77" x2="-7383.82" y2="2663.38" gradientTransform="translate(-7592.11 1190.99) rotate(160.43) scale(1 -1)" xlink:href="#linear-gradient-5"/>
  </defs>
  <g id="Capa_1-2" data-name="Capa 1">
    <g>
      <g>
        <path class="cls-32" d="M367.52,2577.55c-2.58-.06-1.93-4.02,1.49-8.86,3.37-4.78,8.25-8.65,10.83-8.6,2.61.05,1.96,4.02-1.42,8.8-3.41,4.84-8.29,8.71-10.9,8.66ZM543.01,2406.11c.8.02,1.88-.34,3.19-1.13,3.94-2.37,8.46-7.66,10.12-11.89,1.09-2.8.62-4.4-1-4.43-.8-.02-1.88.34-3.19,1.13-3.9,2.32-8.46,7.66-10.12,11.89-1.09,2.8-.62,4.4,1.01,4.43ZM311.78,2733.82c-1.63-.03-4.31,1.5-7.13,4.26-4.27,4.18-7.24,9.49-6.71,11.96.18.81.73,1.21,1.53,1.23,1.62.03,4.3-1.5,7.14-4.26,4.27-4.18,7.28-9.55,6.71-11.96-.18-.81-.73-1.21-1.54-1.23ZM662.72,2390.95c-1.63-.03-4.31,1.49-7.13,4.26-4.27,4.18-7.24,9.49-6.71,11.96.19.81.73,1.21,1.53,1.23,1.62.03,4.3-1.5,7.14-4.26,4.27-4.18,7.28-9.55,6.71-11.96-.18-.81-.73-1.21-1.53-1.23ZM419.19,2736.1c-.8-.02-1.88.34-3.19,1.13-3.9,2.31-8.46,7.66-10.12,11.89-1.11,2.8-.63,4.4,1,4.43.8.02,1.88-.34,3.19-1.13,3.94-2.37,8.46-7.66,10.12-11.89,1.09-2.8.62-4.4-1.01-4.43ZM603.34,2397.84c-7.17-.15-15.19,1.2-23.89,3.89-24.27,7.51-53.75,25.46-84.13,50.46-22.74,18.71-46,41.36-67.95,66.53-13.88,15.91-27.25,32.83-39.64,50.38-12.71,18.02-23.49,35.43-32.27,51.82-13.48,25.18-22.24,47.97-26.04,66.92-5.06,25.23-1.34,43.64,11.74,51.83,4.68,2.93,10.56,4.56,17.67,4.71,7.11.15,15.09-1.18,23.72-3.84,24.06-7.4,53.28-25.11,83.42-49.78,22.67-18.55,45.87-41.04,67.8-66.05,14.28-16.28,28.03-33.63,40.74-51.64,12.39-17.56,22.93-34.53,31.58-50.56,13.68-25.34,22.61-48.31,26.54-67.42,5.25-25.51,1.61-44.16-11.5-52.46-4.71-2.98-10.63-4.63-17.8-4.78ZM583.83,2573.26c-3.41,4.84-4.07,8.8-1.49,8.86,2.61.06,7.48-3.82,10.9-8.66,3.37-4.78,4.03-8.74,1.42-8.8-2.58-.05-7.45,3.82-10.83,8.6Z"/>
        <path class="cls-4" d="M352.64,2792.01l44.1,37.93c-11.26,3.44-21.67,5.21-30.96,5.01-9.28-.2-16.94-2.35-23.04-6.16l-44.1-37.93s0,0,0,0h0c4.58,2.86,10.03,4.78,16.38,5.65,2.12.29,4.34.46,6.66.51,9.28.2,19.7-1.57,30.96-5.01ZM720.88,2462.57c.31-1.39.61-2.76.88-4.11l-44.1-37.93c-.44,2.15-.98,4.39-1.52,6.61-.45,1.87-.93,3.76-1.44,5.67-.39,1.44-.79,2.9-1.22,4.37-.73,2.51-1.53,5.07-2.37,7.66-.41,1.28-.81,2.54-1.25,3.84-1.47,4.3-3.06,8.69-4.83,13.19-.27.69-.58,1.4-.86,2.09-1.7,4.25-3.55,8.59-5.51,13.01-.58,1.3-1.16,2.61-1.76,3.92-1.99,4.36-4.09,8.78-6.33,13.28-.21.42-.39.82-.6,1.23-2.05,4.08-4.19,8.21-6.45,12.4h0s44.1,37.93,44.1,37.93c2.25-4.19,4.4-8.32,6.45-12.4.04-.08.08-.16.12-.23.17-.34.31-.66.48-1.01,2.24-4.5,4.34-8.91,6.33-13.27.27-.6.6-1.22.87-1.82.33-.72.58-1.4.9-2.12,1.96-4.41,3.81-8.75,5.51-13,.21-.52.47-1.07.67-1.59.07-.17.12-.33.18-.5,1.77-4.5,3.36-8.89,4.83-13.2.13-.37.29-.77.42-1.14.31-.92.53-1.78.83-2.68.84-2.59,1.64-5.15,2.37-7.67.19-.67.44-1.37.63-2.04.22-.8.38-1.54.59-2.33.52-1.92.99-3.81,1.44-5.67.2-.82.45-1.69.63-2.5ZM549.79,2640.66c-3.25,3.71-6.52,7.36-9.8,10.99-.51.57-1.02,1.14-1.53,1.7-3.14,3.45-6.3,6.85-9.47,10.21-.75.8-1.51,1.59-2.27,2.38-2.7,2.84-5.42,5.65-8.14,8.43-.7.72-1.4,1.45-2.11,2.16-3.28,3.32-6.56,6.59-9.85,9.8-.79.77-1.59,1.53-2.38,2.3-2.57,2.49-5.15,4.96-7.73,7.38-1.11,1.05-2.23,2.09-3.34,3.13-2.39,2.22-4.78,4.41-7.18,6.58-1.07.97-2.14,1.95-3.22,2.91-2.92,2.61-5.85,5.17-8.77,7.7-.53.45-1.06.93-1.58,1.38-3.64,3.12-7.28,6.18-10.91,9.15l44.1,37.93c.32-.26.65-.53.97-.8,3.22-2.65,6.45-5.36,9.68-8.14.08-.07.17-.15.25-.22.53-.46,1.07-.93,1.6-1.39,2.47-2.13,4.95-4.28,7.42-6.48.44-.39.88-.8,1.32-1.19,1.08-.97,2.16-1.96,3.24-2.93,1.46-1.32,2.92-2.62,4.39-3.97.92-.85,1.84-1.73,2.77-2.59,1.12-1.04,2.24-2.09,3.36-3.15.84-.8,1.69-1.57,2.54-2.37,1.72-1.64,3.44-3.32,5.16-4.98.8-.77,1.6-1.53,2.4-2.31.28-.27.55-.53.83-.8,2.7-2.65,5.39-5.33,8.08-8.04.31-.32.63-.64.94-.96.7-.71,1.41-1.44,2.11-2.16,1.56-1.59,3.12-3.17,4.67-4.79,1.16-1.2,2.31-2.43,3.46-3.64.76-.79,1.51-1.58,2.27-2.38.52-.55,1.04-1.09,1.56-1.65,2.29-2.44,4.58-4.91,6.85-7.4.35-.38.7-.78,1.05-1.16.52-.57,1.03-1.15,1.55-1.72,1.26-1.39,2.52-2.77,3.77-4.17,2-2.24,3.99-4.49,5.97-6.76,0,0,0,0,.01-.01.01-.01.02-.02.03-.04h0s0,0,0,0l-44.1-37.93Z"/>
        <path class="cls-13" d="M298.64,2790.86l44.1,37.93c-1.41-.89-2.73-1.86-3.97-2.93l-44.1-37.93s0,0,0,0h0c1.24,1.06,2.56,2.04,3.97,2.93ZM724.45,2425.33c-.15-1.9-.36-3.74-.64-5.52-.02-.14-.06-.28-.08-.42-.05-.33-.13-.63-.19-.95-.22-1.26-.44-2.52-.74-3.71-.21-.87-.49-1.68-.74-2.51-.13-.44-.24-.88-.38-1.31-.09-.28-.16-.59-.25-.87-.52-1.51-1.1-2.95-1.75-4.33-.12-.27-.28-.5-.41-.77-.19-.39-.4-.75-.61-1.13-.37-.7-.71-1.43-1.12-2.09-.57-.92-1.2-1.76-1.84-2.61-.17-.23-.33-.49-.51-.72-.08-.1-.14-.22-.22-.32-.94-1.18-1.96-2.28-3.04-3.32-.41-.39-.83-.77-1.26-1.14l-44.1-37.93c1.66,1.43,3.16,3.03,4.52,4.78.18.23.33.49.51.72,1.09,1.46,2.07,3.04,2.96,4.71.2.38.42.74.61,1.13.92,1.87,1.73,3.86,2.41,5.97.14.42.25.87.38,1.31.59,1.99,1.09,4.06,1.47,6.23.06.32.13.62.19.95.39,2.4.64,4.94.79,7.55.04.64.06,1.29.08,1.94.09,2.41.09,4.89-.02,7.47-.02.39,0,.76-.03,1.15-.15,2.91-.45,5.94-.84,9.05-.11.91-.26,1.85-.4,2.77-.43,2.98-.91,6-1.55,9.14l44.1,37.93c.37-1.8.7-3.57,1-5.31.23-1.32.37-2.57.56-3.85.13-.92.28-1.84.39-2.74.06-.47.15-.97.21-1.44.28-2.47.49-4.88.62-7.22,0-.14,0-.26,0-.4.02-.39.01-.76.03-1.15.07-1.7.14-3.4.12-5.02,0-.84-.07-1.62-.1-2.44-.02-.65-.04-1.3-.08-1.94-.03-.53-.03-1.09-.07-1.61ZM448.83,2736.94c-1.36,1.05-2.71,2.09-4.06,3.12-3.11,2.37-6.21,4.66-9.3,6.9-1.48,1.08-2.96,2.18-4.44,3.22-2.74,1.95-5.45,3.77-8.16,5.61-1.95,1.32-3.91,2.69-5.84,3.96-1.58,1.04-3.12,1.96-4.69,2.96-3.68,2.34-7.33,4.61-10.93,6.73-2.38,1.4-4.73,2.73-7.08,4.03-1.82,1.01-3.64,2.04-5.43,2.99-2.58,1.37-5.11,2.61-7.63,3.85-1.65.81-3.32,1.67-4.95,2.42-2.75,1.27-5.42,2.39-8.1,3.5-1.33.55-2.7,1.18-4.01,1.7-3.95,1.54-7.82,2.92-11.59,4.08l44.1,37.93c3.76-1.16,7.64-2.54,11.59-4.08,1.31-.51,2.68-1.14,4.01-1.7,2.67-1.11,5.35-2.23,8.1-3.5,1.63-.75,3.3-1.61,4.95-2.42,2.53-1.24,5.05-2.48,7.63-3.85,1.79-.95,3.61-1.98,5.42-2.99,1.66-.92,3.29-1.76,4.97-2.73.7-.4,1.43-.9,2.13-1.31,3.6-2.12,7.24-4.38,10.91-6.72,1.2-.76,2.36-1.41,3.57-2.2.38-.24.76-.53,1.14-.77,1.93-1.26,3.88-2.63,5.82-3.95,2.16-1.47,4.3-2.85,6.47-4.39.57-.4,1.14-.84,1.71-1.24,1.46-1.04,2.93-2.13,4.4-3.2,1.92-1.4,3.83-2.74,5.76-4.18,1.19-.89,2.38-1.84,3.57-2.74,1.34-1.02,2.68-2.05,4.03-3.1,1.09-.85,2.18-1.65,3.27-2.51,3.14-2.47,6.28-5,9.43-7.59l-44.1-37.93c-4.25,3.49-8.48,6.82-12.69,10.09ZM634.6,2523.77c-3.3,5.68-6.78,11.45-10.42,17.27-3.05,4.89-6.24,9.83-9.53,14.81-.86,1.3-1.75,2.61-2.63,3.91-3.24,4.83-6.53,9.68-9.99,14.59-3.94,5.59-7.97,11.12-12.05,16.6-.36.48-.72.96-1.08,1.43-3.91,5.22-7.88,10.39-11.9,15.5-.2.25-.4.51-.6.77-4.14,5.24-8.33,10.41-12.56,15.51-.32.39-.65.78-.97,1.17-4.3,5.17-8.65,10.28-13.04,15.29-.01.01-.02.02-.03.04h0s44.1,37.93,44.1,37.93c1.89-2.16,3.77-4.33,5.64-6.52,1.78-2.07,3.55-4.16,5.31-6.26.72-.85,1.42-1.71,2.14-2.57.31-.37.62-.75.93-1.12.68-.81,1.36-1.62,2.03-2.44,1.65-2,3.29-4.02,4.93-6.05,1.63-2.02,3.25-4.04,4.86-6.08.25-.32.5-.64.76-.96.2-.26.41-.52.61-.78,1.19-1.52,2.39-3.03,3.57-4.56,1.72-2.22,3.43-4.44,5.13-6.68,1.07-1.41,2.13-2.84,3.19-4.25.36-.48.72-.95,1.08-1.43.43-.58.87-1.15,1.3-1.73,2.2-2.97,4.38-5.95,6.54-8.95,1.42-1.97,2.82-3.94,4.22-5.92,1.95-2.76,3.86-5.51,5.74-8.24,1.46-2.13,2.84-4.23,4.26-6.35.87-1.3,1.77-2.61,2.63-3.91,3.15-4.76,6.22-9.49,9.15-14.17.13-.21.25-.42.38-.63,3.64-5.83,7.12-11.59,10.42-17.27.01-.02.03-.05.04-.07,2.8-4.82,5.48-9.59,8.03-14.3.29-.53.57-1.06.86-1.59l-44.1-37.93c-2.82,5.25-5.8,10.57-8.93,15.96Z"/>
        <path class="cls-10" d="M387.73,2569.09c12.39-17.56,25.75-34.47,39.64-50.38l-15.89-15.83c-18.35,20.95-35.94,43.21-52.24,66.31-16.34,23.16-30.21,45.49-41.5,66.54l37.73-14.81c8.78-16.4,19.56-33.8,32.27-51.82ZM369.01,2568.69c3.37-4.78,8.25-8.65,10.83-8.6,2.61.06,1.96,4.02-1.42,8.8-3.41,4.84-8.29,8.71-10.9,8.66-2.58-.05-1.93-4.02,1.49-8.86ZM608.59,2351.58c-31.42,9.68-69.54,32.85-108.92,65.16l-4.36,35.44c30.38-24.99,59.86-42.95,84.13-50.46l29.15-50.15ZM556.32,2393.1c-1.66,4.23-6.18,9.52-10.12,11.89-1.31.78-2.39,1.14-3.19,1.13-1.62-.03-2.09-1.63-1.01-4.43,1.66-4.23,6.22-9.57,10.12-11.89,1.31-.78,2.39-1.14,3.19-1.13,1.62.03,2.09,1.63,1,4.43ZM329.42,2687.84l-45.89,35.23c-6.67,32.96-1.92,57.09,15.1,67.8l42.53-51.2c-13.08-8.19-16.8-26.6-11.74-51.82ZM306.61,2747c-2.84,2.76-5.51,4.29-7.14,4.26-.8-.02-1.34-.41-1.53-1.23-.53-2.47,2.43-7.78,6.71-11.96,2.82-2.76,5.5-4.29,7.13-4.26.8.02,1.35.41,1.54,1.23.57,2.41-2.44,7.78-6.71,11.96ZM662.59,2352.73l-41.45,49.89c13.11,8.31,16.75,26.95,11.5,52.47l45.02-34.56c6.75-33.01,1.96-57.09-15.07-67.8ZM657.55,2404.14c-2.84,2.76-5.51,4.29-7.14,4.26-.8-.02-1.34-.41-1.53-1.23-.53-2.47,2.44-7.78,6.71-11.96,2.82-2.76,5.5-4.29,7.13-4.26.8.02,1.35.41,1.53,1.23.57,2.41-2.44,7.78-6.71,11.96ZM407.82,2569.55c-52.98,75.08-63.12,136.65-22.65,137.51,40.47.86,116.23-59.31,169.2-134.39,52.98-75.08,63.12-136.65,22.65-137.51-40.47-.86-116.23,59.31-169.21,134.39ZM530.81,2525.77c-5.33,7.55-11.64,14.47-17.86,19.92,1.12-.47,2.2-.82,3.22-1.09,1.25-.31,2.45-.51,3.52-.48,9.64.21,7.23,14.87-5.4,32.76-12.62,17.89-30.67,32.23-40.32,32.02-6.95-.15-7.6-7.82-2.73-18.78-17.95,29.06-24.7,49.57-24.7,49.57l-13.64-.29-13.64-.29s21.97-20.19,44.96-49.14c-10.5,10.83-21.8,18.26-28.75,18.11-9.64-.21-7.23-14.87,5.4-32.76,12.62-17.89,30.67-32.23,40.32-32.02.49.01.93.06,1.36.14.5.12.95.29,1.39.48.62.3,1.16.7,1.6,1.2,1.55-5.55,5.04-12.54,10.37-20.08,12.62-17.89,30.67-32.23,40.32-32.02,9.64.2,7.23,14.87-5.4,32.76ZM352.64,2792.01c31.42-9.68,69.58-32.9,108.89-65.17l4.44-36.09c-30.14,24.67-59.35,42.38-83.42,49.78l-29.91,51.48ZM405.88,2749.11c1.66-4.23,6.22-9.57,10.12-11.89,1.31-.78,2.39-1.14,3.19-1.13,1.62.03,2.09,1.63,1.01,4.43-1.66,4.23-6.18,9.52-10.12,11.89-1.31.78-2.39,1.14-3.19,1.12-1.63-.03-2.11-1.63-1-4.43ZM574.51,2573.06c-12.71,18.02-26.46,35.36-40.74,51.64l16.02,15.95c18.27-20.9,35.9-43.15,52.24-66.31,16.3-23.1,30.14-45.44,41.5-66.54l-37.44,14.7c-8.65,16.02-19.2,33-31.58,50.56ZM593.24,2573.46c-3.41,4.84-8.29,8.71-10.9,8.66-2.58-.05-1.92-4.02,1.49-8.86,3.37-4.78,8.25-8.65,10.83-8.6,2.61.06,1.96,4.02-1.42,8.8Z"/>
        <path class="cls-15" d="M499.67,2416.75l-4.36,35.44c-22.74,18.71-46,41.36-67.95,66.52l-15.89-15.83c28.52-32.61,58.68-61.91,88.19-86.13ZM317.74,2635.73c-17.7,32.9-29.16,62.59-34.2,87.34l45.89-35.23c3.8-18.95,12.56-41.75,26.04-66.92l-37.72,14.81ZM608.59,2351.58l-29.15,50.15c8.7-2.69,16.73-4.04,23.89-3.89,7.17.15,13.09,1.8,17.8,4.78l41.45-49.89c-6.09-3.87-13.79-5.97-23.07-6.16-9.29-.2-19.66,1.51-30.93,5.01ZM358.83,2744.37c-7.1-.15-12.99-1.78-17.67-4.71l-42.53,51.2c6.1,3.81,13.76,5.96,23.04,6.16,9.29.2,19.7-1.57,30.96-5.01l29.91-51.48c-8.63,2.66-16.6,3.99-23.72,3.84ZM389.62,2715.69l-11.11,17.57c-4.49.86-8.72,1.29-12.67,1.2-3.95-.08-7.48-.67-10.62-1.7l13.65-17.51c2.8.91,5.92,1.47,9.45,1.54,3.52.08,7.33-.34,11.31-1.1M351.79,2685.47c-.03,3.95.29,7.62,1.03,10.97.75,3.32,1.89,6.2,3.35,8.69l-15.19,16.29c-1.62-2.8-2.88-6.05-3.72-9.8-.84-3.72-1.21-7.84-1.2-12.24l15.73-13.92M447.59,2687.51l-4.08,14.16c-6.11,4.27-12.19,8.25-18.18,11.83-6.02,3.6-11.76,6.7-17.23,9.35l7.91-16.45c4.88-2.35,9.99-5.1,15.34-8.3,5.36-3.21,10.78-6.76,16.24-10.6M369.36,2625.07c-2.84,5.9-5.42,11.74-7.66,17.44-2.22,5.69-4.04,11.06-5.5,16.14l-15.18,10.64c1.64-5.71,3.69-11.74,6.2-18.14,2.5-6.38,5.38-12.91,8.56-19.54l13.58-6.55M514.52,2628.15l4.07,6.92c-6.13,6.57-12.42,13.03-18.86,19.32-6.47,6.32-12.87,12.26-19.2,17.86l.07-10.97c5.64-5,11.35-10.28,17.1-15.9,5.75-5.62,11.36-11.39,16.81-17.24M409.07,2547.64l7.82,2.53c-4.92,6.31-9.7,12.73-14.31,19.26-4.61,6.54-8.9,12.97-12.87,19.27l-11.13,2.15c4.5-7.1,9.31-14.3,14.48-21.63,5.17-7.33,10.54-14.54,16.02-21.59M583.62,2551.36c-4.49,7.07-9.31,14.3-14.48,21.63-5.17,7.33-10.52,14.52-16.02,21.59l-7.8-2.56c4.89-6.28,9.69-12.7,14.3-19.24,4.61-6.54,8.89-12.97,12.89-19.29l11.11-2.13M481.67,2469.96l-.07,10.97c-5.64,5-11.35,10.28-17.1,15.9-5.75,5.62-11.36,11.4-16.81,17.24l-4.06-6.94c6.11-6.55,12.4-13,18.86-19.32,6.45-6.3,12.85-12.23,19.19-17.84M621.18,2472.93c-1.65,5.71-3.7,11.74-6.19,18.12-2.52,6.4-5.39,12.93-8.56,19.54l-13.59,6.57c2.84-5.9,5.42-11.74,7.66-17.44,2.22-5.69,4.04-11.06,5.5-16.14l15.18-10.64M554.11,2419.37l-7.91,16.45c-4.87,2.35-9.98,5.08-15.34,8.3-5.35,3.19-10.78,6.76-16.23,10.58l4.07-14.14c6.12-4.29,12.19-8.25,18.2-11.85,6-3.58,11.74-6.67,17.21-9.33M621.22,2420.8c1.62,2.8,2.88,6.05,3.73,9.77.82,3.75,1.21,7.84,1.18,12.27l-15.71,13.89c.02-3.93-.29-7.62-1.04-10.94-.75-3.32-1.89-6.21-3.35-8.69l15.19-16.29M596.36,2407.76c3.95.08,7.47.67,10.64,1.68l-13.66,17.53c-2.79-.93-5.92-1.47-9.45-1.54-3.52-.07-7.31.31-11.31,1.1l11.12-17.59c4.46-.84,8.71-1.27,12.66-1.18M536.21,2493.01c-9.64-.21-27.69,14.13-40.32,32.02-5.33,7.55-8.82,14.53-10.37,20.08-.44-.5-.98-.89-1.6-1.2-.43-.19-.88-.35-1.39-.48-.43-.08-.87-.13-1.36-.14-9.64-.2-27.69,14.13-40.32,32.02-12.62,17.89-15.04,32.56-5.4,32.76,6.95.15,18.26-7.27,28.75-18.11-22.99,28.95-44.96,49.14-44.96,49.14l13.64.29,13.64.29s6.75-20.52,24.7-49.57c-4.87,10.95-4.22,18.63,2.73,18.78,9.64.21,27.69-14.13,40.32-32.02,12.62-17.89,15.04-32.56,5.4-32.76-1.07-.02-2.27.17-3.52.48-1.02.27-2.09.63-3.22,1.09,6.22-5.45,12.54-12.38,17.86-19.92,12.62-17.89,15.04-32.56,5.4-32.76M632.64,2455.09c-3.94,19.11-12.86,42.08-26.54,67.42l37.44-14.7c17.66-32.84,29.12-62.53,34.13-87.28l-45.02,34.56ZM465.97,2690.76l-4.44,36.09c29.54-24.22,59.7-53.52,88.27-86.19l-16.02-15.95c-21.94,25.01-45.13,47.5-67.8,66.05Z"/>
      </g>
      <g>
        <path class="cls-28" d="M204.85,1860c-1.69-3.28-1.75-5.81-.12-5.62,1.61.19,4.32,3.03,6.01,6.31,1.71,3.32,1.77,5.85.16,5.66-1.63-.19-4.34-3.04-6.05-6.36ZM117.34,1741.34c-.67-2.79-3.05-6.52-5.28-8.31-.75-.6-1.39-.92-1.89-.98-1.02-.12-1.45.84-1.01,2.68.67,2.79,3.03,6.48,5.28,8.31.75.6,1.39.92,1.89.98,1.02.12,1.45-.84,1.01-2.68ZM230.97,1969.39c-.57,1.45.84,5.07,3.14,8.05,1.53,1.97,3.07,3.16,4.08,3.28.5.06.87-.14,1.06-.63.54-1.49-.84-5.07-3.14-8.05-1.52-1.97-3.06-3.16-4.08-3.28-.5-.06-.88.14-1.07.63ZM41.86,1724.73c-.57,1.45.84,5.07,3.14,8.05,1.53,1.97,3.06,3.16,4.08,3.28.5.06.87-.14,1.06-.63.55-1.49-.84-5.07-3.14-8.05-1.52-1.97-3.06-3.16-4.08-3.28-.5-.06-.88.14-1.07.63ZM163.78,1963.48c.67,2.79,3.03,6.48,5.28,8.31.75.6,1.39.92,1.9.98,1.02.12,1.46-.84,1.01-2.68-.67-2.79-3.05-6.52-5.28-8.3-.75-.6-1.39-.92-1.89-.98-1.02-.12-1.45.84-1.01,2.68ZM67.86,1735.01c-8.91,4.04-12.81,15.36-11.76,31.74.79,12.27,4.35,27.39,10.68,44.4,4,10.76,9.1,22.27,15.3,34.31,6.36,12.36,13.43,24.38,20.92,35.79,11.51,17.52,24.02,33.59,36.55,47.15,16.66,18.03,33.35,31.63,47.72,38.36,5.16,2.41,10.02,3.94,14.47,4.47,4.45.53,8.26.03,11.44-1.4,8.88-3.97,12.81-15.14,11.86-31.32-.72-12.16-4.2-27.16-10.41-44.05-4.05-11-9.25-22.81-15.62-35.17-6.2-12.04-13.06-23.76-20.34-34.91-11.5-17.62-24.04-33.79-36.6-47.46-16.78-18.25-33.61-32.04-48.11-38.84-5.2-2.44-10.09-3.98-14.57-4.51-4.49-.53-8.33-.02-11.53,1.43ZM70.25,1838.47c-1.63-.19-1.57,2.34.12,5.62,1.71,3.32,4.41,6.16,6.05,6.36,1.61.19,1.55-2.34-.16-5.66-1.69-3.28-4.39-6.12-6.01-6.31Z"/>
        <path class="cls-24" d="M220.34,2007.35c1.45.17,2.85.26,4.2.26,4.04.01,7.61-.71,10.72-2.1h0s0,0,0,0l-30.84,19.82c-4.14,1.85-9.11,2.52-14.92,1.83-5.81-.69-12.16-2.7-18.89-5.83l30.84-19.82c6.72,3.13,13.07,5.15,18.89,5.83ZM.55,1765.33c.12,1.2.25,2.43.4,3.67.06.51.1.99.17,1.51.06.43.15.89.22,1.33.24,1.63.51,3.3.81,4.99.1.59.17,1.15.28,1.75.05.24.11.51.16.75.54,2.82,1.15,5.7,1.86,8.66.03.11.04.22.07.33.08.34.2.71.28,1.05.69,2.8,1.46,5.67,2.3,8.6.14.48.23.92.38,1.4.12.39.26.81.38,1.21.86,2.89,1.79,5.83,2.79,8.84.08.23.13.44.21.67.02.05.04.1.06.16.92,2.73,1.9,5.49,2.94,8.31l30.84-19.82h0c-1.04-2.81-2.02-5.58-2.94-8.31-.09-.28-.17-.54-.27-.82-1.01-3-1.93-5.95-2.79-8.84-.26-.87-.51-1.74-.75-2.6-.84-2.92-1.61-5.8-2.3-8.6-.11-.46-.24-.93-.35-1.38-.71-2.96-1.32-5.84-1.86-8.66-.16-.85-.3-1.67-.45-2.51-.3-1.69-.57-3.36-.81-4.99-.14-.95-.26-1.9-.38-2.83-.15-1.24-.29-2.46-.4-3.67-.14-1.43-.29-2.88-.37-4.26L.18,1761.08c.05.87.12,1.75.19,2.64.04.52.13,1.08.18,1.62ZM60.77,1909.65h0,0s.01.02.02.03c0,0,0,0,0,0,1.04,1.59,2.09,3.17,3.14,4.74.66.98,1.32,1.95,1.99,2.93.27.4.54.81.82,1.21.19.27.37.55.56.82,1.2,1.75,2.41,3.49,3.63,5.21.28.39.56.77.83,1.16.4.56.8,1.12,1.21,1.69.61.86,1.23,1.72,1.84,2.58.83,1.14,1.67,2.27,2.5,3.4.38.51.75,1.02,1.13,1.53.17.23.33.46.5.68,1.44,1.93,2.89,3.84,4.34,5.72.15.19.3.38.45.57.43.56.86,1.1,1.29,1.65.93,1.19,1.85,2.39,2.79,3.56.46.58.92,1.13,1.38,1.7.61.76,1.22,1.51,1.83,2.26.5.62,1,1.25,1.5,1.86.79.97,1.59,1.91,2.39,2.86.59.71,1.18,1.42,1.77,2.12.24.28.48.58.72.86,1.35,1.59,2.71,3.14,4.07,4.69.29.33.58.68.88,1.01.05.05.09.11.14.16,1.78,2.01,3.55,3.99,5.33,5.92.18.19.36.39.54.58l30.84-19.82c-2-2.17-4.01-4.4-6.01-6.67-.29-.33-.58-.67-.87-1-1.6-1.83-3.2-3.68-4.8-5.57-.59-.69-1.17-1.4-1.75-2.1-1.3-1.56-2.61-3.13-3.9-4.73-.61-.74-1.21-1.49-1.81-2.24-1.4-1.74-2.79-3.5-4.18-5.28-.43-.55-.86-1.09-1.28-1.64-1.77-2.3-3.54-4.62-5.29-6.98-.38-.51-.75-1.02-1.13-1.53-1.46-1.97-2.9-3.96-4.34-5.97-.4-.56-.81-1.12-1.21-1.69-1.69-2.37-3.36-4.77-5.02-7.2-.27-.4-.54-.8-.81-1.19-1.73-2.55-3.46-5.11-5.16-7.71l-30.84,19.82Z"/>
        <path class="cls-19" d="M238,2004.03h0s0,0,0,0l-30.84,19.82c-.87.56-1.78,1.05-2.74,1.48l30.84-19.82c.96-.43,1.87-.92,2.74-1.48ZM1.22,1741.16c-.08.39-.15.8-.22,1.2-.09.51-.2.99-.28,1.52-.15,1.01-.26,2.08-.36,3.14-.02.24-.06.47-.08.72,0,.09-.02.17-.03.25-.12,1.47-.2,2.99-.24,4.56,0,.3,0,.62,0,.91,0,.57,0,1.16,0,1.75,0,.82-.02,1.61.01,2.45.03,1.11.09,2.25.16,3.4l30.84-19.82c-.13-2.02-.16-3.94-.17-5.84,0-.59-.02-1.19,0-1.76.03-1.97.11-3.89.27-5.72.02-.25.06-.48.08-.72.16-1.62.38-3.17.64-4.66.07-.4.14-.81.22-1.2.32-1.62.7-3.18,1.15-4.65.06-.2.14-.38.2-.58.43-1.32.92-2.57,1.46-3.76.12-.26.23-.53.35-.78.61-1.26,1.29-2.43,2.03-3.52.15-.23.32-.43.48-.65.7-.96,1.45-1.86,2.26-2.68.13-.13.25-.28.38-.41,1-.97,2.08-1.84,3.24-2.59l-30.84,19.82c-.3.19-.6.39-.89.6-.77.55-1.49,1.15-2.19,1.81-.06.06-.11.12-.17.18-.13.13-.25.27-.38.4-.47.48-.94.95-1.37,1.47-.31.38-.59.8-.88,1.21-.16.22-.32.43-.48.65-.1.15-.22.29-.32.44-.52.81-1.01,1.66-1.47,2.55-.08.17-.15.35-.23.52-.12.25-.23.52-.35.78-.23.5-.47.98-.68,1.51-.29.72-.53,1.49-.78,2.25-.06.2-.14.38-.2.58-.03.09-.06.17-.09.25-.33,1.09-.62,2.22-.88,3.39-.07.32-.12.67-.18,1ZM139.18,1951.33l-30.84,19.82c1.74,1.89,3.49,3.74,5.23,5.56.61.63,1.22,1.23,1.82,1.85.75.77,1.5,1.53,2.25,2.29.66.67,1.33,1.37,1.99,2.02,1.08,1.07,2.15,2.07,3.23,3.11.82.79,1.65,1.6,2.47,2.38.32.3.64.63.96.93,1.23,1.15,2.44,2.2,3.66,3.3,1.1.99,2.2,2.02,3.29,2.97.21.19.43.4.64.58.68.6,1.35,1.1,2.04,1.68,2.09,1.78,4.16,3.51,6.22,5.15.4.32.81.69,1.21,1,.96.75,1.91,1.42,2.86,2.14,1.04.79,2.09,1.59,3.12,2.34,1.49,1.08,2.96,2.08,4.43,3.07.96.65,1.93,1.33,2.88,1.94,1.6,1.03,3.18,1.97,4.75,2.89.78.46,1.58.97,2.36,1.41,2.33,1.31,4.63,2.51,6.87,3.56l30.84-19.82c-2.25-1.05-4.54-2.25-6.88-3.56-.78-.44-1.57-.95-2.36-1.41-1.57-.93-3.15-1.86-4.75-2.89-.95-.61-1.92-1.29-2.88-1.94-1.47-.99-2.94-1.99-4.43-3.07-1.04-.75-2.08-1.55-3.13-2.34-1.35-1.02-2.7-2.05-4.06-3.14-2.06-1.64-4.15-3.38-6.24-5.16-.89-.76-1.77-1.47-2.67-2.26-1.09-.96-2.2-1.99-3.3-2.98-1.53-1.39-3.06-2.76-4.6-4.21-.83-.78-1.66-1.6-2.49-2.4-1.73-1.67-3.46-3.37-5.2-5.12-.75-.76-1.51-1.52-2.26-2.3-2.35-2.41-4.69-4.86-7.04-7.41ZM44.7,1798.71l-30.84,19.82c.13.35.26.71.4,1.07,1.18,3.16,2.44,6.37,3.76,9.63,0,.02.01.03.02.05,1.56,3.83,3.23,7.74,5,11.69.06.14.12.28.18.43,1.42,3.18,2.92,6.4,4.47,9.65.42.89.87,1.78,1.3,2.67.7,1.44,1.38,2.88,2.1,4.33.93,1.87,1.89,3.75,2.86,5.65.7,1.36,1.41,2.71,2.12,4.07,1.09,2.06,2.19,4.11,3.3,6.16.22.4.44.79.66,1.19.18.33.36.66.55.99.54.98,1.08,1.96,1.62,2.93.87,1.55,1.74,3.09,2.62,4.62.61,1.06,1.22,2.11,1.83,3.16.1.18.21.36.31.54.13.22.26.45.39.67.83,1.41,1.66,2.82,2.5,4.22.84,1.41,1.69,2.81,2.55,4.2.35.57.7,1.13,1.05,1.7.16.26.32.52.49.78.37.6.74,1.2,1.11,1.79.92,1.47,1.84,2.92,2.77,4.37.98,1.53,1.96,3.05,2.95,4.56l30.84-19.82h0s-.01-.02-.02-.03c-2.3-3.52-4.57-7.08-6.8-10.69-.17-.27-.34-.54-.5-.81-2.2-3.56-4.36-7.15-6.49-10.78-.1-.18-.21-.36-.31-.53-2.07-3.54-4.09-7.11-6.08-10.72-.18-.33-.37-.66-.55-.99-2.07-3.78-4.1-7.58-6.07-11.41-1.73-3.36-3.36-6.68-4.96-9.98-.43-.89-.88-1.79-1.3-2.67-1.62-3.39-3.18-6.76-4.65-10.07-1.76-3.95-3.43-7.86-5-11.69-1.48-3.64-2.88-7.22-4.18-10.74Z"/>
        <path class="cls-25" d="M214.63,1894.47l22.25,12.54c-5.21-14.12-11.91-29.27-20.09-45.16-8.16-15.84-17.2-31.27-26.82-45.95l-11.3,8.49c7.28,11.14,14.14,22.87,20.34,34.91,6.36,12.36,11.57,24.16,15.62,35.16ZM210.9,1866.35c-1.63-.19-4.34-3.04-6.05-6.36-1.69-3.28-1.75-5.81-.12-5.62,1.61.19,4.32,3.03,6.01,6.31,1.71,3.32,1.77,5.85.16,5.66ZM93.97,1738.1c14.49,6.81,31.33,20.59,48.11,38.84l.38-22.5c-21.76-23.61-43.53-41.4-62.3-50.19l13.81,33.85ZM110.17,1732.05c.5.06,1.14.38,1.89.98,2.23,1.79,4.61,5.52,5.28,8.31.43,1.84,0,2.8-1.01,2.68-.5-.06-1.14-.38-1.89-.98-2.25-1.83-4.61-5.52-5.28-8.31-.43-1.84,0-2.8,1.01-2.68ZM213.19,1969.84l22.07,35.67c11.56-5.2,16.63-19.85,15.35-41l-25.56-25.99c.96,16.19-2.98,27.35-11.86,31.32ZM230.97,1969.39c.19-.49.56-.69,1.07-.63,1.02.12,2.56,1.31,4.08,3.28,2.3,2.98,3.69,6.56,3.14,8.05-.19.49-.56.69-1.06.63-1.02-.12-2.55-1.31-4.08-3.28-2.3-2.98-3.71-6.6-3.14-8.05ZM31.02,1741.25l25.09,25.5c-1.05-16.38,2.85-27.7,11.76-31.74l-21.52-34.76c-11.56,5.2-16.66,19.81-15.33,41ZM41.86,1724.73c.19-.49.56-.69,1.07-.63,1.02.12,2.56,1.31,4.08,3.28,2.3,2.98,3.69,6.56,3.14,8.05-.19.49-.56.69-1.06.63-1.02-.12-2.55-1.31-4.08-3.28-2.3-2.98-3.71-6.6-3.14-8.05ZM92.56,1759.17c-25.34-3-24.38,36.32,2.13,87.81,26.51,51.49,68.54,95.67,93.88,98.66,25.34,3,24.38-36.32-2.13-87.81-26.51-51.49-68.54-95.67-93.88-98.66ZM112.99,1798.85c6.04.71,16.05,11.24,22.37,23.51,2.67,5.18,4.24,9.84,4.72,13.44.32-.27.69-.47,1.1-.61.29-.08.58-.14.91-.18.27,0,.56,0,.86.03,6.04.71,16.05,11.24,22.37,23.51,6.32,12.27,6.54,21.64.51,20.92-4.35-.51-10.76-6.13-16.37-13.81,11.82,20.08,23.77,34.6,23.77,34.6l-8.54-1.01-8.54-1.01s-2.42-13.4-11.09-33.1c2.09,7.26,1.01,12-3.34,11.48-6.04-.71-16.05-11.24-22.37-23.51-6.32-12.27-6.54-21.64-.51-20.92.67.08,1.4.31,2.15.61.61.26,1.25.57,1.91.96-3.41-3.95-6.74-8.82-9.41-14-6.32-12.27-6.54-21.64-.51-20.92ZM187.28,1966.77c-14.37-6.72-31.06-20.33-47.72-38.36l-.38,22.92c21.72,23.57,43.51,41.4,62.28,50.19l-14.18-34.75ZM170.96,1972.77c-.5-.06-1.15-.38-1.9-.98-2.25-1.83-4.61-5.52-5.28-8.31-.43-1.84,0-2.8,1.01-2.68.5.06,1.14.38,1.89.98,2.23,1.79,4.61,5.52,5.28,8.3.45,1.84.01,2.8-1.01,2.68ZM66.79,1811.16l-22.08-12.44c5.25,14.16,11.93,29.31,20.09,45.16,8.18,15.88,17.24,31.31,26.82,45.95l11.39-8.56c-7.49-11.41-14.56-23.44-20.92-35.79-6.2-12.04-11.3-23.56-15.3-34.31ZM70.25,1838.47c1.61.19,4.32,3.03,6.01,6.31,1.71,3.32,1.77,5.85.16,5.66-1.63-.19-4.34-3.04-6.05-6.36-1.69-3.28-1.75-5.81-.12-5.62Z"/>
        <path class="cls-6" d="M189.98,1815.9l-11.3,8.49c-11.5-17.62-24.04-33.79-36.6-47.46l.38-22.5c16.31,17.7,32.57,38.62,47.53,61.46ZM214.63,1894.47c6.21,16.89,9.69,31.89,10.41,44.05l25.56,25.99c-.99-15.89-5.55-35.42-13.72-57.5l-22.25-12.54ZM61.29,1698.42c-5.81-.69-10.8-.05-14.94,1.83l21.52,34.76c3.2-1.45,7.04-1.96,11.53-1.43,4.49.53,9.38,2.07,14.57,4.51l-13.81-33.85c-6.73-3.17-13.05-5.14-18.87-5.83ZM187.28,1966.77l14.18,34.75c6.72,3.13,13.07,5.15,18.89,5.83,5.81.69,10.78.01,14.92-1.83l-22.07-35.67c-3.18,1.42-6.99,1.92-11.44,1.4-4.45-.53-9.31-2.05-14.47-4.47ZM185.04,1950.64c2.42.82,4.76,1.41,6.96,1.67,2.21.26,4.2.19,6.03-.14l6.99,12.12c-2.05.37-4.31.43-6.78.13-2.47-.29-5.08-.93-7.81-1.86l-5.4-11.93M211.28,1935.08l8.6,10.06c-.38,2.75-.97,5.29-1.82,7.54-.85,2.27-1.92,4.18-3.18,5.79l-8.06-11.5c1.13-1.43,2.09-3.13,2.85-5.13.75-2.02,1.27-4.29,1.6-6.75M151.31,1927.99c3.08,2.87,6.15,5.56,9.21,8.03,3.06,2.46,6.01,4.62,8.85,6.52l3.5,10.96c-3.18-2.13-6.49-4.57-9.94-7.34-3.43-2.76-6.88-5.77-10.32-8.97l-1.31-9.2M205.6,1895.85l7.9,5.27c1.41,4.42,2.63,8.74,3.64,12.95,1.01,4.22,1.76,8.16,2.29,11.86l-8.55-7.97c-.47-3.3-1.14-6.81-2.03-10.56-.9-3.75-2-7.62-3.26-11.55M114.72,1885.1c2.89,4.13,5.89,8.22,8.99,12.23,3.1,4.01,6.2,7.81,9.29,11.42l-.92,6.85c-3.46-4.05-6.94-8.32-10.42-12.83-3.47-4.49-6.83-9.07-10.08-13.71l3.15-3.96M187.57,1844.05c2.81,4.88,5.53,9.85,8.11,14.88,2.59,5.02,4.96,9.94,7.15,14.76l-6.76-2.32c-1.93-4.28-4.05-8.67-6.35-13.15-2.31-4.48-4.73-8.91-7.25-13.27l5.1-.9M78.29,1831.13l6.75,2.3c1.95,4.3,4.05,8.69,6.36,13.17,2.31,4.48,4.74,8.91,7.24,13.26l-5.09.91c-2.81-4.9-5.53-9.85-8.11-14.88-2.59-5.03-4.97-9.96-7.15-14.76M149.04,1789.23c3.47,4.05,6.94,8.32,10.42,12.81,3.48,4.51,6.84,9.09,10.08,13.71l-3.14,3.98c-2.89-4.13-5.89-8.22-8.99-12.23-3.1-4.01-6.2-7.81-9.29-11.42l.92-6.85M61.7,1778.89l8.54,7.97c.47,3.3,1.14,6.81,2.03,10.56.9,3.75,2,7.62,3.26,11.55l-7.91-5.29c-1.4-4.4-2.63-8.73-3.64-12.94-1-4.2-1.74-8.14-2.28-11.85M108.24,1751.32c3.18,2.13,6.49,4.57,9.93,7.33,3.44,2.77,6.88,5.77,10.32,8.99l1.3,9.18c-3.07-2.86-6.15-5.56-9.21-8.02-3.07-2.47-6.01-4.62-8.85-6.52l-3.5-10.96M66.23,1746.35l8.06,11.5c-1.13,1.43-2.09,3.13-2.85,5.13-.76,2.01-1.27,4.29-1.61,6.74l-8.6-10.04c.37-2.76.97-5.29,1.81-7.55.86-2.25,1.93-4.17,3.18-5.77M82.89,1740.38c2.47.29,5.09.93,7.8,1.84l5.41,11.95c-2.43-.84-4.76-1.41-6.96-1.67-2.21-.26-4.21-.2-6.03.14l-7-12.14c2.06-.35,4.31-.41,6.79-.12M112.99,1798.85c-6.04-.71-5.81,8.65.51,20.92,2.66,5.18,6,10.05,9.41,14-.66-.39-1.3-.71-1.91-.96-.75-.3-1.49-.53-2.15-.61-6.04-.71-5.81,8.65.51,20.92,6.32,12.27,16.33,22.79,22.37,23.51,4.35.52,5.43-4.22,3.34-11.48,8.67,19.71,11.09,33.1,11.09,33.1l8.54,1.01,8.54,1.01s-11.95-14.52-23.77-34.6c5.61,7.68,12.01,13.3,16.37,13.81,6.04.71,5.81-8.65-.51-20.92-6.32-12.27-16.33-22.79-22.37-23.51-.3-.04-.59-.04-.86-.03-.32.03-.62.1-.91.18-.41.14-.78.33-1.1.61-.48-3.6-2.05-8.26-4.72-13.44-6.32-12.27-16.33-22.79-22.37-23.51M31.02,1741.25c.97,15.88,5.53,35.42,13.68,57.46l22.08,12.44c-6.32-17.01-9.89-32.13-10.68-44.4l-25.09-25.5ZM103,1881.27l-11.39,8.56c14.98,22.88,31.24,43.8,47.57,61.51l.38-22.92c-12.53-13.56-25.05-29.62-36.55-47.15Z"/>
      </g>
      <g>
        <path class="cls-26" d="M507.92,12.13c-3.69.32-6.06-.58-5.26-2.02.79-1.43,4.46-2.86,8.14-3.19,3.73-.33,6.11.57,5.32,2-.8,1.44-4.47,2.88-8.2,3.21ZM364.51,48.42c-2.84-.44-7.21.36-9.72,1.75-.84.47-1.38.94-1.63,1.39-.5.9.23,1.66,2.1,1.96,2.84.44,7.17-.35,9.72-1.75.84-.47,1.38-.94,1.63-1.38.5-.9-.23-1.66-2.1-1.96ZM619.44,29.35c1.14,1.08,5.03,1.14,8.67.14,2.41-.67,4.1-1.65,4.6-2.55.24-.44.2-.87-.18-1.22-1.18-1.07-5.03-1.14-8.67-.14-2.41.66-4.09,1.64-4.59,2.54-.25.44-.2.87.18,1.23ZM320.45,112.24c1.14,1.08,5.03,1.14,8.67.13,2.41-.67,4.1-1.65,4.6-2.55.24-.44.2-.87-.18-1.22-1.18-1.07-5.03-1.14-8.67-.14-2.4.66-4.09,1.64-4.59,2.54-.25.44-.2.87.18,1.23ZM588.47,89.52c2.84.44,7.17-.35,9.72-1.76.84-.47,1.38-.94,1.63-1.39.5-.9-.22-1.67-2.11-1.95-2.84-.44-7.21.36-9.72,1.75-.84.47-1.38.94-1.63,1.38-.5.9.23,1.66,2.1,1.96ZM339.87,91.98c.37,9.81,9.41,17.72,25.03,22.96,11.7,3.92,27.09,6.34,45.29,6.92,11.51.36,24.14,0,37.68-1.2,13.89-1.22,27.74-3.23,41.18-5.86,20.64-4.04,40.31-9.58,57.66-16.08,23.07-8.64,42.03-18.98,53.73-29.78,4.2-3.88,7.46-7.81,9.64-11.75,2.18-3.93,3.16-7.66,3.04-11.16-.32-9.75-9.2-17.64-24.6-22.89-11.57-3.95-26.82-6.4-44.87-7.03-11.75-.41-24.7-.05-38.59,1.17-13.54,1.19-27.03,3.12-40.14,5.66-20.73,4-40.51,9.52-57.97,16-23.32,8.67-42.51,19.08-54.32,29.96-4.24,3.9-7.53,7.86-9.72,11.83-2.2,3.97-3.18,7.73-3.04,11.25ZM436.88,129c-.8,1.44,1.58,2.35,5.26,2.02,3.73-.33,7.4-1.76,8.2-3.21.79-1.43-1.58-2.33-5.32-2-3.69.32-7.35,1.76-8.14,3.19Z"/>
        <path class="cls-7" d="M650.67,53.62c.71-1.28,1.32-2.55,1.84-3.8,1.55-3.75,2.23-7.34,2.12-10.75h0s0,0,0,0l6.72,36.16c.15,4.55-1.11,9.42-3.95,14.56-2.84,5.14-7.12,10.27-12.58,15.33l-6.72-36.16c5.46-5.06,9.74-10.19,12.58-15.33ZM342.51,166.01c1.16.35,2.35.69,3.56,1.01.5.13.96.29,1.46.42.42.11.89.2,1.31.3,1.61.4,3.26.78,4.94,1.14.59.13,1.13.28,1.73.4.24.05.51.09.76.13,2.82.57,5.73,1.09,8.75,1.55.11.02.22.04.33.06.35.05.73.09,1.08.14,2.86.42,5.82.79,8.86,1.12.49.05.94.13,1.44.18.41.04.86.06,1.27.1,3.02.3,6.09.55,9.27.76.24.02.46.04.7.06.05,0,.11,0,.17,0,2.88.18,5.82.32,8.83.42l-6.72-36.16h0c-3-.1-5.95-.24-8.83-.42-.29-.02-.57-.05-.86-.06-3.17-.2-6.26-.46-9.27-.76-.91-.09-1.81-.19-2.7-.29-3.04-.33-6-.7-8.86-1.12-.47-.07-.95-.12-1.42-.2-3.02-.46-5.93-.99-8.75-1.55-.85-.17-1.67-.36-2.5-.54-1.68-.36-3.33-.74-4.94-1.14-.94-.23-1.87-.47-2.78-.72-1.21-.33-2.4-.67-3.56-1.02-1.39-.42-2.78-.83-4.1-1.27l6.72,36.16c.83.28,1.67.56,2.53.82.5.16,1.06.29,1.57.45ZM499.4,164.8h0s0,0,0,0c0,0,.02,0,.03,0,0,0,0,0,.01,0,1.87-.36,3.73-.74,5.59-1.12,1.16-.24,2.32-.49,3.48-.74.48-.1.96-.2,1.43-.3.32-.07.65-.14.97-.21,2.08-.45,4.16-.92,6.22-1.4.47-.11.93-.22,1.4-.33.68-.16,1.35-.32,2.02-.48,1.03-.25,2.07-.48,3.09-.73,1.38-.34,2.74-.69,4.1-1.03.62-.16,1.24-.31,1.85-.47.27-.07.55-.14.82-.21,2.34-.61,4.66-1.23,6.96-1.86.24-.06.47-.13.7-.2.68-.19,1.35-.38,2.03-.58,1.46-.41,2.92-.82,4.36-1.24.71-.21,1.4-.42,2.1-.63.93-.28,1.86-.56,2.79-.84.76-.23,1.54-.46,2.29-.69,1.2-.37,2.37-.76,3.56-1.14.88-.28,1.76-.56,2.64-.84.35-.12.72-.23,1.07-.34,1.99-.65,3.95-1.32,5.9-2,.42-.14.85-.28,1.27-.43.07-.02.13-.05.2-.07,2.54-.89,5.05-1.79,7.53-2.71.25-.09.5-.18.74-.28l-6.72-36.16c-2.78,1.04-5.6,2.05-8.47,3.05-.41.14-.84.28-1.26.43-2.31.8-4.64,1.58-6.99,2.35-.86.28-1.74.56-2.61.83-1.94.62-3.9,1.23-5.88,1.83-.92.28-1.84.56-2.77.83-2.15.64-4.31,1.26-6.49,1.88-.67.19-1.34.38-2.01.57-2.8.78-5.64,1.53-8.49,2.27-.61.16-1.24.31-1.85.47-2.38.6-4.78,1.19-7.19,1.77-.67.16-1.35.32-2.02.48-2.84.67-5.71,1.31-8.59,1.93-.47.1-.94.2-1.42.3-3.02.64-6.06,1.27-9.12,1.87l6.72,36.16Z"/>
        <path class="cls-2" d="M654.29,35.96h0s0,0,0,0l6.72,36.16c.19,1.02.3,2.05.34,3.1l-6.72-36.16c-.04-1.05-.15-2.09-.34-3.1ZM320.31,156.23c.34.22.69.44,1.03.66.44.28.85.56,1.3.83.89.52,1.83,1.03,2.78,1.53.22.11.42.24.64.35.08.04.15.08.22.12,1.32.67,2.7,1.32,4.14,1.96.27.12.58.23.85.34.53.22,1.08.44,1.63.66.76.31,1.49.63,2.28.92,1.05.39,2.12.77,3.22,1.14l-6.72-36.16c-1.93-.65-3.72-1.35-5.49-2.06-.55-.22-1.11-.44-1.64-.66-1.82-.78-3.58-1.58-5.21-2.42-.22-.11-.42-.24-.64-.35-1.44-.76-2.8-1.55-4.09-2.36-.35-.22-.7-.44-1.03-.66-1.38-.92-2.69-1.86-3.88-2.83-.16-.13-.3-.27-.46-.4-1.07-.9-2.04-1.83-2.94-2.79-.2-.21-.4-.41-.59-.62-.93-1.04-1.77-2.12-2.5-3.22-.15-.23-.28-.46-.43-.69-.63-1.02-1.18-2.05-1.63-3.11-.07-.17-.16-.33-.23-.51-.52-1.3-.92-2.63-1.17-3.99l6.72,36.16c.07.35.14.7.22,1.05.22.92.5,1.83.85,2.72.03.08.07.15.1.22.07.17.16.34.23.5.26.62.52,1.23.85,1.84.23.43.52.85.79,1.28.14.23.27.46.43.69.1.15.18.31.29.47.55.79,1.16,1.57,1.81,2.33.12.14.27.28.4.42.19.21.4.42.59.63.38.4.73.81,1.14,1.2.56.54,1.18,1.06,1.8,1.58.16.13.3.27.46.41.07.06.13.12.2.18.89.72,1.83,1.42,2.82,2.1.27.19.58.36.86.55ZM567.86,107.77l6.72,36.16c2.42-.9,4.8-1.82,7.15-2.75.82-.32,1.6-.66,2.41-.99,1-.4,1.99-.81,2.97-1.22.87-.36,1.77-.72,2.64-1.08,1.4-.6,2.74-1.21,4.12-1.82,1.05-.46,2.12-.92,3.15-1.39.4-.18.83-.36,1.22-.54,1.53-.7,2.97-1.43,4.46-2.15,1.34-.64,2.71-1.28,4.01-1.93.25-.13.53-.25.78-.38.81-.41,1.54-.84,2.33-1.25,2.44-1.26,4.84-2.54,7.14-3.83.45-.25.95-.49,1.39-.75,1.07-.61,2.04-1.23,3.07-1.85,1.13-.67,2.27-1.34,3.36-2.02,1.57-.98,3.05-1.96,4.53-2.95.97-.65,1.97-1.29,2.9-1.94,1.57-1.1,3.03-2.2,4.49-3.31.73-.55,1.51-1.1,2.2-1.66,2.1-1.67,4.08-3.35,5.91-5.04l-6.72-36.16c-1.83,1.69-3.82,3.37-5.91,5.04-.7.56-1.48,1.1-2.2,1.66-1.46,1.11-2.92,2.22-4.49,3.31-.93.65-1.93,1.29-2.9,1.94-1.48.99-2.96,1.97-4.53,2.95-1.09.68-2.23,1.35-3.36,2.02-1.46.87-2.93,1.73-4.45,2.59-2.3,1.29-4.71,2.57-7.16,3.84-1.04.54-2.04,1.09-3.11,1.62-1.31.65-2.68,1.29-4.02,1.94-1.87.9-3.73,1.8-5.66,2.68-1.04.47-2.11.93-3.17,1.4-2.21.97-4.44,1.94-6.73,2.89-.99.41-1.99.82-2.99,1.23-3.13,1.27-6.29,2.52-9.55,3.73ZM390.26,137.66l6.72,36.16c.38.01.76.02,1.14.03,3.39.1,6.84.15,10.37.15.02,0,.04,0,.05,0,4.15,0,8.41-.07,12.75-.21.16,0,.31,0,.47,0,3.49-.11,7.05-.29,10.66-.49.98-.06,1.98-.13,2.97-.19,1.61-.1,3.19-.19,4.82-.31,2.09-.16,4.2-.33,6.33-.52,1.53-.13,3.05-.28,4.58-.42,2.33-.23,4.65-.47,6.97-.73.45-.05.9-.11,1.36-.16.38-.04.75-.09,1.13-.13,1.11-.13,2.23-.26,3.34-.39,1.76-.22,3.53-.45,5.28-.68,1.21-.16,2.42-.33,3.63-.5.21-.03.41-.06.62-.09.26-.04.51-.07.77-.11,1.63-.23,3.25-.48,4.87-.73,1.63-.25,3.25-.51,4.87-.77.66-.11,1.32-.22,1.98-.33.3-.05.61-.1.91-.15.69-.12,1.39-.23,2.08-.35,1.71-.3,3.41-.6,5.11-.91,1.79-.33,3.58-.67,5.36-1.01l-6.72-36.16h0s-.02,0-.03,0c-4.14.8-8.31,1.56-12.51,2.27-.32.05-.63.11-.95.16-4.14.69-8.3,1.34-12.47,1.94-.2.03-.41.06-.61.09-4.07.58-8.16,1.1-12.26,1.58-.38.04-.75.09-1.13.13-4.29.49-8.6.93-12.9,1.31-3.78.33-7.48.59-11.15.82-.99.06-1.99.14-2.97.19-3.77.22-7.48.39-11.12.5-4.34.14-8.6.21-12.75.21-3.94,0-7.8-.07-11.56-.19Z"/>
        <path class="cls-20" d="M543.65,16.12L563.74.2c-15.09-.52-31.71-.03-49.57,1.54-17.81,1.57-35.57,4.11-52.86,7.48l3.61,13.72c13.11-2.53,26.61-4.46,40.14-5.66,13.89-1.22,26.83-1.58,38.59-1.17ZM516.11,8.92c-.8,1.44-4.47,2.88-8.2,3.21-3.69.32-6.06-.58-5.26-2.02.79-1.43,4.46-2.86,8.14-3.19,3.73-.33,6.11.57,5.32,2ZM352.63,68.9c11.82-10.88,31.01-21.29,54.32-29.96l-20.76-8.88c-30.19,11.26-54.97,24.74-70.24,38.84h36.68ZM353.16,51.56c.24-.44.78-.92,1.63-1.39,2.51-1.4,6.87-2.19,9.72-1.75,1.88.29,2.6,1.06,2.1,1.96-.24.44-.78.92-1.63,1.39-2.55,1.4-6.87,2.19-9.72,1.75-1.88-.29-2.6-1.06-2.1-1.96ZM613.12,46.04l41.51-6.98c-.45-12.71-12.13-22.98-32.27-29.81l-33.84,13.89c15.4,5.25,24.28,13.14,24.6,22.89ZM619.44,29.35c-.39-.36-.43-.78-.18-1.23.5-.9,2.19-1.88,4.59-2.54,3.64-1.01,7.49-.94,8.67.14.39.36.43.78.18,1.22-.5.9-2.18,1.88-4.6,2.55-3.64,1.01-7.53.94-8.67-.14ZM331.7,128.58l33.2-13.63c-15.62-5.24-24.66-13.15-25.03-22.96l-40.45,6.8c.45,12.71,12.09,22.98,32.28,29.79ZM320.45,112.24c-.39-.36-.43-.78-.18-1.23.5-.9,2.19-1.88,4.59-2.54,3.64-1.01,7.49-.94,8.67.14.39.36.43.78.18,1.22-.5.9-2.18,1.88-4.6,2.55-3.64,1.01-7.53.94-8.67-.14ZM371.68,78.21c-12.39,22.4,24.49,36.42,82.38,31.32,57.89-5.1,114.86-27.39,127.25-49.79,12.39-22.4-24.49-36.42-82.38-31.32-57.89,5.1-114.86,27.39-127.25,49.79ZM416.28,74.28c2.95-5.34,16.53-10.65,30.32-11.86,5.82-.51,10.75-.2,14.27.72-.13-.4-.17-.82-.15-1.25.04-.3.09-.59.18-.91.09-.26.21-.52.35-.79,2.95-5.34,16.53-10.65,30.32-11.86,13.79-1.22,22.58,2.13,19.63,7.46-2.13,3.85-9.78,7.67-19.04,9.96,23.13-3.37,41.16-8.96,41.16-8.96l-4.18,7.55-4.18,7.55s-13.36-2.83-34.95-2.25c7.54.82,11.53,3.61,9.4,7.46-2.95,5.34-16.53,10.65-30.32,11.86-13.79,1.22-22.58-2.13-19.63-7.46.33-.59.82-1.18,1.38-1.77.47-.47,1.01-.94,1.62-1.41-4.96,1.67-10.75,2.92-16.57,3.43-13.79,1.22-22.58-2.13-19.63-7.46ZM600.44,68.94c-11.7,10.8-30.66,21.15-53.73,29.78l21.14,9.04c30.13-11.24,54.96-24.72,70.24-38.82h-37.65ZM599.82,86.38c-.25.44-.79.92-1.63,1.39-2.55,1.4-6.87,2.19-9.72,1.76-1.88-.29-2.6-1.06-2.1-1.96.24-.44.78-.92,1.63-1.38,2.51-1.4,6.87-2.19,9.72-1.76,1.88.28,2.6,1.05,2.11,1.95ZM410.19,121.86l-19.93,15.8c15.15.5,31.76.03,49.57-1.54,17.86-1.57,35.62-4.14,52.86-7.48l-3.63-13.83c-13.44,2.63-27.29,4.63-41.18,5.86-13.54,1.19-26.17,1.56-37.68,1.2ZM436.88,129c.79-1.43,4.46-2.86,8.14-3.19,3.73-.33,6.1.57,5.32,2-.8,1.44-4.47,2.88-8.2,3.21-3.69.32-6.06-.58-5.26-2.02Z"/>
        <path class="cls-1" d="M461.32,9.22l3.61,13.72c-20.73,4-40.51,9.52-57.97,16l-20.76-8.88c22.62-8.43,48.23-15.61,75.12-20.84ZM543.65,16.12c18.05.63,33.3,3.09,44.87,7.03l33.84-13.89c-15.13-5.11-35.01-8.28-58.62-9.06l-20.09,15.92ZM303.38,84.21c-2.84,5.14-4.14,10.01-3.96,14.57l40.45-6.8c-.13-3.52.85-7.28,3.04-11.25,2.19-3.97,5.48-7.93,9.72-11.83h-36.68c-5.5,5.04-9.73,10.17-12.57,15.31ZM600.44,68.94h37.65c5.46-5.05,9.74-10.19,12.58-15.32,2.84-5.14,4.1-10.01,3.95-14.56l-41.51,6.98c.11,3.49-.87,7.22-3.04,11.15-2.18,3.94-5.44,7.87-9.64,11.75ZM584.61,64.91c1.68-1.93,3.12-3.88,4.2-5.83,1.08-1.95,1.77-3.83,2.16-5.65l13.91-1.89c-.44,2.04-1.24,4.16-2.45,6.35-1.21,2.19-2.79,4.37-4.69,6.55l-13.13.49M580.11,34.63l12.61-4.18c2.41,1.39,4.54,2.9,6.31,4.55,1.78,1.65,3.16,3.37,4.17,5.15l-13.74,3.13c-.9-1.59-2.11-3.13-3.69-4.6-1.59-1.46-3.5-2.81-5.67-4.05M550.78,87.64c3.83-1.77,7.5-3.6,10.96-5.51,3.44-1.91,6.57-3.83,9.41-5.75l11.51.9c-3.19,2.15-6.7,4.3-10.59,6.45-3.86,2.14-7.97,4.2-12.25,6.18l-9.04-2.27M541.5,25.03l7.89-5.34c4.64.37,9.12.87,13.4,1.53,4.3.66,8.25,1.46,11.89,2.38l-10.64,4.92c-3.25-.81-6.76-1.53-10.58-2.12-3.82-.59-7.84-1.03-11.97-1.36M497.06,105.37c4.93-1.12,9.87-2.36,14.77-3.71,4.9-1.36,9.6-2.8,14.13-4.3l6.02,3.45c-5.08,1.68-10.36,3.29-15.87,4.82-5.49,1.52-11.02,2.91-16.56,4.17l-2.49-4.43M486.56,22.14c5.6-.76,11.25-1.4,16.9-1.89,5.65-.5,11.11-.84,16.42-1.04l-4.71,5.4c-4.71.17-9.59.47-14.63.91-5.04.44-10.07,1.02-15.08,1.7l1.1-5.08M433.11,118.74l4.7-5.4c4.73-.18,9.6-.47,14.64-.92,5.04-.44,10.07-1.02,15.06-1.7l-1.08,5.08c-5.62.76-11.25,1.4-16.9,1.89-5.65.5-11.13.84-16.43,1.04M421.01,37.13c5.08-1.68,10.36-3.29,15.85-4.82,5.51-1.52,11.03-2.91,16.56-4.17l2.51,4.43c-4.93,1.12-9.87,2.36-14.77,3.71-4.9,1.36-9.6,2.8-14.13,4.3l-6.02-3.45M378.29,114.35l10.64-4.92c3.25.81,6.76,1.53,10.58,2.12,3.82.59,7.84,1.03,11.97,1.36l-7.91,5.34c-4.62-.37-9.1-.87-13.4-1.53-4.28-.67-8.23-1.47-11.87-2.38M370.33,60.66c3.19-2.15,6.7-4.3,10.57-6.45,3.88-2.14,7.97-4.2,12.27-6.18l9.02,2.27c-3.82,1.77-7.5,3.6-10.94,5.51-3.46,1.91-6.57,3.83-9.41,5.75l-11.51-.9M349.78,97.8l13.74-3.13c.9,1.59,2.11,3.13,3.69,4.6,1.58,1.47,3.5,2.81,5.65,4.05l-12.59,4.18c-2.43-1.39-4.54-2.9-6.33-4.54-1.77-1.65-3.14-3.37-4.16-5.15M350.55,80.07c1.21-2.19,2.79-4.37,4.67-6.54l13.15-.49c-1.7,1.94-3.12,3.88-4.2,5.83-1.08,1.95-1.78,3.84-2.16,5.65l-13.93,1.9c.46-2.05,1.26-4.16,2.46-6.35M416.28,74.28c-2.95,5.34,5.83,8.68,19.63,7.46,5.82-.51,11.61-1.77,16.57-3.43-.61.47-1.15.94-1.62,1.41-.57.59-1.06,1.18-1.38,1.77-2.95,5.34,5.83,8.68,19.63,7.46,13.79-1.22,27.37-6.53,30.32-11.86,2.13-3.85-1.86-6.64-9.4-7.46,21.59-.58,34.95,2.25,34.95,2.25l4.18-7.55,4.18-7.55s-18.02,5.59-41.16,8.96c9.26-2.3,16.91-6.12,19.04-9.96,2.95-5.34-5.83-8.68-19.63-7.46-13.79,1.22-27.37,6.53-30.32,11.86-.15.27-.26.53-.35.79-.09.31-.15.61-.18.91-.03.43.01.86.15,1.25-3.53-.92-8.46-1.23-14.27-.72-13.79,1.22-27.37,6.53-30.32,11.86M331.7,128.58c15.12,5.13,35,8.3,58.56,9.08l19.93-15.8c-18.2-.58-33.59-2.99-45.29-6.92l-33.2,13.63ZM489.05,114.8l3.63,13.83c26.94-5.23,52.54-12.41,75.17-20.86l-21.14-9.04c-17.35,6.5-37.02,12.03-57.66,16.08Z"/>
      </g>
      <g>
        <path class="cls-31" d="M169.59,1536.24c-1.26-.03-.94-1.97.73-4.34,1.65-2.34,4.05-4.24,5.31-4.22,1.28.03.96,1.97-.7,4.31-1.67,2.37-4.07,4.27-5.34,4.24ZM255.64,1452.18c.39,0,.92-.17,1.56-.55,1.93-1.16,4.15-3.75,4.96-5.83.53-1.37.3-2.16-.49-2.17-.39,0-.92.17-1.56.55-1.91,1.14-4.15,3.75-4.96,5.83-.53,1.37-.3,2.16.49,2.17ZM142.26,1612.86c-.8-.02-2.12.73-3.5,2.09-2.09,2.05-3.55,4.66-3.29,5.86.09.4.36.59.75.6.8.02,2.11-.73,3.5-2.09,2.09-2.05,3.57-4.68,3.29-5.86-.09-.4-.36-.59-.75-.6ZM314.34,1444.75c-.8-.02-2.12.73-3.5,2.09-2.09,2.05-3.55,4.66-3.29,5.86.09.4.36.59.75.6.8.02,2.11-.73,3.5-2.09,2.09-2.05,3.57-4.68,3.29-5.86-.09-.4-.36-.59-.75-.6ZM194.93,1613.98c-.39,0-.92.17-1.56.55-1.91,1.13-4.15,3.75-4.96,5.83-.54,1.37-.31,2.16.49,2.17.39,0,.92-.17,1.57-.55,1.93-1.16,4.15-3.75,4.96-5.83.53-1.37.3-2.16-.49-2.17ZM285.22,1448.13c-3.51-.07-7.45.59-11.72,1.91-11.9,3.68-26.36,12.49-41.25,24.74-11.15,9.17-22.55,20.28-33.32,32.62-6.81,7.8-13.36,16.1-19.43,24.7-6.23,8.83-11.52,17.37-15.82,25.41-6.61,12.34-10.91,23.52-12.77,32.81-2.48,12.37-.66,21.4,5.76,25.41,2.3,1.44,5.18,2.23,8.66,2.31,3.49.07,7.4-.58,11.63-1.88,11.8-3.63,26.12-12.31,40.9-24.41,11.12-9.1,22.49-20.12,33.25-32.39,7-7.98,13.74-16.49,19.98-25.32,6.07-8.61,11.25-16.93,15.49-24.79,6.71-12.43,11.08-23.69,13.01-33.06,2.58-12.51.79-21.65-5.64-25.72-2.31-1.46-5.21-2.27-8.73-2.35ZM275.65,1534.14c-1.67,2.37-1.99,4.32-.73,4.34,1.28.03,3.67-1.87,5.34-4.24,1.65-2.34,1.97-4.29.7-4.31-1.26-.03-3.65,1.87-5.31,4.22Z"/>
        <path class="cls-23" d="M162.29,1641.4l21.62,18.6c-5.52,1.69-10.63,2.55-15.18,2.46-4.55-.1-8.31-1.15-11.3-3.02l-21.62-18.6s0,0,0,0h0c2.24,1.4,4.92,2.35,8.03,2.77,1.04.14,2.13.23,3.27.25,4.55.1,9.66-.77,15.18-2.46ZM342.85,1479.87c.15-.68.3-1.35.43-2.02l-21.62-18.6c-.21,1.05-.48,2.15-.74,3.24-.22.92-.45,1.84-.71,2.78-.19.71-.39,1.42-.6,2.14-.36,1.23-.75,2.49-1.16,3.75-.2.63-.4,1.25-.61,1.88-.72,2.11-1.5,4.26-2.37,6.47-.13.34-.28.69-.42,1.03-.83,2.08-1.74,4.21-2.7,6.38-.28.64-.57,1.28-.86,1.92-.98,2.14-2.01,4.3-3.11,6.51-.1.2-.19.4-.29.6-1,2-2.06,4.03-3.16,6.08h0s21.62,18.6,21.62,18.6c1.1-2.05,2.16-4.08,3.16-6.08.02-.04.04-.08.06-.11.08-.17.15-.33.23-.49,1.1-2.2,2.13-4.37,3.1-6.51.13-.29.29-.6.43-.89.16-.35.28-.69.44-1.04.96-2.16,1.87-4.29,2.7-6.37.1-.25.23-.53.33-.78.03-.08.06-.16.09-.25.87-2.21,1.65-4.36,2.37-6.47.06-.18.14-.38.2-.56.15-.45.26-.87.41-1.32.41-1.27.8-2.53,1.16-3.76.1-.33.22-.67.31-1,.11-.39.19-.76.29-1.14.25-.94.49-1.87.71-2.78.1-.4.22-.83.31-1.22ZM258.96,1567.19c-1.59,1.82-3.19,3.61-4.8,5.39-.25.28-.5.56-.75.83-1.54,1.69-3.09,3.36-4.64,5.01-.37.39-.74.78-1.11,1.17-1.33,1.39-2.66,2.77-3.99,4.13-.34.35-.69.71-1.03,1.06-1.61,1.63-3.22,3.23-4.83,4.81-.39.38-.78.75-1.17,1.13-1.26,1.22-2.53,2.43-3.79,3.62-.55.51-1.09,1.02-1.64,1.53-1.17,1.09-2.35,2.16-3.52,3.22-.53.48-1.05.96-1.58,1.43-1.43,1.28-2.87,2.54-4.3,3.77-.26.22-.52.46-.78.68-1.79,1.53-3.57,3.03-5.35,4.49l21.62,18.6c.16-.13.32-.26.48-.39,1.58-1.3,3.16-2.63,4.75-3.99.04-.04.08-.07.12-.11.26-.22.52-.46.78-.68,1.21-1.05,2.42-2.1,3.64-3.18.22-.19.43-.39.65-.59.53-.47,1.06-.96,1.59-1.44.72-.65,1.43-1.29,2.15-1.95.45-.42.9-.85,1.36-1.27.55-.51,1.1-1.02,1.65-1.54.41-.39.83-.77,1.24-1.16.84-.8,1.69-1.63,2.53-2.44.39-.38.78-.75,1.18-1.13.14-.13.27-.26.41-.39,1.32-1.3,2.64-2.61,3.96-3.94.15-.16.31-.32.46-.47.35-.35.69-.71,1.03-1.06.76-.78,1.53-1.56,2.29-2.35.57-.59,1.13-1.19,1.7-1.79.37-.39.74-.78,1.11-1.17.26-.27.51-.53.77-.81,1.12-1.2,2.24-2.41,3.36-3.63.17-.19.34-.38.52-.57.25-.28.51-.56.76-.84.62-.68,1.23-1.36,1.85-2.04.98-1.1,1.96-2.2,2.93-3.31,0,0,0,0,0,0,0,0,.01-.01.02-.02h0s0,0,0,0l-21.62-18.6Z"/>
        <path class="cls-35" d="M135.81,1640.84l21.62,18.6c-.69-.43-1.34-.91-1.95-1.44l-21.62-18.6s0,0,0,0h0c.61.52,1.26,1,1.95,1.44ZM344.6,1461.61c-.07-.93-.18-1.83-.31-2.71-.01-.07-.03-.13-.04-.21-.03-.16-.06-.31-.09-.47-.11-.62-.22-1.23-.36-1.82-.1-.43-.24-.82-.36-1.23-.06-.21-.12-.43-.19-.64-.05-.14-.08-.29-.12-.43-.26-.74-.54-1.45-.86-2.12-.06-.13-.14-.25-.2-.38-.09-.19-.2-.37-.3-.55-.18-.34-.35-.7-.55-1.02-.28-.45-.59-.87-.9-1.28-.09-.11-.16-.24-.25-.35-.04-.05-.07-.11-.11-.16-.46-.58-.96-1.12-1.49-1.63-.2-.19-.41-.38-.62-.56l-21.62-18.6c.81.7,1.55,1.49,2.22,2.34.09.11.16.24.25.35.53.72,1.01,1.49,1.45,2.31.1.19.2.36.3.55.45.92.85,1.89,1.18,2.93.07.21.12.43.19.64.29.97.53,1.99.72,3.06.03.16.07.31.09.46.19,1.18.31,2.42.39,3.7.02.31.03.63.04.95.04,1.18.04,2.4-.01,3.66,0,.19,0,.37-.01.56-.07,1.43-.22,2.91-.41,4.44-.06.45-.13.91-.2,1.36-.21,1.46-.44,2.94-.76,4.48l21.62,18.6c.18-.88.34-1.75.49-2.6.11-.65.18-1.26.27-1.89.06-.45.14-.9.19-1.35.03-.23.08-.48.1-.7.14-1.21.24-2.39.31-3.54,0-.07,0-.13,0-.2,0-.19,0-.37.01-.56.03-.83.07-1.66.06-2.46,0-.41-.04-.8-.05-1.2-.01-.32-.02-.64-.04-.95-.02-.26-.01-.53-.03-.79ZM209.46,1614.4c-.66.52-1.33,1.02-1.99,1.53-1.53,1.16-3.04,2.28-4.56,3.38-.73.53-1.45,1.07-2.18,1.58-1.34.95-2.67,1.85-4,2.75-.96.65-1.92,1.32-2.86,1.94-.77.51-1.53.96-2.3,1.45-1.8,1.15-3.59,2.26-5.36,3.3-1.17.69-2.32,1.34-3.47,1.98-.89.5-1.78,1-2.66,1.47-1.26.67-2.5,1.28-3.74,1.89-.81.4-1.63.82-2.43,1.19-1.35.62-2.66,1.17-3.97,1.72-.65.27-1.32.58-1.97.83-1.94.76-3.83,1.43-5.68,2l21.62,18.6c1.85-.57,3.74-1.24,5.68-2,.64-.25,1.31-.56,1.97-.83,1.31-.54,2.62-1.09,3.97-1.72.8-.37,1.62-.79,2.43-1.19,1.24-.61,2.48-1.22,3.74-1.89.88-.47,1.77-.97,2.66-1.46.81-.45,1.61-.86,2.44-1.34.34-.2.7-.44,1.04-.64,1.76-1.04,3.55-2.15,5.35-3.29.59-.37,1.16-.69,1.75-1.08.18-.12.37-.26.56-.38.94-.62,1.9-1.29,2.86-1.94,1.06-.72,2.11-1.4,3.17-2.15.28-.2.56-.41.84-.61.72-.51,1.44-1.04,2.16-1.57.94-.68,1.88-1.34,2.82-2.05.58-.44,1.17-.9,1.75-1.35.66-.5,1.32-1.01,1.98-1.52.54-.42,1.07-.81,1.6-1.23,1.54-1.21,3.08-2.45,4.63-3.72l-21.62-18.6c-2.08,1.71-4.16,3.34-6.22,4.95ZM300.54,1509.87c-1.62,2.79-3.33,5.61-5.11,8.47-1.5,2.4-3.06,4.82-4.67,7.26-.42.64-.86,1.28-1.29,1.92-1.59,2.37-3.2,4.75-4.9,7.15-1.93,2.74-3.91,5.45-5.91,8.14-.18.23-.35.47-.53.7-1.92,2.56-3.86,5.1-5.84,7.6-.1.12-.2.25-.3.38-2.03,2.57-4.08,5.1-6.16,7.61-.16.19-.32.38-.48.57-2.11,2.53-4.24,5.04-6.39,7.5,0,0-.01.01-.02.02h0s21.62,18.6,21.62,18.6c.93-1.06,1.85-2.12,2.77-3.2.87-1.02,1.74-2.04,2.6-3.07.35-.42.7-.84,1.05-1.26.15-.18.31-.37.46-.55.33-.4.66-.8,1-1.2.81-.98,1.62-1.97,2.42-2.96.8-.99,1.59-1.98,2.38-2.98.12-.16.25-.32.37-.47.1-.13.2-.25.3-.38.59-.74,1.17-1.49,1.75-2.23.84-1.09,1.68-2.18,2.52-3.28.53-.69,1.04-1.39,1.57-2.09.18-.23.35-.47.53-.7.21-.28.42-.56.64-.85,1.08-1.45,2.15-2.92,3.21-4.39.69-.96,1.38-1.93,2.07-2.9.95-1.35,1.89-2.7,2.81-4.04.72-1.04,1.39-2.07,2.09-3.11.43-.64.87-1.28,1.29-1.92,1.54-2.33,3.05-4.66,4.48-6.95.07-.1.12-.21.19-.31,1.78-2.86,3.49-5.68,5.11-8.47,0-.01.01-.02.02-.04,1.37-2.37,2.69-4.7,3.94-7.01.14-.26.28-.52.42-.78l-21.62-18.6c-1.38,2.57-2.85,5.18-4.38,7.83Z"/>
        <path class="cls-27" d="M179.5,1532.1c6.07-8.61,12.63-16.9,19.43-24.7l-7.79-7.76c-9,10.27-17.62,21.19-25.62,32.51-8.01,11.36-14.81,22.31-20.35,32.63l18.5-7.26c4.3-8.04,9.59-16.57,15.82-25.41ZM170.32,1531.9c1.65-2.34,4.05-4.24,5.31-4.22,1.28.03.96,1.97-.69,4.31-1.67,2.37-4.07,4.27-5.34,4.24-1.26-.03-.94-1.97.73-4.34ZM287.79,1425.45c-15.4,4.75-34.1,16.11-53.41,31.95l-2.14,17.38c14.9-12.25,29.35-21.06,41.25-24.74l14.29-24.59ZM262.16,1445.8c-.82,2.08-3.03,4.67-4.96,5.83-.64.38-1.17.56-1.56.55-.8-.02-1.03-.8-.49-2.17.82-2.08,3.05-4.69,4.96-5.83.64-.38,1.17-.56,1.56-.55.8.02,1.03.8.49,2.17ZM150.91,1590.32l-22.5,17.27c-3.27,16.16-.94,27.99,7.4,33.24l20.85-25.11c-6.41-4.01-8.24-13.04-5.76-25.41ZM139.72,1619.33c-1.39,1.35-2.7,2.1-3.5,2.09-.39,0-.66-.2-.75-.6-.26-1.21,1.19-3.82,3.29-5.87,1.38-1.35,2.7-2.1,3.5-2.09.39,0,.66.2.75.6.28,1.18-1.19,3.82-3.29,5.86ZM314.27,1426.01l-20.32,24.46c6.43,4.07,8.21,13.22,5.64,25.72l22.08-16.94c3.31-16.19.96-27.99-7.39-33.24ZM311.8,1451.22c-1.39,1.35-2.7,2.1-3.5,2.09-.39,0-.66-.2-.75-.6-.26-1.21,1.19-3.82,3.29-5.86,1.38-1.35,2.7-2.1,3.5-2.09.39,0,.66.2.75.6.28,1.18-1.19,3.82-3.29,5.86ZM189.35,1532.32c-25.98,36.82-30.95,67-11.11,67.42,19.84.42,56.99-29.08,82.97-65.9,25.98-36.82,30.95-67,11.11-67.43-19.84-.42-56.99,29.08-82.97,65.9ZM249.65,1510.86c-2.61,3.7-5.71,7.1-8.76,9.77.55-.23,1.08-.4,1.58-.54.61-.15,1.2-.25,1.73-.24,4.73.1,3.54,7.29-2.65,16.07-6.19,8.77-15.04,15.8-19.77,15.7-3.41-.07-3.73-3.84-1.34-9.21-8.8,14.25-12.11,24.31-12.11,24.31l-6.69-.14-6.69-.14s10.77-9.9,22.04-24.1c-5.15,5.31-10.69,8.95-14.1,8.88-4.73-.1-3.54-7.29,2.65-16.07,6.19-8.77,15.04-15.8,19.77-15.7.24,0,.46.03.67.07.25.06.47.14.68.23.3.15.57.34.78.59.76-2.72,2.47-6.15,5.08-9.85,6.19-8.77,15.04-15.8,19.77-15.7,4.73.1,3.54,7.29-2.65,16.06ZM162.29,1641.4c15.4-4.75,34.12-16.13,53.39-31.95l2.18-17.7c-14.78,12.09-29.1,20.78-40.9,24.41l-14.67,25.24ZM188.4,1620.37c.82-2.08,3.05-4.69,4.96-5.83.64-.38,1.17-.56,1.56-.55.8.02,1.03.8.49,2.17-.82,2.08-3.03,4.67-4.96,5.83-.64.38-1.17.56-1.57.55-.8-.02-1.03-.8-.49-2.17ZM271.08,1534.04c-6.23,8.83-12.97,17.34-19.98,25.32l7.85,7.82c8.96-10.25,17.6-21.16,25.62-32.51,7.99-11.33,14.78-22.28,20.35-32.63l-18.36,7.21c-4.24,7.86-9.41,16.18-15.49,24.79ZM280.26,1534.24c-1.67,2.37-4.06,4.27-5.34,4.24-1.26-.03-.94-1.97.73-4.34,1.65-2.34,4.04-4.24,5.31-4.22,1.28.03.96,1.97-.7,4.31Z"/>
        <path class="cls-22" d="M234.39,1457.4l-2.14,17.38c-11.15,9.17-22.55,20.28-33.32,32.62l-7.79-7.76c13.99-15.99,28.77-30.35,43.24-42.23ZM145.18,1564.77c-8.68,16.13-14.3,30.69-16.77,42.82l22.5-17.27c1.86-9.29,6.16-20.47,12.77-32.81l-18.5,7.26ZM287.79,1425.45l-14.29,24.59c4.27-1.32,8.2-1.98,11.72-1.91,3.52.07,6.42.88,8.73,2.35l20.32-24.46c-2.99-1.9-6.76-2.93-11.31-3.02-4.55-.1-9.64.74-15.16,2.46ZM165.33,1618.04c-3.48-.07-6.37-.87-8.66-2.31l-20.85,25.11c2.99,1.87,6.75,2.92,11.3,3.02,4.55.1,9.66-.77,15.18-2.46l14.67-25.24c-4.23,1.3-8.14,1.95-11.63,1.88ZM180.43,1603.98l-5.45,8.61c-2.2.42-4.28.63-6.21.59-1.94-.04-3.67-.33-5.21-.83l6.69-8.59c1.37.45,2.9.72,4.63.76,1.73.04,3.59-.16,5.55-.54M161.88,1589.16c-.02,1.94.14,3.74.5,5.38.37,1.63.93,3.04,1.64,4.26l-7.45,7.99c-.8-1.37-1.41-2.96-1.82-4.8-.41-1.83-.59-3.85-.59-6l7.71-6.82M208.85,1590.16l-2,6.94c-2.99,2.09-5.98,4.05-8.92,5.8-2.95,1.77-5.76,3.28-8.45,4.58l3.88-8.07c2.39-1.15,4.9-2.5,7.52-4.07,2.63-1.58,5.29-3.32,7.96-5.2M170.49,1559.54c-1.39,2.89-2.66,5.76-3.75,8.55-1.09,2.79-1.98,5.42-2.7,7.92l-7.44,5.22c.8-2.8,1.81-5.75,3.04-8.89,1.23-3.13,2.64-6.33,4.2-9.58l6.66-3.21M241.67,1561.06l2,3.39c-3.01,3.22-6.09,6.39-9.25,9.47-3.17,3.1-6.31,6.01-9.41,8.76l.03-5.38c2.77-2.45,5.56-5.04,8.39-7.8,2.82-2.75,5.57-5.59,8.24-8.45M189.96,1521.58l3.83,1.24c-2.41,3.09-4.76,6.24-7.02,9.45-2.26,3.2-4.36,6.36-6.31,9.45l-5.46,1.06c2.21-3.48,4.56-7.01,7.1-10.6,2.54-3.59,5.17-7.13,7.85-10.59M275.55,1523.4c-2.2,3.47-4.56,7.01-7.1,10.6-2.53,3.59-5.16,7.12-7.85,10.59l-3.83-1.25c2.4-3.08,4.75-6.23,7.01-9.43,2.26-3.2,4.36-6.36,6.32-9.46l5.45-1.05M225.56,1483.49l-.03,5.38c-2.77,2.45-5.56,5.04-8.39,7.8-2.82,2.75-5.57,5.59-8.24,8.45l-1.99-3.4c3-3.21,6.08-6.38,9.25-9.47,3.16-3.09,6.3-6,9.41-8.75M293.96,1484.95c-.81,2.8-1.81,5.76-3.03,8.88-1.23,3.14-2.64,6.34-4.2,9.58l-6.66,3.22c1.39-2.89,2.66-5.76,3.75-8.55,1.09-2.79,1.98-5.42,2.7-7.92l7.44-5.22M261.08,1458.68l-3.88,8.07c-2.39,1.15-4.89,2.49-7.52,4.07-2.62,1.56-5.29,3.32-7.96,5.19l1.99-6.93c3-2.1,5.98-4.05,8.92-5.81,2.94-1.76,5.76-3.27,8.44-4.57M293.98,1459.38c.8,1.37,1.41,2.97,1.83,4.79.4,1.84.59,3.85.58,6.01l-7.71,6.81c0-1.93-.14-3.74-.51-5.37-.37-1.63-.93-3.04-1.64-4.26l7.45-7.99M281.79,1452.99c1.94.04,3.66.33,5.22.82l-6.7,8.6c-1.37-.46-2.9-.72-4.63-.76-1.73-.04-3.59.15-5.55.54l5.45-8.62c2.19-.41,4.27-.62,6.21-.58M252.3,1494.79c-4.73-.1-13.58,6.93-19.77,15.7-2.61,3.7-4.33,7.13-5.08,9.85-.22-.25-.48-.44-.78-.59-.21-.09-.43-.17-.68-.23-.21-.04-.43-.06-.67-.07-4.73-.1-13.58,6.93-19.77,15.7-6.19,8.77-7.37,15.96-2.65,16.07,3.41.07,8.95-3.57,14.1-8.88-11.27,14.2-22.04,24.1-22.04,24.1l6.69.14,6.69.14s3.31-10.06,12.11-24.31c-2.39,5.37-2.07,9.13,1.34,9.21,4.73.1,13.58-6.93,19.77-15.7,6.19-8.77,7.37-15.96,2.65-16.07-.52-.01-1.11.09-1.73.24-.5.13-1.03.31-1.58.54,3.05-2.67,6.15-6.07,8.76-9.77,6.19-8.77,7.37-15.96,2.65-16.06M299.58,1476.2c-1.93,9.37-6.31,20.63-13.01,33.06l18.36-7.21c8.66-16.1,14.28-30.66,16.74-42.8l-22.08,16.94ZM217.86,1591.75l-2.18,17.7c14.49-11.88,29.27-26.24,43.28-42.26l-7.85-7.82c-10.76,12.26-22.13,23.29-33.25,32.39Z"/>
      </g>
      <g>
        <path class="cls-29" d="M265.34,793.05c-3.18-1.9-4.57-4.02-3.08-4.72,1.48-.69,5.29.29,8.47,2.19,3.22,1.92,4.61,4.04,3.14,4.73-1.49.7-5.31-.28-8.52-2.2ZM127.85,738.47c-2.05-2.02-6.05-3.93-8.9-4.27-.96-.11-1.67-.05-2.13.17-.93.44-.79,1.48.56,2.82,2.05,2.02,6.02,3.91,8.9,4.27.96.12,1.67.05,2.13-.17.93-.44.79-1.48-.56-2.82ZM345.65,872.33c.29,1.54,3.41,3.87,6.95,5.19,2.35.87,4.29,1.06,5.22.63.46-.22.67-.58.57-1.1-.33-1.56-3.41-3.87-6.95-5.19-2.34-.87-4.28-1.07-5.21-.63-.46.22-.67.59-.57,1.1ZM54.77,764.39c.29,1.54,3.41,3.87,6.95,5.19,2.35.87,4.29,1.06,5.22.63.46-.22.67-.58.57-1.1-.33-1.56-3.41-3.87-6.95-5.19-2.34-.87-4.28-1.07-5.21-.63-.46.22-.67.58-.57,1.1ZM285.3,902.96c2.05,2.02,6.02,3.91,8.9,4.27.96.12,1.68.05,2.13-.17.93-.44.8-1.48-.56-2.82-2.05-2.02-6.05-3.93-8.9-4.27-.96-.12-1.67-.05-2.13.17-.93.44-.79,1.48.56,2.82ZM82.37,759.35c-5.44,8.17-2.75,19.88,6.84,33.27,7.19,10.03,18.24,21.01,32.66,32.14,9.11,7.04,19.57,14.13,31.24,21.1,11.98,7.14,24.38,13.63,36.81,19.37,19.1,8.81,38.28,15.85,56.15,20.74,23.75,6.51,45.19,9.23,60.99,7.33,5.67-.68,10.62-1.96,14.69-3.88,4.07-1.91,7.05-4.36,9-7.26,5.45-8.09,2.87-19.69-6.53-32.96-7.07-9.97-17.99-20.89-32.25-31.98-9.28-7.22-19.99-14.51-31.96-21.65-11.67-6.96-23.74-13.3-35.85-18.93-19.15-8.9-38.41-16.01-56.36-20.98-23.98-6.63-45.62-9.44-61.58-7.54-5.72.68-10.7,1.96-14.8,3.89-4.11,1.93-7.1,4.41-9.06,7.34ZM139.31,846.17c-1.49.7-.1,2.82,3.08,4.72,3.22,1.92,7.03,2.9,8.52,2.2,1.47-.69.08-2.82-3.14-4.73-3.18-1.9-6.99-2.88-8.47-2.19Z"/>
        <path class="cls-16" d="M356.75,910.29c1.33-.62,2.57-1.29,3.72-2.01,3.45-2.13,6.1-4.65,8.01-7.48h0s0,0,0,0l-15.74,33.25c-2.55,3.77-6.42,6.98-11.73,9.48-5.31,2.5-11.79,4.16-19.18,5.06l15.74-33.25c7.39-.9,13.86-2.56,19.18-5.06ZM41.15,820.89c.74.96,1.5,1.93,2.29,2.91.32.4.61.79.94,1.2.28.33.6.68.89,1.01,1.07,1.27,2.19,2.54,3.34,3.82.4.45.75.89,1.17,1.34.17.18.37.37.54.55,1.95,2.11,4.01,4.24,6.18,6.39.08.08.15.16.24.24.25.25.54.5.8.75,2.07,2.02,4.26,4.05,6.52,6.1.37.33.69.66,1.06.99.31.27.66.55.97.83,2.27,2.01,4.62,4.02,7.07,6.04.19.15.35.3.54.46.04.03.09.07.13.1,2.23,1.83,4.53,3.67,6.91,5.51l15.74-33.25h0c-2.38-1.84-4.68-3.68-6.91-5.51-.23-.19-.44-.37-.66-.56-2.45-2.02-4.8-4.04-7.07-6.05-.69-.61-1.35-1.21-2.02-1.81-2.27-2.04-4.45-4.08-6.53-6.1-.34-.33-.7-.66-1.03-.99-2.18-2.15-4.23-4.27-6.18-6.38-.59-.64-1.14-1.26-1.71-1.9-1.15-1.28-2.27-2.55-3.33-3.82-.62-.74-1.23-1.48-1.83-2.21-.79-.98-1.55-1.94-2.29-2.91-.88-1.15-1.77-2.3-2.57-3.43l-15.74,33.25c.51.71,1.03,1.43,1.57,2.15.32.42.68.86,1.01,1.28ZM169.02,911.8h0s0,0,0,0c0,0,.02,0,.03.01,0,0,0,0,.01,0,1.73.8,3.46,1.59,5.19,2.37,1.08.49,2.17.96,3.25,1.44.45.2.89.4,1.34.59.3.13.6.27.91.4,1.96.85,3.91,1.69,5.86,2.51.44.19.88.36,1.33.55.64.27,1.28.53,1.92.8.98.4,1.96.82,2.94,1.21,1.31.53,2.62,1.04,3.93,1.56.59.23,1.18.47,1.77.71.26.1.53.21.79.31,2.25.88,4.5,1.73,6.74,2.57.23.09.46.16.69.25.66.25,1.32.48,1.98.72,1.42.52,2.85,1.05,4.26,1.55.69.25,1.38.48,2.08.72.92.32,1.84.64,2.75.95.75.26,1.51.53,2.26.78,1.19.4,2.37.78,3.55,1.17.88.29,1.76.58,2.63.86.35.11.71.24,1.07.35,2,.64,3.98,1.24,5.95,1.84.43.13.86.27,1.28.4.07.02.14.04.2.06,2.58.77,5.14,1.51,7.69,2.21.25.07.51.14.76.21l15.74-33.25c-2.86-.79-5.75-1.62-8.65-2.49-.42-.13-.85-.26-1.27-.39-2.34-.71-4.68-1.44-7.04-2.19-.87-.28-1.74-.57-2.61-.85-1.94-.64-3.88-1.29-5.84-1.96-.91-.31-1.82-.63-2.73-.95-2.11-.74-4.24-1.5-6.36-2.28-.66-.24-1.31-.47-1.97-.72-2.73-1.01-5.47-2.06-8.21-3.13-.59-.23-1.18-.47-1.77-.71-2.28-.9-4.57-1.83-6.87-2.78-.64-.26-1.28-.53-1.92-.8-2.7-1.13-5.39-2.28-8.1-3.46-.44-.19-.88-.39-1.32-.59-2.83-1.25-5.66-2.52-8.49-3.83l-15.74,33.25Z"/>
        <path class="cls-33" d="M370.02,898.1h0s0,0,0,0l-15.74,33.25c-.44.93-.96,1.84-1.54,2.71l15.74-33.25c.59-.87,1.1-1.78,1.54-2.71ZM28.88,799.96c.14.38.3.76.45,1.14.19.48.36.95.57,1.44.41.94.88,1.91,1.36,2.87.11.22.2.44.31.66.04.08.07.15.11.23.68,1.32,1.42,2.66,2.21,4.01.15.26.33.52.49.78.3.49.62.99.93,1.48.44.7.84,1.38,1.31,2.08.62.93,1.27,1.87,1.94,2.81l15.74-33.25c-1.18-1.65-2.23-3.27-3.24-4.88-.32-.5-.64-1-.94-1.5-1.02-1.7-1.97-3.37-2.81-5.01-.11-.22-.2-.44-.31-.66-.72-1.46-1.36-2.9-1.93-4.31-.15-.38-.31-.76-.45-1.14-.58-1.55-1.09-3.08-1.49-4.57-.05-.2-.09-.4-.13-.6-.34-1.36-.58-2.68-.75-3.98-.04-.28-.09-.57-.11-.85-.15-1.39-.19-2.75-.14-4.07.01-.27.04-.54.06-.81.09-1.19.25-2.35.5-3.48.04-.18.06-.37.11-.55.34-1.36.79-2.67,1.39-3.92l-15.74,33.25c-.15.32-.3.65-.43.98-.36.88-.66,1.77-.9,2.7-.02.08-.03.16-.05.24-.04.18-.07.37-.11.55-.15.65-.3,1.31-.39,1.98-.06.49-.08,1-.11,1.5-.02.27-.05.54-.06.81,0,.18-.04.36-.04.55-.02.96.02,1.95.1,2.95.02.19.06.38.08.57.03.28.08.57.11.86.07.55.12,1.09.22,1.64.14.77.34,1.55.53,2.33.05.2.08.4.13.6.02.09.04.17.06.26.3,1.1.65,2.22,1.05,3.36.11.31.26.64.37.95ZM257.91,905.68l-15.74,33.25c2.49.69,4.95,1.34,7.4,1.96.85.22,1.69.4,2.54.61,1.05.26,2.09.51,3.13.75.92.22,1.86.46,2.77.67,1.49.34,2.93.62,4.4.94,1.12.24,2.25.49,3.36.72.43.09.88.19,1.31.28,1.65.33,3.24.58,4.87.87,1.46.26,2.94.55,4.38.78.28.05.58.11.86.15.9.14,1.74.22,2.63.35,2.72.41,5.41.78,8.03,1.08.51.06,1.06.16,1.57.21,1.22.13,2.38.2,3.57.3,1.31.12,2.62.24,3.9.33,1.84.13,3.62.2,5.4.26,1.16.04,2.35.11,3.48.13,1.91.03,3.75-.01,5.58-.06.91-.02,1.86,0,2.76-.05,2.68-.12,5.27-.32,7.74-.62l15.74-33.25c-2.47.3-5.07.5-7.74.62-.89.04-1.84.03-2.75.05-1.83.05-3.66.09-5.58.06-1.13-.02-2.32-.08-3.48-.13-1.78-.07-3.56-.14-5.4-.26-1.28-.09-2.6-.22-3.91-.33-1.69-.15-3.39-.31-5.13-.51-2.63-.3-5.32-.67-8.05-1.08-1.16-.17-2.29-.31-3.47-.5-1.44-.24-2.93-.52-4.39-.79-2.04-.37-4.07-.73-6.16-1.15-1.12-.23-2.26-.48-3.39-.72-2.36-.5-4.74-1.03-7.14-1.6-1.04-.25-2.09-.5-3.15-.76-3.28-.81-6.58-1.65-9.93-2.57ZM96.46,825.88l-15.74,33.25c.3.23.6.46.9.7,2.69,2.06,5.46,4.13,8.32,6.2.01.01.03.02.04.03,3.37,2.44,6.86,4.87,10.46,7.3.13.09.25.18.38.27,2.89,1.95,5.88,3.9,8.93,5.84.83.53,1.68,1.06,2.52,1.59,1.36.86,2.7,1.72,4.09,2.57,1.79,1.1,3.6,2.2,5.43,3.29,1.32.79,2.64,1.57,3.96,2.34,2.02,1.18,4.04,2.34,6.08,3.49.4.22.8.44,1.19.66.33.18.66.37.99.55.98.55,1.96,1.1,2.94,1.64,1.56.86,3.12,1.7,4.68,2.54,1.08.58,2.16,1.15,3.24,1.72.18.1.37.2.55.29.23.12.46.24.68.36,1.46.76,2.91,1.52,4.37,2.26,1.47.75,2.93,1.49,4.4,2.23.6.3,1.2.59,1.8.89.28.14.55.27.83.41.63.31,1.26.63,1.89.94,1.56.76,3.12,1.51,4.68,2.25,1.64.78,3.29,1.56,4.94,2.32l15.74-33.25h0s-.02,0-.03-.01c-3.83-1.77-7.65-3.61-11.46-5.49-.29-.14-.57-.28-.86-.43-3.76-1.86-7.51-3.77-11.24-5.74-.18-.1-.36-.19-.55-.29-3.64-1.92-7.26-3.89-10.86-5.9-.33-.18-.66-.37-.99-.55-3.77-2.12-7.51-4.28-11.23-6.49-3.26-1.95-6.41-3.9-9.52-5.86-.84-.53-1.69-1.06-2.52-1.59-3.18-2.03-6.29-4.07-9.31-6.11-3.6-2.43-7.09-4.87-10.46-7.3-3.19-2.31-6.28-4.62-9.26-6.93Z"/>
        <path class="cls-17" d="M291.97,817.21l25.6-1.13c-11.93-9.26-25.68-18.6-41.08-27.79-15.35-9.16-31.24-17.5-47.23-24.89l-5.11,13.23c12.11,5.63,24.18,11.97,35.85,18.93,11.98,7.14,22.68,14.43,31.96,21.65ZM273.87,795.25c-1.49.7-5.31-.28-8.52-2.2-3.18-1.9-4.57-4.02-3.08-4.72,1.48-.69,5.29.29,8.47,2.19,3.22,1.92,4.61,4.04,3.14,4.73ZM106.23,748.12c15.95-1.9,37.6.9,61.58,7.54l-11.62-19.36c-31.06-8.55-59.04-12.14-79.68-9.66l29.73,21.49ZM116.82,734.37c.46-.22,1.17-.28,2.13-.17,2.85.33,6.85,2.25,8.9,4.27,1.35,1.34,1.49,2.38.56,2.82-.46.22-1.17.28-2.13.17-2.89-.36-6.85-2.25-8.9-4.27-1.35-1.34-1.49-2.38-.56-2.82ZM330.75,882.15l37.73,18.66c7.09-10.56,3.63-25.73-8.7-43.06l-35.56-8.56c9.41,13.28,11.98,24.87,6.53,32.96ZM345.65,872.33c-.1-.52.11-.89.57-1.1.93-.44,2.88-.24,5.21.63,3.54,1.32,6.62,3.63,6.95,5.19.1.52-.11.89-.57,1.1-.93.44-2.87.24-5.22-.63-3.54-1.32-6.66-3.65-6.95-5.19ZM54.31,784.22l34.9,8.4c-9.59-13.39-12.28-25.1-6.84-33.27l-36.77-18.18c-7.09,10.56-3.67,25.71,8.71,43.05ZM54.77,764.39c-.1-.52.11-.89.57-1.1.93-.44,2.88-.24,5.21.63,3.54,1.32,6.62,3.63,6.95,5.19.1.52-.11.89-.57,1.1-.93.44-2.87.24-5.22-.63-3.54-1.32-6.66-3.65-6.95-5.19ZM116.22,766.81c-23.16,10.9-1.48,43.87,48.42,73.64,49.91,29.77,109.14,45.07,132.3,34.18,23.16-10.9,1.48-43.86-48.42-73.64-49.91-29.77-109.14-45.07-132.3-34.18ZM154.67,789.75c5.52-2.6,19.63,1.05,31.52,8.14,5.02,2.99,8.83,6.13,11.15,8.94.13-.4.34-.77.62-1.1.2-.22.42-.43.68-.63.23-.15.47-.3.75-.43,5.52-2.6,19.63,1.05,31.52,8.14,11.89,7.09,17.06,14.95,11.54,17.55-3.98,1.87-12.42.49-21.27-3.07,20.72,10.82,38.61,16.84,38.61,16.84l-7.81,3.67-7.81,3.67s-9.17-10.12-27.01-22.3c5.63,5.08,7.23,9.68,3.25,11.55-5.52,2.6-19.63-1.05-31.52-8.14-11.89-7.09-17.06-14.95-11.54-17.55.61-.29,1.35-.48,2.16-.63.66-.11,1.37-.18,2.14-.19-4.99-1.55-10.42-3.93-15.44-6.92-11.89-7.09-17.06-14.95-11.54-17.54ZM307.06,893.29c-15.81,1.91-37.24-.82-60.99-7.33l11.84,19.71c31,8.54,59.02,12.15,79.66,9.67l-30.51-22.06ZM296.34,907.06c-.46.22-1.18.29-2.13.17-2.89-.36-6.86-2.25-8.9-4.27-1.35-1.34-1.49-2.38-.56-2.82.46-.21,1.17-.28,2.13-.17,2.85.33,6.85,2.25,8.9,4.27,1.36,1.33,1.5,2.38.56,2.82ZM121.87,824.75l-25.41,1.13c11.99,9.27,25.72,18.62,41.08,27.78,15.39,9.18,31.3,17.51,47.23,24.89l5.16-13.33c-12.43-5.74-24.83-12.23-36.81-19.37-11.67-6.96-22.13-14.06-31.24-21.1ZM139.31,846.17c1.48-.69,5.29.29,8.47,2.19,3.22,1.92,4.61,4.04,3.14,4.73-1.49.7-5.31-.28-8.52-2.2-3.18-1.9-4.57-4.02-3.08-4.72Z"/>
        <path class="cls-5" d="M229.28,763.4l-5.11,13.23c-19.15-8.9-38.41-16.01-56.36-20.98l-11.62-19.36c23.28,6.41,48.23,15.59,73.09,27.11ZM291.97,817.21c14.26,11.08,25.18,22.01,32.24,31.98l35.57,8.56c-9.27-13-23.53-27.22-42.21-41.68l-25.6,1.13ZM57.34,731.68c-5.31,2.5-9.22,5.69-11.75,9.49l36.77,18.18c1.95-2.93,4.95-5.41,9.06-7.34,4.1-1.93,9.09-3.21,14.81-3.89l-29.73-21.49c-7.41.87-13.84,2.55-19.16,5.05ZM307.06,893.29l30.51,22.06c7.39-.9,13.86-2.56,19.18-5.06,5.31-2.5,9.18-5.71,11.73-9.48l-37.73-18.66c-1.95,2.9-4.93,5.35-9,7.26-4.07,1.92-9.02,3.19-14.69,3.88ZM296.59,880.75c2.5-.58,4.8-1.32,6.82-2.27,2.02-.95,3.68-2.07,5.06-3.32l12.38,6.61c-1.55,1.4-3.44,2.65-5.7,3.71-2.26,1.06-4.82,1.91-7.63,2.56l-10.93-7.3M310.68,853.57l12.66,4c1.14,2.54,1.98,5.01,2.45,7.38.48,2.38.58,4.58.37,6.62l-12.97-5.51c.2-1.81.12-3.77-.3-5.89-.43-2.12-1.19-4.32-2.22-6.6M255.85,879.36c4.14.81,8.19,1.47,12.11,1.95,3.91.47,7.57.74,11,.85l8.8,7.47c-3.84-.13-7.95-.44-12.36-.98-4.38-.53-8.92-1.27-13.55-2.16l-6-7.13M285.01,823.18l9.53.29c3.55,3.01,6.88,6.05,9.97,9.09,3.09,3.06,5.83,6.01,8.24,8.89l-11.51-2.25c-2.15-2.56-4.58-5.2-7.33-7.91-2.75-2.72-5.75-5.43-8.91-8.11M201.93,862.26c4.65,1.98,9.38,3.87,14.15,5.64,4.77,1.77,9.42,3.36,13.97,4.79l2.86,6.32c-5.1-1.61-10.32-3.4-15.68-5.39-5.34-1.98-10.63-4.1-15.86-6.32l.58-5.05M242.17,788.65c4.98,2.67,9.93,5.46,14.81,8.36,4.87,2.9,9.5,5.83,13.92,8.78l-6.98,1.61c-3.92-2.62-8.05-5.23-12.39-7.83-4.34-2.59-8.76-5.07-13.22-7.45l3.87-3.47M142.26,835.65l6.97-1.62c3.94,2.63,8.06,5.24,12.41,7.84,4.34,2.59,8.76,5.07,13.21,7.44l-3.85,3.48c-5-2.68-9.93-5.46-14.8-8.36-4.87-2.91-9.51-5.84-13.92-8.78M180.26,762.42c5.1,1.61,10.32,3.4,15.67,5.38,5.35,1.99,10.65,4.11,15.86,6.32l-.56,5.06c-4.65-1.98-9.38-3.87-14.15-5.64-4.77-1.77-9.42-3.36-13.97-4.79l-2.86-6.32M100.41,799.98l11.51,2.25c2.15,2.56,4.58,5.2,7.33,7.91,2.75,2.71,5.75,5.43,8.91,8.11l-9.54-.3c-3.53-3-6.87-6.04-9.97-9.09-3.08-3.05-5.81-6.01-8.23-8.88M125.4,751.8c3.84.13,7.95.44,12.34.97,4.4.54,8.92,1.27,13.56,2.17l5.98,7.13c-4.13-.8-8.19-1.47-12.09-1.94-3.92-.48-7.57-.74-11-.85l-8.8-7.47M86.99,769.87l12.97,5.51c-.2,1.81-.12,3.77.3,5.89.42,2.11,1.19,4.32,2.21,6.59l-12.65-3.99c-1.15-2.55-1.98-5.01-2.47-7.39-.47-2.37-.57-4.57-.35-6.61M98.01,755.95c2.26-1.06,4.82-1.91,7.62-2.57l10.95,7.3c-2.51.57-4.8,1.32-6.82,2.27-2.02.95-3.69,2.06-5.06,3.32l-12.4-6.62c1.57-1.39,3.46-2.64,5.72-3.7M154.67,789.75c-5.52,2.6-.35,10.45,11.54,17.55,5.02,2.99,10.45,5.37,15.44,6.92-.77.02-1.48.09-2.14.19-.8.14-1.55.34-2.16.63-5.52,2.6-.35,10.45,11.54,17.55,11.89,7.09,26,10.74,31.52,8.14,3.98-1.87,2.38-6.47-3.25-11.55,17.84,12.18,27.01,22.3,27.01,22.3l7.81-3.67,7.81-3.67s-17.88-6.02-38.6-16.84c8.85,3.56,17.29,4.95,21.27,3.07,5.52-2.6.35-10.45-11.54-17.55-11.89-7.09-26-10.74-31.52-8.14-.28.13-.52.28-.75.43-.26.2-.48.41-.68.63-.28.33-.49.7-.62,1.1-2.32-2.81-6.13-5.95-11.15-8.94-11.89-7.09-26-10.74-31.52-8.14M54.31,784.22c9.25,13.01,23.51,27.22,42.15,41.66l25.41-1.13c-14.42-11.13-25.48-22.1-32.66-32.14l-34.9-8.4ZM189.92,865.22l-5.16,13.33c24.9,11.54,49.85,20.71,73.15,27.12l-11.84-19.71c-17.87-4.9-37.05-11.93-56.15-20.74Z"/>
      </g>
      <g>
        <path class="cls-9" d="M332.27,529.53c-.1,4.22-.67,8.04-1.65,11.44-2.75,9.49-8.76,15.76-16.9,18.37-6.1,1.96-13.41,1.86-21.45-.48-5.08-1.48-10.45-3.85-16-7.17-5.69-3.4-11.16-7.56-16.29-12.26-7.87-7.23-14.92-15.75-20.72-24.84-7.7-12.08-13.18-25.17-15.39-37.55-.79-4.44-1.17-8.79-1.07-12.97.1-4.18.66-7.97,1.63-11.36,2.71-9.44,8.63-15.71,16.67-18.37,6.05-2.01,13.3-1.97,21.28.29,5.2,1.47,10.7,3.88,16.39,7.28,5.54,3.32,10.88,7.34,15.88,11.89,7.92,7.2,15.04,15.73,20.89,24.83,7.81,12.15,13.37,25.33,15.62,37.81.81,4.48,1.19,8.87,1.09,13.08ZM273.34,558.28c-.04,1.53,1.17,3.51,2.68,4.42,1.53.91,2.79.41,2.83-1.12.04-1.53-1.17-3.51-2.7-4.43-1.51-.9-2.78-.4-2.81,1.13ZM328.56,559.31c-.02.96.45,2.18,1.33,3.23,1.29,1.55,3,2.11,3.79,1.23.26-.28.39-.68.4-1.15.02-.96-.45-2.19-1.33-3.24-1.29-1.55-3-2.11-3.79-1.23-.26.28-.38.69-.39,1.16ZM225.06,497.41c.01-.47-.1-1.01-.34-1.6-.73-1.79-2.42-3.26-3.74-3.27-.9-.02-1.41.62-1.44,1.58-.01.47.1,1.01.33,1.59.73,1.79,2.42,3.26,3.74,3.27.9.02,1.42-.62,1.44-1.57ZM335.19,497.88c-.73-1.79-2.42-3.24-3.74-3.27-.9-.02-1.41.62-1.44,1.58-.01.47.1,1.01.33,1.59.73,1.79,2.42,3.26,3.74,3.28.9.02,1.42-.62,1.44-1.57.01-.47-.1-1.01-.34-1.6ZM226.5,434.28c.02-.96-.46-2.19-1.33-3.24-1.29-1.53-3-2.11-3.79-1.23-.26.29-.38.69-.39,1.16-.02.96.45,2.18,1.33,3.23,1.29,1.55,3,2.11,3.79,1.23.26-.28.39-.68.4-1.15ZM281.74,435.31c.04-1.53-1.17-3.5-2.7-4.41-1.51-.9-2.78-.42-2.81,1.11-.04,1.53,1.17,3.51,2.68,4.42,1.53.91,2.79.41,2.83-1.12Z"/>
        <path class="cls-8" d="M230.12,415.41c-3.3,1.08-6.32,2.62-9.03,4.6l13.68-10.03c1.35-.99,2.79-1.87,4.29-2.64,1.51-.77,3.09-1.42,4.73-1.96h0s0,0,0,0l-13.68,10.03ZM334.93,572.2c-.46.38-.9.76-1.38,1.11l13.68-10.03c.2-.15.41-.3.61-.46.27-.21.51-.44.77-.65.35-.29.7-.57,1.04-.88.09-.08.2-.16.29-.24.28-.26.54-.54.81-.81.28-.28.56-.54.83-.83.07-.07.15-.14.22-.22.33-.36.64-.75.96-1.13.19-.23.39-.44.57-.68.03-.04.07-.08.1-.12.51-.65,1-1.32,1.46-2.02,0-.01.01-.02.02-.04.06-.09.12-.2.18-.29.38-.58.75-1.16,1.1-1.78.05-.09.09-.18.14-.27.15-.26.28-.53.42-.8.2-.38.41-.75.6-1.14.09-.18.17-.38.26-.57.15-.31.29-.62.42-.94.12-.27.25-.53.36-.8.13-.31.24-.64.37-.96.12-.32.25-.64.37-.97.06-.17.13-.33.19-.5.25-.71.48-1.45.69-2.19l-13.68,10.03c-.27.92-.57,1.81-.88,2.69-.12.33-.24.65-.37.97-.23.6-.47,1.19-.72,1.76-.14.32-.28.63-.43.94-.27.58-.56,1.15-.86,1.7-.14.27-.28.54-.43.8-.4.7-.81,1.38-1.25,2.04-.06.1-.12.2-.18.29-.51.75-1.04,1.48-1.59,2.17-.19.23-.39.45-.58.68-.38.46-.77.91-1.17,1.35-.27.29-.55.55-.83.83-.36.36-.72.72-1.1,1.05-.34.3-.69.59-1.04.88ZM299.85,441l13.68-10.03c-.15-.13-.3-.27-.44-.4-.97-.87-1.94-1.73-2.92-2.58-.39-.34-.79-.66-1.18-.99-.29-.25-.59-.49-.88-.74-.31-.26-.62-.53-.94-.78-1.03-.83-2.07-1.65-3.11-2.45-.15-.11-.3-.22-.45-.33-.25-.19-.51-.38-.77-.57-.67-.5-1.34-1.01-2.02-1.49-.73-.52-1.48-1.03-2.22-1.53-.26-.18-.52-.37-.79-.54-.13-.09-.27-.19-.4-.28-1.2-.8-2.41-1.57-3.62-2.32-.39-.24-.78-.47-1.17-.71-.92-.55-1.84-1.08-2.75-1.59-.57-.32-1.12-.59-1.68-.89-.56-.3-1.12-.6-1.67-.88-.31-.16-.63-.34-.94-.5-.71-.35-1.4-.64-2.1-.97-.73-.34-1.47-.7-2.2-1.01-.21-.09-.43-.21-.64-.3-1.24-.53-2.47-1.01-3.69-1.46-.27-.1-.54-.19-.81-.29-.58-.21-1.16-.43-1.73-.62-.96-.32-1.9-.61-2.84-.88l-13.68,10.03c1.5.43,3.03.95,4.58,1.5.27.1.53.19.8.29,1.43.53,2.88,1.12,4.33,1.76.73.32,1.46.67,2.2,1.01,1.01.47,2.02.95,3.04,1.47.56.28,1.11.59,1.67.88,1.47.79,2.94,1.59,4.43,2.48,1.75,1.04,3.47,2.15,5.19,3.3.26.18.52.36.78.54,1.43.97,2.84,1.98,4.24,3.03.26.19.52.38.77.57,1.52,1.15,3.02,2.34,4.5,3.57.29.24.59.49.88.73,1.54,1.29,3.06,2.61,4.55,3.97ZM351.78,484.05c-.79-1.78-1.63-3.55-2.5-5.32-.23-.46-.42-.93-.65-1.39-.15-.29-.32-.57-.47-.86-.95-1.85-1.95-3.68-2.98-5.51-.22-.39-.42-.79-.64-1.19-.06-.1-.12-.2-.18-.31-.25-.43-.52-.86-.78-1.3-.64-1.09-1.28-2.18-1.95-3.25-.35-.56-.7-1.11-1.05-1.66l-13.68,10.03c1.04,1.62,2.02,3.27,3,4.92.26.43.53.86.78,1.3.29.49.54.99.82,1.49,1.03,1.83,2.03,3.67,2.98,5.52.39.75.75,1.5,1.12,2.25.87,1.77,1.7,3.54,2.5,5.32.34.75.68,1.51,1,2.26.95,2.24,1.85,4.47,2.66,6.71.08.23.18.45.26.68.15.41.27.83.42,1.24.54,1.56,1.07,3.12,1.54,4.67.22.71.4,1.41.6,2.11.35,1.22.69,2.43.99,3.64.58,2.31,1.09,4.61,1.5,6.88l13.68-10.03s0,0,0,0c-.41-2.28-.93-4.57-1.5-6.88-.05-.2-.08-.39-.13-.59-.26-1.01-.57-2.03-.86-3.04-.2-.71-.38-1.41-.6-2.11-.47-1.55-1-3.11-1.54-4.67-.14-.41-.27-.83-.42-1.24-.01-.04-.03-.08-.04-.12-.07-.19-.15-.38-.22-.56-.82-2.24-1.71-4.48-2.66-6.71-.32-.76-.66-1.51-1-2.26Z"/>
        <path class="cls-3" d="M230.12,415.41l13.68-10.03c7.9-2.57,17.36-2.5,27.77.49l-13.68,10.03c-10.41-2.99-19.87-3.06-27.77-.49ZM347.14,550.8c-.24,1.1-.5,2.18-.8,3.23l13.68-10.03c.02-.07.04-.13.06-.2.26-.91.49-1.84.7-2.8.02-.08.03-.16.04-.23.07-.31.12-.62.18-.93.12-.6.25-1.19.35-1.8.03-.19.05-.4.08-.59.07-.43.12-.87.18-1.31.06-.43.13-.84.17-1.27.03-.31.05-.63.08-.94.05-.5.09-1.01.12-1.53.02-.33.06-.65.08-.98.04-.73.07-1.48.09-2.23.01-.53.02-1.05.02-1.59,0-.41-.03-.83-.03-1.24-.01-.74-.03-1.48-.06-2.23-.01-.28,0-.56-.02-.84-.02-.34-.06-.68-.09-1.02-.07-.98-.15-1.95-.25-2.94-.04-.34-.05-.68-.09-1.02-.02-.22-.07-.44-.1-.66-.22-1.79-.47-3.58-.79-5.39l-13.68,10.03c.32,1.81.57,3.61.79,5.39.07.56.13,1.12.18,1.68.1.98.18,1.96.25,2.93.04.62.08,1.25.11,1.87.03.75.05,1.49.06,2.24.01.94.04,1.89.01,2.82-.03,1.1-.09,2.16-.17,3.21-.04.51-.08,1.02-.12,1.53-.07.75-.16,1.49-.25,2.22-.06.44-.11.88-.18,1.31-.13.82-.27,1.61-.43,2.4-.06.31-.11.63-.18.93ZM326.9,473.29l13.68-10.03c-.48-.76-.97-1.51-1.47-2.26-.29-.43-.59-.85-.87-1.28-.33-.49-.67-.99-1.01-1.48-.2-.28-.38-.57-.58-.85-.49-.69-.99-1.38-1.49-2.06-.24-.34-.48-.68-.73-1.01-.08-.1-.15-.21-.22-.31-.81-1.09-1.62-2.17-2.46-3.24-.07-.09-.13-.17-.2-.25-.22-.28-.44-.55-.65-.82-.55-.69-1.09-1.38-1.65-2.07-.24-.3-.49-.58-.73-.88-.32-.38-.64-.77-.96-1.15-.29-.34-.57-.69-.87-1.04-.5-.58-1-1.14-1.5-1.71-.27-.3-.53-.61-.8-.91-.11-.12-.21-.24-.31-.36-.88-.98-1.77-1.94-2.67-2.9-.07-.07-.14-.15-.21-.22-.22-.23-.45-.46-.68-.7-.61-.63-1.22-1.27-1.83-1.89-.28-.28-.56-.54-.84-.82-.34-.34-.68-.67-1.03-1.01-.3-.29-.6-.6-.91-.89-.78-.74-1.57-1.48-2.36-2.2l-13.68,10.03c1.1,1.01,2.19,2.05,3.27,3.1.34.33.68.67,1.02,1,.9.89,1.8,1.8,2.68,2.72.22.23.44.45.66.68,1.09,1.14,2.15,2.3,3.21,3.48.26.3.52.6.79.89.8.91,1.6,1.83,2.38,2.76.32.38.64.77.96,1.15.8.97,1.59,1.95,2.37,2.94.22.28.44.55.66.82.98,1.25,1.94,2.52,2.88,3.8.25.33.48.67.73,1.01.7.97,1.39,1.94,2.07,2.92.34.49.67.98,1.01,1.47.79,1.17,1.58,2.35,2.35,3.54Z"/>
        <path class="cls-21" d="M278.52,453.73c23.72,14.18,42.5,44.97,41.96,68.75-.54,23.79-20.21,31.57-43.93,17.39-23.72-14.18-42.5-44.96-41.96-68.75.55-23.79,20.21-31.57,43.93-17.39ZM239.27,514.59l-11.54,5.44c-10.08-15.74-17.25-32.82-20.15-48.98l16.3,5.99c2.21,12.38,7.69,25.47,15.39,37.55ZM220.97,492.54c-.9-.02-1.41.62-1.44,1.58-.01.47.1,1.01.33,1.59.73,1.79,2.42,3.26,3.74,3.27.9.02,1.42-.62,1.44-1.57.01-.47-.1-1.01-.34-1.6-.73-1.79-2.42-3.26-3.74-3.27ZM276.27,551.7c5.55,3.32,10.92,5.69,16,7.17l4.46,18.56c-6.67-1.92-13.76-5.03-21.05-9.39-7.3-4.36-14.31-9.69-20.91-15.71l5.22-12.89c5.12,4.7,10.59,8.86,16.29,12.26ZM276.02,562.7c1.53.91,2.79.41,2.83-1.12.04-1.53-1.17-3.51-2.7-4.43-1.51-.9-2.78-.4-2.81,1.13-.04,1.53,1.17,3.51,2.68,4.42ZM330.62,540.97l15.72,13.07c-3.57,12.3-11.31,20.45-21.83,23.87l-10.79-18.57c8.14-2.61,14.15-8.88,16.9-18.37ZM328.96,558.15c-.26.28-.38.69-.39,1.16-.02.96.45,2.18,1.33,3.23,1.29,1.55,3,2.11,3.79,1.23.26-.28.39-.68.4-1.15.02-.96-.45-2.19-1.33-3.24-1.29-1.55-3-2.11-3.79-1.23ZM224.44,452.71l-16.13-13.41c3.55-12.29,11.3-20.44,21.82-23.88l10.99,18.92c-8.04,2.66-13.96,8.93-16.68,18.37ZM226.1,435.44c.26-.28.39-.68.4-1.15.02-.96-.46-2.19-1.33-3.24-1.29-1.53-3-2.11-3.79-1.23-.26.29-.38.69-.39,1.16-.02.96.45,2.18,1.33,3.23,1.29,1.55,3,2.11,3.79,1.23ZM347.06,522.28l-15.89-5.83c-2.25-12.48-7.81-25.66-15.62-37.81l11.34-5.34c10.08,15.76,17.25,32.83,20.17,48.99ZM331.45,494.6c-.9-.02-1.41.62-1.44,1.58-.01.47.1,1.01.33,1.59.73,1.79,2.42,3.26,3.74,3.28.9.02,1.42-.62,1.44-1.57.01-.47-.1-1.01-.34-1.6-.73-1.79-2.42-3.24-3.74-3.27ZM278.79,441.91c-5.69-3.4-11.2-5.81-16.39-7.28l-4.5-18.72c6.69,1.93,13.76,5.03,21.06,9.39,7.3,4.36,14.33,9.7,20.91,15.7l-5.19,12.8c-5.01-4.55-10.34-8.58-15.88-11.89ZM279.04,430.9c-1.51-.9-2.78-.42-2.81,1.11-.04,1.53,1.17,3.51,2.68,4.42,1.53.91,2.79.41,2.83-1.12.04-1.53-1.17-3.5-2.7-4.41Z"/>
        <path class="cls-12" d="M254.77,552.32c-10.26-9.37-19.47-20.45-27.04-32.29l11.54-5.44c5.8,9.09,12.85,17.61,20.72,24.84l-5.22,12.89ZM224.44,452.71l-16.13-13.41c-1.28,4.41-2.02,9.36-2.15,14.81-.12,5.46.37,11.14,1.42,16.95l16.3,5.99c-.79-4.44-1.17-8.79-1.07-12.97.1-4.18.66-7.97,1.63-11.36ZM324.5,577.91l-10.79-18.57c-6.1,1.96-13.41,1.86-21.45-.48l4.46,18.56c10.41,2.99,19.87,3.08,27.77.49ZM262.39,434.63l-4.5-18.72c-10.41-2.99-19.87-3.06-27.77-.49l10.99,18.92c6.05-2,13.3-1.97,21.28.29ZM348.47,539.21c.12-5.46-.37-11.14-1.4-16.94l-15.89-5.83c.81,4.48,1.19,8.87,1.09,13.08-.1,4.22-.67,8.04-1.65,11.44l15.72,13.07c1.26-4.42,2-9.37,2.13-14.82ZM232.08,463.44c-.31,1.84-.51,3.78-.56,5.85-.05,2.07.06,4.2.28,6.35l-5.56-2.57c-.25-2.42-.35-4.8-.3-7.12.05-2.32.27-4.51.62-6.57l5.52,4.06M240.45,503.16l-4.51.77c-1.33-2.61-2.56-5.27-3.67-7.97-1.12-2.71-2.07-5.36-2.88-7.96l5.22.95c.72,2.32,1.57,4.69,2.56,7.1.99,2.41,2.1,4.78,3.29,7.11M241.74,446.86c-1.27.86-2.45,1.87-3.52,3.04-1.07,1.18-2,2.49-2.81,3.89l-5.12-5.23c.91-1.57,1.96-3.03,3.16-4.35,1.2-1.32,2.52-2.45,3.93-3.42l4.36,6.07M259.03,528.98l-2.25,3.91c-2.07-2.11-4.09-4.34-6.07-6.7-1.98-2.37-3.84-4.77-5.6-7.22l3.51-2.4c1.56,2.18,3.22,4.33,4.98,6.44,1.76,2.1,3.58,4.09,5.42,5.97M260.98,443.66c-1.87-.34-3.73-.55-5.54-.58-1.81-.03-3.52.11-5.14.38l-3.31-6.48c1.82-.3,3.74-.46,5.77-.42,2.03.04,4.1.26,6.21.65l2.01,6.46M283.19,552.19c-2.24-1.04-4.52-2.24-6.84-3.63-2.31-1.38-4.58-2.9-6.82-4.54l.87-5.12c1.98,1.46,4.01,2.82,6.07,4.06,2.06,1.23,4.1,2.3,6.1,3.22l.61,6M285.54,449.59l-.86,5.12c-1.99-1.46-4.02-2.83-6.08-4.06s-4.1-2.3-6.09-3.22l-.62-6.01c2.25,1.05,4.52,2.24,6.84,3.63,2.31,1.38,4.59,2.91,6.82,4.54M308.08,556.63c-1.82.31-3.74.46-5.77.42-2.04-.04-4.11-.27-6.21-.64l-2.02-6.46c1.87.34,3.73.55,5.54.58,1.81.03,3.52-.11,5.14-.38l3.31,6.48M309.96,474.63l-3.51,2.4c-1.56-2.18-3.22-4.33-4.98-6.44-1.76-2.1-3.58-4.09-5.42-5.97l2.25-3.91c2.06,2.11,4.09,4.34,6.07,6.7,1.98,2.36,3.84,4.77,5.59,7.22M324.79,545.06c-.91,1.57-1.96,3.03-3.16,4.35-1.21,1.31-2.52,2.45-3.94,3.42l-4.35-6.07c1.26-.86,2.44-1.87,3.51-3.04,1.08-1.17,2-2.49,2.81-3.89l5.12,5.23M325.7,505.61l-5.22-.95c-.72-2.32-1.57-4.69-2.56-7.1-.99-2.41-2.1-4.78-3.28-7.11l4.51-.78c1.34,2.61,2.56,5.27,3.68,7.97,1.11,2.7,2.06,5.36,2.88,7.96M329.14,527.66c-.05,2.32-.27,4.51-.61,6.58l-5.53-4.06c.32-1.83.51-3.78.56-5.85.05-2.07-.05-4.19-.28-6.35l5.56,2.57c.24,2.42.35,4.8.3,7.12M302.21,511.56c.13-5.67-4.35-13-10-16.38-2.38-1.43-4.6-1.91-6.37-1.58.16-.37.29-.77.39-1.2.12-.54.2-1.11.22-1.74.13-5.67-4.35-13-10-16.38-5.65-3.38-10.34-1.52-10.47,4.14-.09,4.09,2.21,9.03,5.61,12.74-9.13-6.96-15.46-15.28-15.46-15.28l-.18,8.02-.18,8.02s6.53-.62,15.73,3.37c-3.48-.41-5.94,1.68-6.04,5.77-.13,5.67,4.35,13,10,16.38,5.65,3.38,10.34,1.52,10.47-4.14,0-.29,0-.57-.02-.86-.03-.36-.07-.72-.12-1.08-.08-.54-.19-1.08-.33-1.63,1.71,2.41,3.88,4.56,6.27,5.98,5.65,3.38,10.34,1.52,10.47-4.14M326.9,473.29c-7.57-11.82-16.78-22.91-27.04-32.29l-5.19,12.8c7.92,7.2,15.04,15.73,20.89,24.83l11.34-5.34Z"/>
      </g>
      <g>
        <path class="cls-34" d="M237.71,1116.89c.17,1.08-.7,1.95-1.92,1.94-.41,0-.81-.1-1.16-.26-.72-.34-1.27-.96-1.39-1.68-.17-1.08.69-1.93,1.92-1.94.41,0,.81.1,1.16.26.72.34,1.27.96,1.39,1.68ZM284.04,1137.41c-.72-.34-1.57-.36-2.23,0-.99.54-1.16,1.73-.4,2.64.25.31.58.55.93.71.72.34,1.57.36,2.23,0,.99-.54,1.16-1.72.4-2.64-.25-.31-.58-.55-.93-.71ZM195.7,1137.26c-1.16-.54-2.48-.22-2.95.71-.46.92.09,2.11,1.25,2.65,1.14.53,2.46.22,2.93-.7.47-.93-.09-2.12-1.23-2.65ZM291.12,1181.64c-1.15-.53-2.46-.22-2.93.71-.47.92.09,2.11,1.24,2.64,1.16.54,2.48.22,2.94-.69.47-.93-.09-2.12-1.25-2.66ZM202.77,1181.49c-.72-.34-1.57-.36-2.23,0-.99.54-1.16,1.73-.4,2.64.25.31.58.55.94.71.72.34,1.58.36,2.23,0,.99-.54,1.16-1.72.4-2.64-.25-.31-.58-.55-.93-.71ZM259.41,1127.86c-3.19-1.48-6.43-2.64-9.69-3.48-9.07-2.34-18.2-2.25-26.24,0-6.02,1.69-11.43,4.59-15.72,8.58-2.72,2.53-4.99,5.49-6.7,8.86-1.75,3.46-2.78,7.1-3.15,10.81-.56,5.69.45,11.53,2.82,17.08,3.15,7.38,8.71,14.24,16.2,19.58,2.69,1.91,5.62,3.63,8.78,5.1,3.16,1.47,6.37,2.62,9.6,3.45,9.01,2.34,18.08,2.28,26.08.09,6.01-1.65,11.42-4.5,15.74-8.45,2.81-2.57,5.16-5.6,6.91-9.06,1.71-3.37,2.73-6.91,3.12-10.52.62-5.7-.35-11.57-2.68-17.14-3.12-7.45-8.7-14.38-16.23-19.77-2.7-1.93-5.65-3.66-8.84-5.14ZM250.48,1203.68c-.35-.16-.75-.26-1.16-.26-1.23,0-2.09.86-1.92,1.94.12.71.66,1.34,1.39,1.68.35.16.75.26,1.16.26,1.22,0,2.09-.86,1.92-1.94-.12-.71-.66-1.34-1.39-1.68Z"/>
        <path class="cls-30" d="M249.72,1124.38l2.13-10.88c-11.75-3.05-23.59-2.93-34-.04l5.63,10.93c8.03-2.25,17.17-2.35,26.24,0ZM237.71,1116.89c.17,1.08-.7,1.95-1.92,1.94-.41,0-.81-.1-1.16-.26-.72-.34-1.27-.96-1.39-1.68-.17-1.08.69-1.93,1.92-1.94.41,0,.81.1,1.16.26.72.34,1.27.96,1.39,1.68ZM284.48,1152.76l12.45-2.52c-4.09-9.64-11.32-18.62-21.08-25.58l-7.59,8.33c7.53,5.38,13.11,12.32,16.23,19.77ZM281.81,1137.41c.66-.35,1.51-.33,2.23,0,.35.16.68.41.93.71.76.93.59,2.1-.4,2.64-.66.35-1.51.33-2.23,0-.35-.16-.68-.41-.93-.71-.76-.92-.59-2.1.4-2.64ZM201.07,1141.83c1.71-3.37,3.98-6.33,6.7-8.86l-10.36-8.44c-3.6,3.3-6.59,7.2-8.84,11.64-2.25,4.44-3.59,9.1-4.07,13.86l13.43,2.6c.37-3.71,1.4-7.35,3.15-10.81ZM196.93,1139.91c-.47.92-1.78,1.23-2.93.7-1.16-.54-1.72-1.73-1.25-2.65.47-.93,1.79-1.25,2.95-.71,1.14.53,1.7,1.72,1.23,2.65ZM284.04,1180.43c-1.75,3.46-4.1,6.49-6.91,9.06l10.44,8.51c3.6-3.31,6.6-7.21,8.84-11.64,2.25-4.45,3.59-9.11,4.07-13.86l-13.33-2.58c-.39,3.61-1.41,7.15-3.12,10.52ZM288.18,1182.35c.47-.93,1.79-1.25,2.93-.71,1.16.54,1.72,1.73,1.25,2.66-.46.92-1.78,1.23-2.94.7-1.15-.53-1.7-1.72-1.24-2.64ZM210,1145.98c-7.3,14.42,1.36,32.88,19.34,41.25,17.98,8.36,38.47,3.46,45.77-10.96,7.3-14.42-1.36-32.88-19.33-41.25-17.98-8.36-38.47-3.46-45.77,10.96ZM235.32,1197.85l-2.19,11.16c11.75,3.05,23.58,2.95,34.01.06l-5.74-11.13c-8,2.19-17.07,2.26-26.08-.09ZM247.4,1205.36c-.17-1.08.69-1.93,1.92-1.94.41,0,.81.1,1.16.26.72.34,1.27.96,1.39,1.68.17,1.08-.7,1.95-1.92,1.94-.41,0-.81-.1-1.16-.26-.72-.34-1.27-.96-1.39-1.68ZM188.07,1172.29c4.07,9.63,11.31,18.6,21.08,25.56l7.8-8.55c-7.49-5.33-13.05-12.2-16.2-19.58l-12.67,2.57ZM200.14,1184.12c-.76-.92-.59-2.1.4-2.64.66-.35,1.51-.33,2.23,0,.36.16.68.41.93.71.76.93.59,2.1-.4,2.64-.65.36-1.5.33-2.23,0-.36-.17-.68-.41-.94-.71Z"/>
        <path class="cls-18" d="M185.49,1144.39c-.03.12-.07.24-.1.36-.27,1.12-.48,2.24-.65,3.38-.1.64-.19,1.27-.26,1.92l-2.72,7.02c.05-.51.11-1.03.19-1.54.02-.13.05-.25.07-.37.17-1.13.38-2.26.65-3.38,0-.02,0-.05.01-.07.02-.1.06-.19.08-.29.24-.97.53-1.93.85-2.88.05-.15.08-.3.13-.44.15-.43.31-.86.47-1.29l2.73-7.02c-.22.57-.41,1.15-.61,1.73-.32.95-.61,1.91-.85,2.88ZM287.57,1197.99l-2.72,7.02c3.6-3.31,6.6-7.21,8.84-11.64.6-1.19,1.14-2.4,1.61-3.61l2.72-7.02c-.47,1.22-1.01,2.42-1.61,3.61-2.25,4.44-5.24,8.33-8.84,11.64ZM199.53,1199.25c.13.12.26.23.39.35.72.66,1.45,1.32,2.21,1.96.16.14.34.27.5.41.2.16.4.33.61.49,1.03.83,2.08,1.64,3.18,2.43l2.72-7.02h0s0,0,0,0c-1.09-.78-2.14-1.59-3.17-2.42-.2-.16-.41-.33-.61-.49-.93-.77-1.83-1.56-2.71-2.36-.13-.12-.26-.23-.39-.35-.98-.92-1.92-1.86-2.83-2.82-.16-.17-.32-.35-.48-.53-.75-.81-1.47-1.63-2.16-2.46-.14-.17-.29-.34-.43-.52-.77-.94-1.5-1.9-2.2-2.88-.16-.22-.31-.44-.46-.65-.63-.9-1.23-1.81-1.8-2.74-.07-.12-.16-.24-.23-.36-.61-1.01-1.18-2.04-1.72-3.07-.13-.24-.25-.49-.37-.73-.53-1.05-1.04-2.11-1.49-3.18l-2.73,7.02c.45,1.07.96,2.13,1.49,3.18.12.24.25.49.37.73.54,1.03,1.11,2.06,1.72,3.07.07.12.15.24.23.36.57.92,1.17,1.84,1.8,2.74.15.22.3.44.46.65.7.97,1.43,1.93,2.2,2.87.14.17.29.34.44.52.69.83,1.42,1.65,2.16,2.46.16.18.32.35.49.53.09.1.18.2.28.3.82.86,1.67,1.69,2.55,2.52ZM233.13,1209.01l-2.72,7.02c.8.21,1.6.4,2.41.58.3.07.6.1.9.17.96.2,1.93.38,2.89.54.41.07.82.17,1.23.23.31.05.62.08.93.12.31.04.62.08.92.12,1.28.15,2.56.29,3.83.37.01,0,.02,0,.04,0,.1,0,.2,0,.3.01,1.24.07,2.47.11,3.69.12.43,0,.85-.01,1.28-.02.58,0,1.17,0,1.74-.03.31-.01.61-.05.92-.06.5-.03,1-.06,1.5-.1.83-.07,1.66-.15,2.48-.25.48-.06.97-.11,1.45-.18.87-.12,1.73-.27,2.59-.43.41-.08.82-.14,1.22-.22,1.25-.26,2.48-.55,3.69-.88l2.72-7.02c-1.21.34-2.45.62-3.69.88-.4.08-.81.15-1.22.22-.86.16-1.72.31-2.59.43-.48.07-.96.12-1.45.18-.82.1-1.65.18-2.48.25-.5.04-1,.08-1.5.1-.88.05-1.77.08-2.66.09-.43,0-.85.02-1.28.02-1.23,0-2.46-.04-3.7-.12-.1,0-.19,0-.29-.01-1.28-.08-2.57-.21-3.86-.37-.31-.04-.62-.08-.93-.12-.72-.1-1.44-.23-2.16-.35-.96-.16-1.93-.33-2.89-.54-1.1-.23-2.2-.46-3.3-.75Z"/>
        <path class="cls-14" d="M184.11,1176.09c-.21-.6-.4-1.2-.58-1.8-.08-.27-.16-.54-.24-.81-.19-.68-.37-1.36-.53-2.04-.04-.16-.08-.32-.12-.49,0-.04-.02-.08-.03-.12-.06-.26-.09-.52-.14-.77-.14-.69-.28-1.38-.39-2.07-.06-.38-.1-.75-.15-1.13-.08-.61-.16-1.21-.21-1.82-.01-.12-.03-.24-.04-.36-.04-.44-.05-.88-.07-1.32-.01-.3-.04-.6-.05-.89-.02-.79-.02-1.58,0-2.37,0-.09,0-.17,0-.26,0,0,0-.01,0-.02.03-.92.1-1.83.19-2.75l2.73-7.02c-.1.92-.16,1.84-.19,2.77,0,.08,0,.16,0,.25-.02.79-.03,1.59,0,2.38,0,.3.03.59.05.89.03.56.06,1.13.11,1.69.05.61.13,1.21.21,1.82.05.38.09.76.15,1.13.11.69.24,1.37.38,2.05.06.3.11.61.18.91.04.16.08.32.12.48.16.69.34,1.37.53,2.05.08.27.16.54.24.8.18.6.38,1.2.58,1.8.09.25.17.5.26.75.3.83.62,1.65.96,2.47,0,0,0,0,0,0h0l-2.73,7.02c-.35-.82-.66-1.64-.96-2.47-.09-.25-.17-.5-.26-.75ZM267.14,1209.07l-2.72,7.02c7.82-2.17,14.84-5.92,20.44-11.08l2.72-7.02c-5.6,5.16-12.62,8.9-20.44,11.08ZM209.14,1197.85l-2.72,7.02c.1.07.2.14.31.22.12.08.24.15.36.23,1.09.76,2.21,1.49,3.35,2.19.17.11.33.22.5.33.12.07.25.13.37.21,1.21.72,2.45,1.42,3.72,2.08.04.02.08.05.13.07.89.46,1.8.9,2.72,1.33.53.25,1.07.49,1.61.72.18.08.37.14.55.22,1.09.46,2.18.9,3.27,1.31.16.06.32.14.49.19.04.02.09.03.13.04,1.28.46,2.57.88,3.85,1.27.11.03.23.08.34.11.76.22,1.52.43,2.28.63l2.72-7.02h0,0s0,0-.01,0c-.87-.22-1.74-.48-2.61-.74-1.29-.39-2.57-.8-3.86-1.27-.21-.07-.41-.16-.62-.24-1.09-.41-2.18-.84-3.27-1.31-.72-.31-1.44-.61-2.16-.95-.97-.45-1.91-.92-2.84-1.4-1.27-.66-2.51-1.36-3.72-2.08-.3-.18-.58-.36-.88-.54-1.14-.7-2.26-1.43-3.35-2.19-.22-.15-.45-.3-.67-.45Z"/>
        <path class="cls-11" d="M275.84,1124.66l-7.59,8.33c-2.7-1.93-5.65-3.66-8.84-5.14-3.19-1.48-6.43-2.64-9.69-3.48l2.13-10.88c4.22,1.1,8.42,2.59,12.54,4.51,4.12,1.92,7.95,4.16,11.44,6.65ZM217.85,1113.46c-7.83,2.17-14.86,5.91-20.45,11.07l10.36,8.44c4.3-4,9.7-6.9,15.72-8.58l-5.63-10.93ZM296.92,1150.24l-12.45,2.52c2.34,5.58,3.3,11.44,2.68,17.14l13.33,2.58c.77-7.41-.51-15.01-3.57-22.24ZM197.92,1152.64l-13.43-2.6c-.77,7.41.51,15.01,3.58,22.25l12.67-2.57c-2.37-5.55-3.38-11.39-2.82-17.08ZM277.13,1189.49c-4.32,3.94-9.72,6.8-15.74,8.45l5.74,11.13c7.82-2.17,14.84-5.92,20.44-11.08l-10.44-8.51ZM223.91,1186.7c1.43.86,2.92,1.67,4.48,2.4s3.15,1.35,4.74,1.89l-1.14,3.63c-1.78-.61-3.56-1.31-5.32-2.13-1.75-.82-3.43-1.72-5.03-2.69l2.27-3.11M252.62,1193.18l1.22,3.9c-1.78.2-3.6.31-5.48.31-1.88,0-3.74-.12-5.58-.33l-.03-3.9c1.64.19,3.31.3,4.98.3,1.67,0,3.3-.1,4.88-.29M210.06,1173.38c.83,1.31,1.75,2.6,2.79,3.85,1.04,1.26,2.15,2.44,3.33,3.56l-3.21,2.39c-1.31-1.26-2.56-2.59-3.72-4-1.16-1.41-2.2-2.85-3.13-4.31l3.95-1.49M269.4,1186.78l3.27,3.12c-1.3.96-2.69,1.86-4.18,2.67-1.5.81-3.04,1.51-4.64,2.11l-2.31-3.64c1.42-.54,2.8-1.16,4.13-1.88,1.33-.72,2.57-1.52,3.72-2.38M204.92,1156.78c0,1.4.12,2.83.35,4.28.24,1.45.58,2.88,1.02,4.27l-4.41.51c-.49-1.57-.88-3.17-1.14-4.8-.26-1.62-.39-3.22-.4-4.79l4.57.53M283.43,1175.01c-.47,1.46-1.05,2.9-1.76,4.31-.71,1.41-1.53,2.73-2.44,3.99l-3.98-2.41c.82-1.11,1.55-2.3,2.19-3.55.64-1.26,1.15-2.54,1.56-3.85l4.43,1.51M205.89,1138.94l3.98,2.4c-.81,1.12-1.55,2.3-2.19,3.55-.64,1.25-1.14,2.54-1.56,3.84l-4.43-1.5c.47-1.46,1.05-2.9,1.76-4.31.71-1.41,1.54-2.74,2.44-3.99M283.24,1156.4c.49,1.57.88,3.17,1.14,4.8.26,1.63.38,3.23.4,4.79l-4.58-.53c0-1.4-.12-2.83-.35-4.28-.24-1.45-.58-2.88-1.02-4.27l4.41-.51M221.26,1127.57l2.31,3.64c-1.42.54-2.8,1.16-4.13,1.88-1.33.72-2.57,1.52-3.72,2.38l-3.26-3.12c1.29-.96,2.68-1.85,4.18-2.67,1.5-.81,3.05-1.51,4.64-2.11M272.15,1139.06c1.31,1.26,2.56,2.59,3.72,4,1.16,1.41,2.2,2.85,3.13,4.32l-3.95,1.49c-.83-1.3-1.75-2.6-2.79-3.85-1.04-1.26-2.15-2.44-3.33-3.56l3.21-2.39M242.33,1125.19l.03,3.9c-1.64-.19-3.31-.3-4.98-.3s-3.3.1-4.88.28l-1.22-3.89c1.78-.21,3.6-.31,5.48-.31,1.88,0,3.74.12,5.58.33M258.44,1129.76c1.75.82,3.43,1.72,5.04,2.68l-2.27,3.11c-1.42-.87-2.92-1.67-4.48-2.4-1.57-.73-3.15-1.35-4.74-1.89l1.14-3.63c1.79.61,3.56,1.32,5.31,2.13M250.15,1146.13c-4.28-1.99-9.17-.82-10.91,2.61-.73,1.45-.78,3.08-.28,4.62-.3-.25-.62-.49-.96-.72-.42-.27-.86-.53-1.34-.75-4.28-1.99-9.17-.82-10.91,2.61-1.74,3.44.32,7.83,4.61,9.83,3.09,1.44,6.48,1.22,8.79-.29-3.94,5.05-9.3,7.38-9.3,7.38l6.06,2.82,6.06,2.82s-1.4-5.48.3-11.57c.19,2.67,2.11,5.36,5.2,6.79,4.28,1.99,9.17.82,10.91-2.61,1.74-3.44-.32-7.83-4.61-9.83-.22-.1-.43-.19-.65-.28-.27-.1-.53-.18-.8-.27-.39-.11-.79-.21-1.18-.28,1.57-.57,2.88-1.62,3.61-3.07,1.74-3.44-.32-7.83-4.61-9.83M216.94,1189.3l-7.8,8.55c3.5,2.5,7.33,4.74,11.46,6.66,4.12,1.92,8.32,3.42,12.53,4.5l2.19-11.16c-3.23-.84-6.44-1.99-9.6-3.45-3.16-1.47-6.09-3.19-8.78-5.1Z"/>
      </g>
    </g>
  </g>
</svg>